<svg xmlns="http://www.w3.org/2000/svg" width="100" height="100" viewBox="0 0 338 431" class="a"><style>.a{stroke-linejoin:round;}.b{fill-opacity:0.431373;fill:#fff;}.c{fill:#8c8c8c;}</style><path d="M150.86 11.026c5.953-0.678 12.006-1.026 18.14-1.026 87.754 0 159 71.246 159 159 0 0 0 230.372 0 251.002 0 0.397-0.158 0.779-0.439 1.06 -0.28 0.281-0.662 0.439-1.059 0.439 -0.001-0.001-0.001-0.001-0.002-0.001 -5.937 0.037-12.777-2.005-19.5-5.681l0-244.66c0-87.432-69.703-158.595-156.14-160.133Z" class="b"/><path d="M61.88 377.342c-6.398 25.51-33.722 44.116-50.38 44.158 -0.001 0-0.001 0-0.002 0 -0.827 0-1.498-0.671-1.498-1.498 0-20.63 0-251.002 0-251.002 0-87.755 71.246-159 159-159 87.754 0 159 71.246 159 159 0 0 0 230.372 0 251.002 0 0.397-0.158 0.779-0.439 1.06 -0.28 0.281-0.662 0.439-1.059 0.439 -0.001-0.001-0.001-0.001-0.002-0.001 -17.891 0.11-43.982-18.648-50.38-44.158 0 0-0.98-1.919-2.12-1.919 -1.14 0-2.12 1.919-2.12 1.919 -6.398 25.51-33.873 44.23-50.38 44.158 -18.477 0.252-43.982-18.648-50.38-44.158 0 0-0.98-1.919-2.12-1.919 -0.841 0-2.12 1.919-2.12 1.919 -6.398 25.51-32.996 44.114-50.38 44.158 -17.267 0.111-43.982-18.648-50.38-44.158 0 0-0.981-1.917-2.121-1.917 -0.967 0-2.119 1.917-2.119 1.917Z" class="b"/><path d="M169.544 0.501l0.544 0.002 0.543 0.005 0.543 0.006 0.543 0.008 0.542 0.009 0.542 0.011 0.541 0.013 0.541 0.015 0.541 0.016 0.54 0.018 0.54 0.02 0.539 0.021 0.539 0.023 0.538 0.025 0.539 0.026 0.537 0.028 0.537 0.03 0.537 0.032 0.537 0.033 0.536 0.035 0.535 0.036 0.535 0.039 0.535 0.039 0.534 0.042 0.534 0.043 0.533 0.045 0.533 0.047 0.532 0.048 0.532 0.05 0.531 0.051 0.531 0.053 0.531 0.055 0.53 0.056 0.529 0.059 0.529 0.059 0.529 0.062 0.528 0.063 0.527 0.064 0.527 0.066 0.527 0.068 0.526 0.07 0.526 0.071 0.525 0.073 0.524 0.074 0.524 0.076 0.524 0.078 0.523 0.079 0.523 0.08 0.522 0.083 0.521 0.084 0.521 0.085 0.52 0.088 0.521 0.088 0.519 0.091 0.519 0.092 0.518 0.093 0.518 0.095 0.517 0.097 0.517 0.098 0.516 0.1 0.515 0.101 0.515 0.103 0.515 0.105 0.513 0.106 0.514 0.108 0.513 0.109 0.512 0.111 0.511 0.112 0.511 0.114 0.511 0.115 0.51 0.117 0.509 0.119 0.509 0.12 0.508 0.122 0.507 0.123 0.507 0.124 0.507 0.127 0.505 0.127 0.505 0.13 0.505 0.13 0.504 0.133 0.503 0.133 0.503 0.136 0.502 0.137 0.501 0.138 0.501 0.14 0.5 0.141 0.5 0.143 0.499 0.144 0.498 0.146 0.498 0.148 0.496 0.148 0.497 0.151 0.496 0.152 0.495 0.153 0.494 0.154 0.494 0.157 0.493 0.157 0.492 0.16 0.492 0.16 0.491 0.162 0.491 0.164 0.49 0.165 0.489 0.167 0.488 0.167 0.488 0.17 0.487 0.171 0.487 0.172 0.485 0.174 0.485 0.175 0.485 0.177 0.483 0.178 0.483 0.179 0.483 0.181 0.481 0.183 0.481 0.183 0.48 0.186 0.48 0.186 0.478 0.188 0.478 0.19 0.478 0.191 0.476 0.192 0.476 0.194 0.475 0.195 0.474 0.196 0.474 0.198 0.473 0.2 0.472 0.2 0.472 0.203 0.471 0.203 0.469 0.205 0.47 0.206 0.468 0.208 0.468 0.209 0.467 0.21 0.466 0.212 0.466 0.213 0.464 0.215 0.464 0.216 0.463 0.217 0.463 0.219 0.461 0.219 0.461 0.222 0.461 0.223 0.459 0.224 0.458 0.225 0.458 0.227 0.457 0.228 0.456 0.229 0.455 0.231 0.455 0.232 0.454 0.233 0.453 0.235 0.452 0.236 0.451 0.238 0.451 0.238 0.449 0.24 0.449 0.242 0.449 0.243 0.447 0.244 0.446 0.245 0.446 0.246 0.445 0.248 0.444 0.249 0.443 0.251 0.442 0.252 0.442 0.253 0.44 0.254 0.44 0.256 0.439 0.257 0.438 0.258 0.437 0.26 0.437 0.26 0.435 0.262 0.435 0.264 0.434 0.264 0.433 0.266 0.432 0.267 0.431 0.269 0.43 0.27 0.43 0.27 0.428 0.272 0.428 0.274 0.427 0.275 0.426 0.276 0.425 0.277 0.424 0.278 0.423 0.28 0.423 0.281 0.422 0.282 0.42 0.283 0.42 0.285 0.419 0.286 0.417 0.287 0.417 0.288 0.416 0.289 0.416 0.291 0.414 0.292 0.413 0.293 0.413 0.294 0.411 0.296 0.411 0.296 0.409 0.298 0.409 0.299 0.408 0.301 0.407 0.301 0.405 0.303 0.405 0.304 0.404 0.305 0.404 0.306 0.402 0.307 0.401 0.309 0.4 0.31 0.399 0.311 0.398 0.312 0.398 0.313 0.396 0.315 0.396 0.315 0.394 0.317 0.393 0.318 0.393 0.319 0.391 0.32 0.391 0.321 0.389 0.323 0.389 0.323 0.388 0.325 0.386 0.326 0.386 0.327 0.384 0.329 0.384 0.329 0.382 0.33 0.382 0.332 0.38 0.332 0.38 0.334 0.378 0.335 0.378 0.336 0.377 0.337 0.375 0.339 0.375 0.339 0.373 0.341 0.373 0.341 0.371 0.343 0.37 0.344 0.37 0.344 0.368 0.346 0.367 0.348 0.366 0.347 0.366 0.35 0.364 0.35 0.363 0.351 0.362 0.353 0.361 0.354 0.36 0.354 0.359 0.356 0.357 0.356 0.357 0.359 0.356 0.358 0.354 0.36 0.354 0.361 0.353 0.362 0.351 0.364 0.35 0.363 0.349 0.366 0.349 0.366 0.346 0.367 0.347 0.368 0.344 0.37 0.344 0.37 0.343 0.372 0.342 0.372 0.34 0.373 0.339 0.375 0.338 0.375 0.338 0.377 0.336 0.378 0.335 0.378 0.333 0.379 0.333 0.381 0.332 0.382 0.33 0.382 0.33 0.384 0.328 0.384 0.327 0.386 0.326 0.386 0.325 0.388 0.323 0.389 0.323 0.389 0.321 0.391 0.32 0.391 0.319 0.393 0.318 0.393 0.317 0.395 0.315 0.395 0.315 0.396 0.313 0.398 0.312 0.397 0.311 0.4 0.31 0.401 0.309 0.4 0.307 0.402 0.306 0.404 0.305 0.404 0.304 0.404 0.303 0.406 0.301 0.407 0.301 0.408 0.298 0.408 0.299 0.41 0.297 0.411 0.295 0.412 0.294 0.411 0.293 0.414 0.292 0.414 0.291 0.415 0.289 0.416 0.289 0.418 0.287 0.418 0.285 0.418 0.285 0.42 0.283 0.42 0.282 0.422 0.281 0.423 0.28 0.423 0.278 0.424 0.277 0.425 0.276 0.426 0.275 0.427 0.273 0.427 0.273 0.429 0.271 0.43 0.269 0.43 0.269 0.431 0.267 0.432 0.266 0.433 0.264 0.434 0.264 0.435 0.262 0.436 0.26 0.435 0.26 0.438 0.258 0.438 0.257 0.439 0.256 0.44 0.254 0.44 0.253 0.442 0.252 0.442 0.25 0.443 0.25 0.444 0.248 0.445 0.246 0.446 0.245 0.446 0.245 0.448 0.242 0.448 0.241 0.448 0.241 0.45 0.238 0.451 0.238 0.451 0.236 0.452 0.235 0.453 0.233 0.454 0.232 0.454 0.231 0.456 0.229 0.456 0.228 0.457 0.227 0.458 0.225 0.458 0.224 0.46 0.223 0.46 0.222 0.461 0.219 0.461 0.219 0.463 0.217 0.463 0.216 0.464 0.215 0.464 0.213 0.466 0.212 0.466 0.21 0.467 0.209 0.467 0.208 0.469 0.206 0.47 0.205 0.47 0.203 0.47 0.203 0.472 0.2 0.472 0.2 0.473 0.198 0.474 0.196 0.474 0.195 0.475 0.194 0.476 0.192 0.477 0.191 0.477 0.19 0.478 0.188 0.478 0.186 0.48 0.186 0.48 0.184 0.481 0.182 0.481 0.181 0.482 0.179 0.484 0.178 0.483 0.177 0.485 0.175 0.485 0.174 0.485 0.172 0.487 0.171 0.487 0.17 0.488 0.168 0.489 0.166 0.488 0.165 0.49 0.164 0.491 0.162 0.491 0.16 0.492 0.16 0.492 0.157 0.493 0.156 0.494 0.155 0.494 0.153 0.495 0.152 0.496 0.151 0.497 0.149 0.497 0.147 0.497 0.146 0.499 0.144 0.498 0.143 0.5 0.141 0.5 0.14 0.501 0.138 0.501 0.137 0.502 0.136 0.503 0.133 0.503 0.133 0.504 0.13 0.505 0.13 0.504 0.127 0.506 0.127 0.507 0.124 0.507 0.123 0.507 0.122 0.508 0.12 0.509 0.119 0.51 0.117 0.509 0.115 0.511 0.114 0.511 0.112 0.511 0.111 0.512 0.109 0.513 0.108 0.513 0.106 0.514 0.105 0.515 0.102 0.515 0.102 0.515 0.1 0.517 0.098 0.516 0.097 0.517 0.095 0.518 0.093 0.519 0.092 0.518 0.091 0.519 0.088 0.521 0.088 0.52 0.085 0.521 0.084 0.522 0.083 0.521 0.08 0.523 0.079 0.523 0.078 0.524 0.076 0.524 0.074 0.524 0.073 0.525 0.071 0.526 0.07 0.526 0.068 0.527 0.066 0.527 0.064 0.527 0.063 0.528 0.062 0.529 0.059 0.529 0.058 0.529 0.057 0.53 0.055 0.531 0.053 0.531 0.051 0.532 0.05 0.531 0.048 0.532 0.047 0.533 0.045 0.533 0.043 0.534 0.042 0.534 0.039 0.535 0.039 0.535 0.036 0.536 0.035 0.536 0.033 0.536 0.032 0.536 0.03 0.538 0.028 0.537 0.026 0.539 0.025 0.538 0.023 0.539 0.021 0.539 0.02 0.54 0.018 0.54 0.016 0.541 0.015 0.541 0.013 0.541 0.011 0.542 0.009 0.542 0.008 0.543 0.006 0.543 0.005 0.543 0.002 0.544 0.001 0.537 0 251.064 -0.002 0.216 -0.011 0.272 -0.016 0.266 -0.024 0.274 -0.03 0.274 -0.037 0.266 -0.042 0.261 -0.049 0.267 -0.057 0.265 -0.061 0.259 -0.071 0.268 -0.075 0.258 -0.08 0.253 -0.086 0.248 -0.094 0.255 -0.101 0.251 -0.102 0.24 -0.116 0.253 -0.117 0.24 -0.121 0.234 -0.131 0.237 -0.135 0.234 -0.142 0.23 -0.145 0.223 -0.151 0.22 -0.158 0.22 -0.169 0.223 -0.167 0.209 -0.172 0.205 -0.183 0.207 -0.184 0.198 -0.188 0.193 -0.196 0.192 -0.206 0.191 -0.2 0.176 -0.204 0.172 -0.213 0.17 -0.218 0.166 -0.221 0.159 -0.214 0.147 -0.233 0.152 -0.234 0.143 -0.224 0.13 -0.234 0.129 -0.243 0.126 -0.24 0.117 -0.24 0.11 -0.253 0.108 -0.248 0.1 -0.251 0.093 -0.258 0.089 -0.25 0.079 -0.258 0.075 -0.259 0.069 -0.259 0.062 -0.274 0.058 -0.26 0.048 -0.26 0.043 -0.274 0.037 -0.274 0.031 -0.266 0.023 -0.274 0.017 -0.272 0.01 -0.146 0.002 -2.556-0.316 1.124 0.298 0.211 0.006 0.288 0.007 0.288 0.004 0.289 0.001 -0.998 0.003 -0.078-0.021 -0.077-0.003 -0.287-0.01 -0.288-0.014 -0.289-0.015 -0.289-0.018 -0.287-0.02 -0.288-0.022 -0.288-0.024 -0.287-0.026 -0.288-0.029 -0.288-0.03 -0.287-0.033 -0.287-0.034 -0.289-0.037 -0.287-0.039 -0.286-0.041 -0.288-0.043 -0.287-0.044 -0.287-0.047 -0.286-0.049 -0.287-0.05 -0.287-0.053 -0.288-0.055 -0.286-0.056 -0.285-0.058 -0.287-0.06 -0.286-0.062 -0.286-0.064 -0.287-0.066 -0.287-0.068 -0.283-0.068 -0.286-0.072 -0.286-0.073 -0.286-0.074 -0.285-0.077 -0.285-0.078 -0.286-0.081 -0.285-0.081 -0.284-0.084 -0.285-0.085 -0.284-0.087 -0.285-0.089 -0.284-0.09 -0.284-0.092 -0.284-0.094 -0.285-0.096 -0.283-0.097 -0.283-0.098 -0.283-0.101 -0.283-0.102 -0.283-0.103 -0.283-0.106 -0.283-0.107 -0.282-0.109 -0.282-0.11 -0.282-0.111 -0.282-0.114 -0.282-0.115 -0.281-0.116 -0.282-0.119 -0.281-0.119 -0.28-0.121 -0.282-0.124 -0.28-0.124 -0.28-0.126 -0.28-0.127 -0.28-0.13 -0.278-0.13 -0.28-0.132 -0.279-0.134 -0.279-0.135 -0.277-0.136 -0.279-0.139 -0.278-0.139 -0.278-0.142 -0.277-0.142 -0.276-0.144 -0.278-0.146 -0.276-0.147 -0.276-0.148 -0.275-0.15 -0.276-0.152 -0.275-0.153 -0.275-0.154 -0.274-0.156 -0.275-0.158 -0.273-0.159 -0.273-0.159 -0.273-0.162 -0.273-0.163 -0.272-0.164 -0.273-0.167 -0.271-0.167 -0.271-0.169 -0.27-0.17 -0.27-0.171 -0.271-0.173 -0.269-0.175 -0.268-0.175 -0.269-0.177 -0.269-0.179 -0.267-0.18 -0.267-0.181 -0.267-0.182 -0.266-0.184 -0.266-0.186 -0.265-0.187 -0.265-0.188 -0.265-0.189 -0.263-0.191 -0.263-0.192 -0.262-0.193 -0.263-0.196 -0.262-0.196 -0.261-0.197 -0.261-0.2 -0.259-0.199 -0.26-0.202 -0.258-0.203 -0.258-0.204 -0.258-0.206 -0.256-0.206 -0.257-0.209 -0.256-0.209 -0.255-0.211 -0.255-0.212 -0.253-0.213 -0.253-0.215 -0.253-0.216 -0.252-0.218 -0.25-0.217 -0.251-0.221 -0.25-0.221 -0.248-0.222 -0.249-0.224 -0.248-0.225 -0.246-0.226 -0.246-0.228 -0.246-0.229 -0.244-0.229 -0.244-0.232 -0.244-0.233 -0.241-0.233 -0.242-0.235 -0.24-0.237 -0.24-0.237 -0.239-0.24 -0.238-0.239 -0.237-0.242 -0.236-0.242 -0.236-0.244 -0.235-0.245 -0.234-0.247 -0.232-0.247 -0.232-0.249 -0.231-0.25 -0.231-0.251 -0.229-0.253 -0.228-0.253 -0.227-0.255 -0.227-0.257 -0.225-0.257 -0.224-0.258 -0.223-0.259 -0.223-0.261 -0.221-0.263 -0.221-0.263 -0.219-0.265 -0.218-0.265 -0.218-0.268 -0.216-0.267 -0.215-0.27 -0.214-0.27 -0.213-0.272 -0.211-0.273 -0.211-0.274 -0.21-0.275 -0.208-0.276 -0.208-0.278 -0.205-0.279 -0.205-0.279 -0.204-0.282 -0.203-0.282 -0.201-0.283 -0.2-0.285 -0.199-0.286 -0.198-0.287 -0.196-0.288 -0.195-0.289 -0.194-0.29 -0.192-0.291 -0.192-0.293 -0.19-0.294 -0.188-0.294 -0.188-0.297 -0.186-0.297 -0.184-0.298 -0.183-0.299 -0.183-0.301 -0.18-0.301 -0.125-0.212 -0.007 0.011 -0.185 0.303 -0.186 0.302 -0.187 0.3 -0.189 0.301 -0.191 0.298 -0.192 0.298 -0.193 0.296 -0.194 0.294 -0.195 0.294 -0.198 0.293 -0.199 0.292 -0.199 0.29 -0.201 0.288 -0.202 0.288 -0.204 0.287 -0.205 0.286 -0.205 0.283 -0.207 0.283 -0.209 0.283 -0.21 0.281 -0.211 0.279 -0.211 0.278 -0.213 0.277 -0.215 0.276 -0.215 0.275 -0.216 0.273 -0.218 0.273 -0.219 0.27 -0.219 0.27 -0.222 0.269 -0.221 0.267 -0.223 0.266 -0.224 0.265 -0.225 0.264 -0.226 0.262 -0.227 0.262 -0.228 0.26 -0.228 0.258 -0.23 0.258 -0.231 0.256 -0.232 0.255 -0.232 0.254 -0.235 0.253 -0.233 0.251 -0.236 0.25 -0.236 0.25 -0.237 0.247 -0.238 0.246 -0.238 0.245 -0.241 0.244 -0.24 0.243 -0.241 0.241 -0.242 0.24 -0.243 0.239 -0.244 0.238 -0.244 0.236 -0.245 0.235 -0.246 0.234 -0.247 0.233 -0.247 0.231 -0.248 0.23 -0.249 0.229 -0.249 0.227 -0.251 0.227 -0.251 0.224 -0.25 0.223 -0.253 0.223 -0.253 0.221 -0.253 0.219 -0.254 0.219 -0.255 0.218 -0.256 0.216 -0.255 0.214 -0.256 0.213 -0.257 0.212 -0.258 0.211 -0.258 0.209 -0.259 0.208 -0.259 0.207 -0.259 0.205 -0.26 0.204 -0.262 0.203 -0.261 0.202 -0.262 0.2 -0.261 0.198 -0.264 0.198 -0.263 0.196 -0.263 0.194 -0.264 0.194 -0.265 0.192 -0.265 0.191 -0.265 0.189 -0.265 0.188 -0.266 0.187 -0.267 0.185 -0.268 0.185 -0.267 0.182 -0.266 0.181 -0.268 0.18 -0.269 0.179 -0.268 0.177 -0.269 0.176 -0.27 0.174 -0.269 0.173 -0.269 0.171 -0.271 0.171 -0.271 0.169 -0.27 0.167 -0.271 0.166 -0.272 0.165 -0.271 0.163 -0.272 0.162 -0.272 0.16 -0.271 0.159 -0.273 0.157 -0.274 0.157 -0.272 0.155 -0.273 0.153 -0.274 0.152 -0.273 0.15 -0.273 0.149 -0.274 0.147 -0.275 0.147 -0.274 0.144 -0.275 0.144 -0.273 0.14 -0.275 0.141 -0.275 0.139 -0.274 0.137 -0.276 0.136 -0.275 0.134 -0.276 0.133 -0.274 0.131 -0.276 0.13 -0.276 0.129 -0.275 0.126 -0.277 0.126 -0.276 0.124 -0.275 0.122 -0.276 0.121 -0.276 0.119 -0.276 0.117 -0.276 0.116 -0.276 0.115 -0.277 0.113 -0.277 0.112 -0.275 0.109 -0.278 0.109 -0.275 0.106 -0.276 0.105 -0.278 0.104 -0.277 0.102 -0.275 0.1 -0.277 0.099 -0.277 0.097 -0.276 0.096 -0.277 0.093 -0.276 0.092 -0.277 0.091 -0.278 0.089 -0.277 0.087 -0.275 0.086 -0.277 0.084 -0.278 0.082 -0.276 0.08 -0.275 0.079 -0.278 0.077 -0.277 0.075 -0.277 0.074 -0.277 0.072 -0.276 0.069 -0.277 0.069 -0.277 0.066 -0.277 0.065 -0.276 0.062 -0.276 0.061 -0.279 0.06 -0.276 0.057 -0.276 0.055 -0.277 0.054 -0.277 0.051 -0.277 0.05 -0.277 0.048 -0.277 0.046 -0.278 0.044 -0.276 0.042 -0.276 0.039 -0.279 0.038 -0.277 0.036 -0.275 0.034 -0.278 0.032 -0.278 0.029 -0.277 0.028 -0.277 0.025 -0.278 0.023 -0.277 0.021 -0.278 0.019 -0.277 0.016 -0.278 0.015 -0.278 0.012 -0.277 0.009 -0.278 0.008 -0.278 0.004 -0.278 0.003 -0.192 0 -0.21 0.002 -0.293 0 -0.294-0.001 -0.294-0.005 -0.294-0.006 -0.293-0.009 -0.293-0.011 -0.295-0.014 -0.294-0.015 -0.292-0.018 -0.294-0.02 -0.293-0.022 -0.294-0.025 -0.294-0.026 -0.293-0.029 -0.291-0.031 -0.294-0.033 -0.293-0.035 -0.292-0.037 -0.293-0.039 -0.293-0.041 -0.292-0.043 -0.291-0.045 -0.294-0.048 -0.292-0.049 -0.29-0.051 -0.293-0.053 -0.292-0.055 -0.291-0.057 -0.291-0.059 -0.291-0.061 -0.29-0.062 -0.291-0.065 -0.291-0.067 -0.29-0.068 -0.29-0.07 -0.291-0.072 -0.29-0.074 -0.289-0.076 -0.29-0.077 -0.289-0.079 -0.288-0.081 -0.29-0.083 -0.289-0.085 -0.288-0.086 -0.289-0.089 -0.287-0.089 -0.289-0.092 -0.288-0.094 -0.286-0.094 -0.287-0.097 -0.288-0.099 -0.286-0.1 -0.288-0.102 -0.285-0.103 -0.286-0.105 -0.286-0.107 -0.286-0.109 -0.285-0.11 -0.285-0.111 -0.284-0.114 -0.285-0.115 -0.284-0.116 -0.283-0.118 -0.286-0.121 -0.282-0.121 -0.283-0.123 -0.283-0.125 -0.281-0.125 -0.283-0.128 -0.282-0.13 -0.282-0.131 -0.281-0.132 -0.28-0.134 -0.281-0.136 -0.28-0.137 -0.281-0.138 -0.279-0.141 -0.279-0.141 -0.278-0.143 -0.279-0.145 -0.279-0.146 -0.277-0.148 -0.277-0.149 -0.277-0.15 -0.277-0.153 -0.277-0.154 -0.275-0.154 -0.274-0.156 -0.276-0.159 -0.274-0.159 -0.275-0.161 -0.274-0.163 -0.272-0.163 -0.273-0.166 -0.273-0.166 -0.272-0.168 -0.271-0.17 -0.271-0.171 -0.271-0.172 -0.27-0.175 -0.269-0.174 -0.269-0.177 -0.269-0.178 -0.268-0.179 -0.268-0.182 -0.267-0.182 -0.266-0.183 -0.266-0.185 -0.265-0.186 -0.266-0.188 -0.264-0.189 -0.263-0.191 -0.263-0.191 -0.263-0.194 -0.262-0.194 -0.262-0.196 -0.261-0.198 -0.26-0.198 -0.26-0.2 -0.259-0.201 -0.258-0.203 -0.258-0.204 -0.256-0.205 -0.257-0.206 -0.257-0.209 -0.255-0.209 -0.254-0.211 -0.254-0.211 -0.253-0.213 -0.253-0.215 -0.251-0.216 -0.251-0.217 -0.251-0.218 -0.249-0.22 -0.249-0.221 -0.248-0.222 -0.248-0.224 -0.247-0.225 -0.246-0.226 -0.244-0.227 -0.244-0.228 -0.245-0.231 -0.241-0.23 -0.243-0.233 -0.242-0.234 -0.239-0.234 -0.24-0.237 -0.239-0.238 -0.237-0.238 -0.236-0.239 -0.237-0.242 -0.236-0.243 -0.234-0.243 -0.233-0.245 -0.232-0.245 -0.232-0.248 -0.231-0.249 -0.23-0.25 -0.228-0.25 -0.228-0.253 -0.227-0.253 -0.226-0.255 -0.225-0.255 -0.224-0.257 -0.223-0.258 -0.222-0.26 -0.221-0.261 -0.22-0.261 -0.219-0.263 -0.218-0.264 -0.217-0.266 -0.216-0.267 -0.214-0.267 -0.214-0.269 -0.212-0.27 -0.212-0.272 -0.21-0.272 -0.209-0.273 -0.208-0.275 -0.208-0.276 -0.205-0.277 -0.205-0.278 -0.204-0.28 -0.202-0.28 -0.201-0.281 -0.2-0.284 -0.199-0.284 -0.197-0.284 -0.197-0.287 -0.194-0.287 -0.194-0.288 -0.193-0.29 -0.191-0.291 -0.19-0.291 -0.189-0.294 -0.188-0.294 -0.186-0.295 -0.185-0.296 -0.183-0.298 -0.182-0.298 -0.181-0.299 -0.179-0.301 -0.178-0.302 -0.032-0.055 -0.073 0.123 -0.183 0.301 -0.184 0.3 -0.185 0.299 -0.188 0.299 -0.188 0.297 -0.189 0.295 -0.191 0.295 -0.192 0.293 -0.194 0.292 -0.195 0.292 -0.195 0.289 -0.198 0.289 -0.199 0.288 -0.2 0.286 -0.201 0.285 -0.202 0.283 -0.203 0.283 -0.206 0.283 -0.206 0.28 -0.206 0.279 -0.209 0.278 -0.21 0.277 -0.211 0.276 -0.211 0.274 -0.213 0.273 -0.214 0.273 -0.215 0.271 -0.216 0.269 -0.217 0.269 -0.219 0.268 -0.219 0.266 -0.22 0.264 -0.222 0.264 -0.222 0.262 -0.224 0.262 -0.224 0.26 -0.226 0.259 -0.226 0.257 -0.228 0.257 -0.228 0.255 -0.23 0.254 -0.23 0.253 -0.231 0.251 -0.232 0.25 -0.233 0.249 -0.234 0.248 -0.234 0.246 -0.236 0.246 -0.237 0.244 -0.237 0.243 -0.238 0.241 -0.24 0.241 -0.239 0.239 -0.241 0.237 -0.242 0.237 -0.242 0.236 -0.242 0.233 -0.244 0.233 -0.246 0.232 -0.244 0.23 -0.246 0.229 -0.248 0.228 -0.247 0.227 -0.248 0.225 -0.249 0.224 -0.25 0.222 -0.25 0.222 -0.252 0.22 -0.251 0.218 -0.252 0.218 -0.254 0.216 -0.253 0.215 -0.254 0.214 -0.255 0.212 -0.256 0.211 -0.256 0.21 -0.256 0.208 -0.258 0.208 -0.258 0.205 -0.258 0.204 -0.26 0.204 -0.259 0.202 -0.26 0.2 -0.261 0.199 -0.261 0.198 -0.262 0.197 -0.262 0.195 -0.262 0.194 -0.264 0.192 -0.263 0.192 -0.265 0.19 -0.263 0.187 -0.266 0.188 -0.266 0.186 -0.265 0.184 -0.267 0.183 -0.267 0.182 -0.268 0.181 -0.267 0.179 -0.268 0.177 -0.268 0.176 -0.269 0.175 -0.269 0.174 -0.27 0.172 -0.271 0.171 -0.269 0.169 -0.271 0.167 -0.272 0.168 -0.271 0.164 -0.271 0.164 -0.273 0.163 -0.272 0.16 -0.273 0.16 -0.272 0.158 -0.273 0.156 -0.274 0.156 -0.274 0.153 -0.274 0.153 -0.275 0.151 -0.274 0.149 -0.275 0.148 -0.275 0.146 -0.275 0.146 -0.276 0.144 -0.276 0.142 -0.276 0.141 -0.276 0.138 -0.277 0.138 -0.277 0.137 -0.276 0.134 -0.277 0.133 -0.279 0.133 -0.277 0.13 -0.277 0.129 -0.278 0.127 -0.277 0.125 -0.28 0.125 -0.278 0.123 -0.278 0.121 -0.279 0.119 -0.278 0.119 -0.28 0.116 -0.279 0.115 -0.279 0.114 -0.28 0.112 -0.279 0.11 -0.279 0.108 -0.28 0.108 -0.281 0.106 -0.278 0.103 -0.28 0.102 -0.282 0.102 -0.28 0.099 -0.28 0.097 -0.279 0.096 -0.282 0.094 -0.28 0.093 -0.28 0.091 -0.282 0.089 -0.28 0.087 -0.281 0.086 -0.281 0.085 -0.281 0.082 -0.282 0.081 -0.281 0.079 -0.281 0.078 -0.281 0.075 -0.281 0.074 -0.282 0.072 -0.282 0.071 -0.282 0.069 -0.281 0.066 -0.281 0.065 -0.282 0.063 -0.282 0.062 -0.282 0.06 -0.282 0.057 -0.281 0.056 -0.282 0.054 -0.284 0.052 -0.281 0.051 -0.282 0.048 -0.282 0.046 -0.282 0.045 -0.283 0.042 -0.282 0.041 -0.282 0.038 -0.281 0.037 -0.284 0.034 -0.282 0.033 -0.283 0.03 -0.283 0.029 -0.282 0.026 -0.282 0.024 -0.284 0.022 -0.282 0.02 -0.281 0.018 -0.285 0.015 -0.283 0.014 -0.281 0.011 -0.284 0.008 -0.282 0.007 -0.282 0.004 -0.267 0.002 -0.264 0 -0.283-0.001 -0.283-0.004 -0.285-0.007 -0.284-0.009 -0.282-0.011 -0.284-0.013 -0.284-0.016 -0.283-0.018 -0.283-0.02 -0.284-0.022 -0.283-0.025 -0.282-0.026 -0.284-0.029 -0.282-0.031 -0.284-0.033 -0.284-0.035 -0.282-0.037 -0.283-0.039 -0.282-0.041 -0.284-0.043 -0.282-0.045 -0.283-0.047 -0.282-0.049 -0.282-0.051 -0.284-0.053 -0.282-0.055 -0.281-0.056 -0.283-0.059 -0.283-0.061 -0.282-0.062 -0.281-0.064 -0.282-0.066 -0.283-0.068 -0.282-0.069 -0.281-0.071 -0.282-0.074 -0.282-0.074 -0.281-0.077 -0.282-0.078 -0.281-0.081 -0.282-0.082 -0.281-0.083 -0.282-0.086 -0.28-0.086 -0.281-0.089 -0.281-0.091 -0.281-0.092 -0.281-0.094 -0.28-0.095 -0.28-0.097 -0.282-0.099 -0.281-0.1 -0.279-0.102 -0.281-0.104 -0.28-0.105 -0.279-0.106 -0.281-0.109 -0.279-0.11 -0.279-0.112 -0.28-0.113 -0.279-0.115 -0.28-0.116 -0.279-0.118 -0.279-0.119 -0.278-0.121 -0.279-0.123 -0.279-0.124 -0.277-0.126 -0.279-0.127 -0.278-0.129 -0.277-0.13 -0.277-0.132 -0.278-0.133 -0.278-0.135 -0.277-0.136 -0.276-0.138 -0.277-0.139 -0.275-0.141 -0.276-0.142 -0.277-0.144 -0.275-0.145 -0.276-0.147 -0.275-0.148 -0.274-0.149 -0.275-0.151 -0.275-0.153 -0.273-0.154 -0.274-0.155 -0.274-0.157 -0.273-0.158 -0.273-0.16 -0.272-0.161 -0.273-0.162 -0.272-0.165 -0.271-0.165 -0.272-0.166 -0.27-0.169 -0.271-0.169 -0.271-0.172 -0.269-0.171 -0.269-0.174 -0.27-0.176 -0.269-0.176 -0.269-0.178 -0.267-0.179 -0.267-0.181 -0.268-0.182 -0.266-0.183 -0.266-0.185 -0.266-0.186 -0.266-0.188 -0.265-0.189 -0.264-0.19 -0.264-0.192 -0.264-0.193 -0.263-0.194 -0.262-0.195 -0.262-0.197 -0.262-0.199 -0.261-0.2 -0.26-0.2 -0.26-0.203 -0.259-0.203 -0.259-0.205 -0.258-0.207 -0.257-0.207 -0.258-0.209 -0.256-0.21 -0.256-0.211 -0.256-0.213 -0.254-0.215 -0.254-0.215 -0.253-0.216 -0.253-0.219 -0.252-0.219 -0.251-0.22 -0.251-0.222 -0.25-0.223 -0.249-0.225 -0.249-0.226 -0.248-0.226 -0.247-0.229 -0.246-0.229 -0.246-0.231 -0.245-0.232 -0.244-0.233 -0.244-0.235 -0.242-0.236 -0.242-0.237 -0.241-0.238 -0.241-0.24 -0.239-0.241 -0.238-0.242 -0.238-0.243 -0.237-0.245 -0.236-0.245 -0.235-0.248 -0.235-0.248 -0.233-0.25 -0.232-0.25 -0.232-0.252 -0.231-0.254 -0.229-0.254 -0.229-0.256 -0.228-0.257 -0.227-0.258 -0.226-0.26 -0.224-0.26 -0.224-0.262 -0.223-0.263 -0.222-0.264 -0.221-0.266 -0.22-0.266 -0.218-0.268 -0.218-0.269 -0.217-0.27 -0.215-0.272 -0.214-0.272 -0.213-0.274 -0.213-0.275 -0.211-0.276 -0.21-0.278 -0.209-0.279 -0.207-0.279 -0.206-0.281 -0.206-0.283 -0.203-0.282 -0.203-0.285 -0.202-0.286 -0.2-0.287 -0.199-0.287 -0.198-0.29 -0.196-0.29 -0.195-0.292 -0.194-0.292 -0.193-0.294 -0.191-0.295 -0.19-0.296 -0.189-0.297 -0.187-0.299 -0.186-0.3 -0.184-0.3 -0.183-0.302 -0.181-0.303 -0.023 0.038 -0.184 0.303 -0.186 0.301 -0.187 0.301 -0.188 0.299 -0.19 0.298 -0.192 0.298 -0.192 0.295 -0.194 0.295 -0.195 0.293 -0.197 0.293 -0.198 0.291 -0.198 0.289 -0.201 0.289 -0.202 0.287 -0.203 0.287 -0.204 0.285 -0.205 0.284 -0.207 0.282 -0.208 0.282 -0.209 0.281 -0.21 0.279 -0.211 0.277 -0.213 0.277 -0.214 0.276 -0.215 0.274 -0.215 0.273 -0.217 0.272 -0.218 0.271 -0.22 0.269 -0.22 0.268 -0.221 0.267 -0.222 0.266 -0.224 0.265 -0.224 0.263 -0.226 0.262 -0.226 0.261 -0.228 0.26 -0.228 0.258 -0.229 0.257 -0.231 0.257 -0.23 0.254 -0.232 0.253 -0.234 0.253 -0.233 0.251 -0.235 0.249 -0.236 0.25 -0.237 0.246 -0.237 0.246 -0.238 0.245 -0.239 0.244 -0.24 0.242 -0.241 0.241 -0.242 0.24 -0.243 0.239 -0.242 0.237 -0.244 0.235 -0.245 0.235 -0.245 0.234 -0.247 0.232 -0.246 0.231 -0.248 0.23 -0.248 0.228 -0.249 0.227 -0.25 0.226 -0.25 0.224 -0.251 0.224 -0.252 0.222 -0.252 0.22 -0.253 0.22 -0.254 0.218 -0.254 0.217 -0.255 0.215 -0.255 0.215 -0.256 0.213 -0.257 0.212 -0.257 0.21 -0.258 0.209 -0.258 0.208 -0.259 0.206 -0.259 0.205 -0.26 0.204 -0.26 0.202 -0.261 0.202 -0.262 0.2 -0.262 0.198 -0.262 0.197 -0.263 0.196 -0.263 0.195 -0.264 0.193 -0.264 0.192 -0.265 0.19 -0.264 0.189 -0.266 0.188 -0.266 0.187 -0.266 0.185 -0.266 0.183 -0.267 0.183 -0.268 0.181 -0.268 0.18 -0.267 0.178 -0.269 0.177 -0.269 0.176 -0.269 0.174 -0.269 0.173 -0.27 0.171 -0.27 0.17 -0.27 0.169 -0.27 0.167 -0.272 0.167 -0.271 0.164 -0.27 0.163 -0.273 0.162 -0.272 0.16 -0.271 0.158 -0.273 0.158 -0.273 0.156 -0.272 0.155 -0.273 0.153 -0.274 0.152 -0.273 0.15 -0.273 0.149 -0.274 0.148 -0.274 0.146 -0.274 0.144 -0.275 0.144 -0.274 0.141 -0.275 0.141 -0.274 0.138 -0.275 0.138 -0.276 0.136 -0.274 0.133 -0.275 0.133 -0.277 0.132 -0.274 0.13 -0.276 0.128 -0.276 0.127 -0.276 0.126 -0.276 0.124 -0.276 0.122 -0.276 0.121 -0.275 0.119 -0.277 0.118 -0.277 0.116 -0.276 0.115 -0.276 0.113 -0.276 0.112 -0.277 0.11 -0.276 0.108 -0.277 0.107 -0.277 0.106 -0.276 0.104 -0.277 0.102 -0.277 0.101 -0.276 0.098 -0.277 0.098 -0.277 0.096 -0.277 0.094 -0.277 0.093 -0.276 0.09 -0.277 0.09 -0.277 0.087 -0.276 0.086 -0.278 0.085 -0.277 0.082 -0.277 0.081 -0.275 0.079 -0.278 0.078 -0.277 0.076 -0.278 0.074 -0.277 0.072 -0.276 0.071 -0.276 0.068 -0.278 0.068 -0.276 0.065 -0.277 0.063 -0.277 0.062 -0.277 0.06 -0.277 0.058 -0.277 0.056 -0.278 0.055 -0.276 0.052 -0.277 0.051 -0.277 0.048 -0.276 0.047 -0.277 0.045 -0.277 0.043 -0.278 0.041 -0.277 0.039 -0.276 0.037 -0.278 0.035 -0.276 0.032 -0.279 0.031 -0.277 0.029 -0.276 0.026 -0.277 0.025 -0.278 0.022 -0.278 0.021 -0.276 0.018 -0.278 0.015 -0.278 0.014 -0.277 0.011 -0.279 0.009 -0.277 0.007 -0.277 0.004 -0.269 0.002 -0.095 0 -0.22-0.003 -0.281-0.011 -0.277-0.017 -0.27-0.024 -0.28-0.032 -0.274-0.038 -0.275-0.046 -0.275-0.053 -0.263-0.057 -0.263-0.064 -0.27-0.073 -0.262-0.078 -0.256-0.083 -0.257-0.091 -0.248-0.094 -0.249-0.102 -0.254-0.111 -0.239-0.112 -0.241-0.119 -0.238-0.126 -0.229-0.128 -0.23-0.136 -0.223-0.139 -0.22-0.145 -0.217-0.15 -0.217-0.158 -0.21-0.161 -0.201-0.163 -0.2-0.169 -0.202-0.179 -0.189-0.176 -0.185-0.181 -0.185-0.189 -0.18-0.193 -0.175-0.198 -0.169-0.2 -0.164-0.204 -0.162-0.21 -0.155-0.212 -0.149-0.216 -0.146-0.222 -0.14-0.224 -0.136-0.23 -0.13-0.232 -0.124-0.235 -0.119-0.241 -0.113-0.242 -0.109-0.248 -0.102-0.25 -0.096-0.251 -0.09-0.258 -0.083-0.255 -0.078-0.262 -0.073-0.268 -0.064-0.264 -0.059-0.269 -0.051-0.27 -0.045-0.27 -0.039-0.277 -0.032-0.277 -0.024-0.278 -0.018-0.276 -0.01-0.278 -0.003-0.22 0-251.07 0.001-0.536 0.002-0.544 0.005-0.543 0.006-0.543 0.008-0.543 0.009-0.542 0.011-0.542 0.013-0.541 0.015-0.541 0.016-0.541 0.018-0.54 0.02-0.539 0.021-0.54 0.023-0.539 0.025-0.539 0.026-0.537 0.028-0.538 0.03-0.538 0.032-0.536 0.033-0.537 0.035-0.536 0.036-0.535 0.039-0.535 0.039-0.535 0.042-0.534 0.043-0.534 0.045-0.533 0.047-0.533 0.048-0.532 0.05-0.532 0.051-0.531 0.053-0.531 0.055-0.531 0.057-0.53 0.058-0.529 0.059-0.529 0.062-0.529 0.063-0.528 0.064-0.527 0.066-0.527 0.068-0.527 0.07-0.526 0.071-0.526 0.073-0.525 0.074-0.525 0.076-0.524 0.078-0.523 0.079-0.523 0.081-0.523 0.082-0.522 0.084-0.521 0.085-0.521 0.088-0.521 0.088-0.52 0.091-0.519 0.092-0.519 0.093-0.518 0.095-0.518 0.097-0.517 0.098-0.517 0.1-0.516 0.102-0.515 0.103-0.515 0.104-0.515 0.106-0.513 0.108-0.514 0.109-0.513 0.111-0.512 0.112-0.511 0.114-0.511 0.116-0.511 0.117-0.51 0.118-0.509 0.12-0.509 0.122-0.508 0.123-0.507 0.124-0.507 0.127-0.507 0.127-0.505 0.13-0.505 0.13-0.505 0.133-0.504 0.133-0.503 0.136-0.503 0.137-0.502 0.138-0.501 0.14-0.501 0.141-0.5 0.143-0.5 0.144-0.498 0.146-0.499 0.148-0.498 0.148-0.497 0.151-0.496 0.152-0.496 0.153-0.495 0.155-0.494 0.156-0.494 0.158-0.493 0.159-0.493 0.16-0.491 0.163-0.492 0.163-0.49 0.165-0.49 0.167-0.489 0.168-0.488 0.169-0.488 0.171-0.487 0.172-0.487 0.174-0.485 0.175-0.485 0.177-0.485 0.178-0.484 0.179-0.482 0.181-0.483 0.183-0.481 0.184-0.481 0.185-0.48 0.186-0.48 0.189-0.478 0.189-0.478 0.191-0.478 0.192-0.476 0.194-0.476 0.195-0.475 0.197-0.475 0.197-0.473 0.2-0.473 0.201-0.473 0.202-0.471 0.203-0.47 0.205-0.471 0.206-0.469 0.208-0.468 0.209-0.468 0.21-0.467 0.212-0.466 0.213-0.466 0.215-0.465 0.216-0.463 0.217-0.463 0.219-0.463 0.22-0.462 0.221-0.46 0.223-0.46 0.224-0.46 0.225-0.458 0.227-0.458 0.228-0.457 0.229-0.456 0.231-0.456 0.232-0.454 0.234-0.454 0.234-0.453 0.236-0.452 0.238-0.451 0.239-0.451 0.24-0.45 0.241-0.449 0.243-0.447 0.244-0.448 0.245-0.446 0.246-0.446 0.248-0.445 0.25-0.444 0.25-0.443 0.252-0.442 0.253-0.442 0.254-0.44 0.256-0.44 0.257-0.439 0.258-0.438 0.26-0.437 0.261-0.437 0.262-0.435 0.263-0.435 0.265-0.434 0.265-0.433 0.268-0.432 0.268-0.431 0.27-0.43 0.271-0.43 0.272-0.429 0.273-0.427 0.275-0.427 0.276-0.426 0.277-0.425 0.278-0.424 0.28-0.424 0.281-0.422 0.282-0.422 0.283-0.42 0.285-0.42 0.286-0.419 0.287-0.418 0.288-0.417 0.289-0.416 0.291-0.415 0.292-0.414 0.293-0.413 0.294-0.413 0.296-0.411 0.297-0.411 0.298-0.41 0.299-0.408 0.3-0.408 0.301-0.407 0.303-0.406 0.304-0.405 0.305-0.403 0.306-0.404 0.307-0.402 0.309-0.401 0.31-0.4 0.311-0.399 0.312-0.399 0.313-0.397 0.315-0.396 0.315-0.396 0.317-0.394 0.318-0.394 0.319-0.392 0.32-0.391 0.321-0.391 0.323-0.389 0.324-0.389 0.324-0.388 0.326-0.386 0.327-0.386 0.329-0.384 0.329-0.384 0.33-0.382 0.332-0.382 0.333-0.381 0.333-0.379 0.335-0.379 0.336-0.377 0.338-0.377 0.338-0.375 0.339-0.375 0.341-0.373 0.341-0.373 0.343-0.371 0.344-0.37 0.345-0.37 0.346-0.368 0.347-0.367 0.348-0.367 0.349-0.365 0.35-0.364 0.352-0.363 0.352-0.362 0.354-0.361 0.354-0.36 0.356-0.359 0.357-0.357 0.357-0.357 0.359-0.356 0.36-0.355 0.361-0.353 0.362-0.352 0.363-0.352 0.365-0.35 0.365-0.349 0.366-0.349 0.367-0.347 0.369-0.346 0.369-0.345 0.37-0.343 0.372-0.343 0.372-0.342 0.374-0.34 0.374-0.339 0.375-0.339 0.377-0.337 0.378-0.336 0.378-0.335 0.38-0.334 0.38-0.332 0.382-0.332 0.382-0.33 0.384-0.33 0.384-0.328 0.386-0.327 0.387-0.326 0.387-0.325 0.389-0.323 0.389-0.323 0.391-0.321 0.391-0.32 0.393-0.319 0.393-0.318 0.395-0.317 0.395-0.316 0.396-0.314 0.398-0.313 0.398-0.312 0.399-0.311 0.4-0.31 0.402-0.309 0.402-0.307 0.403-0.306 0.404-0.305 0.405-0.304 0.406-0.303 0.406-0.301 0.408-0.301 0.409-0.299 0.41-0.298 0.41-0.296 0.411-0.296 0.413-0.294 0.413-0.293 0.415-0.292 0.415-0.291 0.416-0.289 0.417-0.289 0.418-0.287 0.418-0.285 0.42-0.285 0.421-0.283 0.421-0.282 0.423-0.281 0.423-0.28 0.424-0.278 0.425-0.277 0.426-0.276 0.427-0.275 0.428-0.273 0.428-0.273 0.43-0.271 0.43-0.269 0.431-0.269 0.433-0.267 0.432-0.266 0.434-0.264 0.435-0.264 0.436-0.262 0.436-0.26 0.437-0.26 0.438-0.258 0.439-0.257 0.44-0.256 0.441-0.254 0.441-0.253 0.442-0.252 0.444-0.251 0.443-0.249 0.445-0.248 0.446-0.246 0.446-0.246 0.448-0.244 0.448-0.242 0.449-0.242 0.45-0.24 0.45-0.238 0.451-0.238 0.452-0.236 0.453-0.235 0.454-0.233 0.455-0.232 0.455-0.231 0.456-0.229 0.457-0.228 0.458-0.227 0.458-0.225 0.46-0.225 0.46-0.222 0.461-0.221 0.461-0.22 0.463-0.219 0.463-0.217 0.464-0.216 0.464-0.215 0.466-0.213 0.466-0.212 0.467-0.21 0.468-0.209 0.468-0.208 0.469-0.206 0.471-0.205 0.47-0.204 0.472-0.202 0.472-0.2 0.473-0.2 0.473-0.198 0.475-0.196 0.475-0.195 0.476-0.194 0.476-0.192 0.478-0.191 0.478-0.19 0.479-0.188 0.479-0.186 0.48-0.186 0.481-0.183 0.482-0.183 0.482-0.181 0.483-0.179 0.483-0.178 0.485-0.177 0.485-0.175 0.486-0.174 0.486-0.172 0.487-0.171 0.488-0.17 0.488-0.168 0.489-0.166 0.49-0.165 0.491-0.164 0.491-0.162 0.492-0.16 0.492-0.16 0.493-0.157 0.494-0.157 0.495-0.154 0.495-0.154 0.495-0.151 0.496-0.151 0.498-0.149 0.497-0.147 0.499-0.146 0.498-0.144 0.5-0.143 0.5-0.141 0.501-0.14 0.501-0.138 0.502-0.137 0.503-0.136 0.503-0.133 0.504-0.133 0.505-0.13 0.505-0.13 0.506-0.127 0.506-0.127 0.507-0.124 0.507-0.123 0.508-0.122 0.509-0.12 0.509-0.119 0.51-0.117 0.511-0.115 0.511-0.114 0.511-0.112 0.512-0.111 0.513-0.109 0.514-0.108 0.513-0.106 0.515-0.105 0.515-0.103 0.515-0.101 0.516-0.1 0.517-0.098 0.517-0.097 0.518-0.095 0.518-0.093 0.519-0.092 0.52-0.091 0.519-0.088 0.521-0.088 0.521-0.085 0.521-0.084 0.522-0.083 0.523-0.08 0.523-0.079 0.523-0.078 0.525-0.076 0.524-0.074 0.525-0.073 0.526-0.071 0.526-0.07 0.527-0.068 0.527-0.066 0.527-0.064 0.528-0.063 0.529-0.062 0.529-0.059 0.529-0.059 0.53-0.056 0.531-0.055 0.531-0.053 0.531-0.051 0.532-0.05 0.532-0.048 0.533-0.047 0.533-0.045 0.534-0.043 0.534-0.042 0.535-0.039 0.535-0.039 0.536-0.036 0.535-0.035 0.537-0.033 0.537-0.032 0.537-0.03 0.537-0.028 0.539-0.026 0.538-0.025 0.539-0.023 0.539-0.021 0.54-0.02 0.54-0.018 0.541-0.016 0.541-0.015 0.541-0.013 0.542-0.011 0.542-0.009 0.543-0.008 0.543-0.006 0.543-0.005 0.544-0.002 0.544-0.001 0.544 0.001Zm-1.058 9.5l-0.514 0.002 -0.513 0.004 -0.513 0.006 -0.512 0.007 -0.512 0.009 -0.512 0.011 -0.511 0.012 -0.511 0.014 -0.511 0.015 -0.51 0.017 -0.509 0.019 -0.51 0.02 -0.508 0.022 -0.509 0.023 -0.508 0.025 -0.508 0.027 -0.507 0.028 -0.507 0.03 -0.506 0.031 -0.506 0.033 -0.505 0.034 -0.505 0.036 -0.505 0.038 -0.504 0.039 -0.504 0.041 -0.503 0.042 -0.503 0.044 -0.503 0.046 -0.502 0.047 -0.501 0.048 -0.501 0.051 -0.501 0.051 -0.5 0.054 -0.5 0.054 -0.499 0.057 -0.499 0.058 -0.498 0.059 -0.498 0.061 -0.497 0.062 -0.497 0.064 -0.496 0.066 -0.496 0.067 -0.496 0.069 -0.495 0.07 -0.494 0.072 -0.494 0.073 -0.494 0.074 -0.492 0.077 -0.493 0.077 -0.492 0.08 -0.491 0.08 -0.491 0.083 -0.491 0.083 -0.49 0.086 -0.489 0.086 -0.489 0.089 -0.489 0.089 -0.488 0.091 -0.487 0.093 -0.487 0.094 -0.486 0.096 -0.486 0.097 -0.485 0.099 -0.485 0.1 -0.484 0.101 -0.484 0.103 -0.483 0.105 -0.482 0.106 -0.482 0.107 -0.482 0.109 -0.481 0.11 -0.48 0.112 -0.48 0.114 -0.479 0.114 -0.479 0.116 -0.478 0.118 -0.477 0.119 -0.477 0.12 -0.477 0.122 -0.476 0.124 -0.475 0.124 -0.475 0.127 -0.474 0.127 -0.473 0.129 -0.473 0.131 -0.473 0.132 -0.471 0.133 -0.471 0.135 -0.471 0.136 -0.47 0.137 -0.469 0.139 -0.469 0.141 -0.468 0.142 -0.468 0.143 -0.467 0.144 -0.466 0.146 -0.466 0.148 -0.465 0.148 -0.464 0.151 -0.464 0.151 -0.464 0.153 -0.462 0.154 -0.462 0.156 -0.461 0.157 -0.461 0.158 -0.46 0.16 -0.46 0.161 -0.458 0.163 -0.459 0.164 -0.457 0.165 -0.457 0.167 -0.456 0.168 -0.456 0.169 -0.454 0.171 -0.455 0.172 -0.453 0.173 -0.453 0.175 -0.452 0.176 -0.452 0.177 -0.451 0.179 -0.45 0.18 -0.45 0.181 -0.448 0.183 -0.449 0.184 -0.447 0.186 -0.447 0.186 -0.446 0.188 -0.445 0.19 -0.445 0.19 -0.444 0.192 -0.444 0.193 -0.442 0.195 -0.442 0.196 -0.441 0.197 -0.441 0.199 -0.44 0.199 -0.439 0.202 -0.438 0.202 -0.438 0.204 -0.437 0.205 -0.436 0.206 -0.436 0.207 -0.434 0.209 -0.434 0.21 -0.434 0.212 -0.432 0.212 -0.432 0.214 -0.431 0.215 -0.431 0.217 -0.429 0.217 -0.429 0.219 -0.428 0.221 -0.427 0.221 -0.427 0.223 -0.426 0.224 -0.425 0.225 -0.424 0.227 -0.424 0.227 -0.423 0.229 -0.422 0.23 -0.421 0.232 -0.42 0.233 -0.42 0.233 -0.419 0.236 -0.418 0.236 -0.418 0.238 -0.416 0.238 -0.416 0.24 -0.415 0.242 -0.414 0.242 -0.413 0.244 -0.413 0.245 -0.412 0.246 -0.411 0.247 -0.41 0.249 -0.409 0.249 -0.409 0.251 -0.408 0.252 -0.407 0.254 -0.406 0.254 -0.405 0.256 -0.405 0.257 -0.403 0.258 -0.403 0.259 -0.402 0.26 -0.401 0.262 -0.401 0.262 -0.399 0.264 -0.399 0.265 -0.397 0.267 -0.397 0.267 -0.397 0.269 -0.395 0.269 -0.394 0.271 -0.394 0.272 -0.392 0.274 -0.392 0.274 -0.391 0.275 -0.39 0.277 -0.39 0.278 -0.388 0.279 -0.387 0.28 -0.387 0.281 -0.386 0.282 -0.385 0.284 -0.384 0.284 -0.383 0.286 -0.382 0.287 -0.381 0.288 -0.381 0.289 -0.379 0.29 -0.379 0.291 -0.378 0.292 -0.377 0.294 -0.376 0.295 -0.375 0.295 -0.374 0.297 -0.373 0.298 -0.372 0.299 -0.372 0.3 -0.37 0.301 -0.37 0.302 -0.368 0.304 -0.368 0.304 -0.367 0.306 -0.365 0.306 -0.365 0.308 -0.364 0.309 -0.363 0.309 -0.362 0.311 -0.362 0.312 -0.36 0.313 -0.359 0.314 -0.358 0.315 -0.358 0.317 -0.356 0.317 -0.356 0.318 -0.354 0.319 -0.354 0.321 -0.352 0.321 -0.352 0.323 -0.35 0.323 -0.35 0.325 -0.349 0.325 -0.347 0.327 -0.347 0.327 -0.346 0.329 -0.344 0.33 -0.344 0.33 -0.343 0.332 -0.342 0.333 -0.34 0.334 -0.34 0.334 -0.339 0.336 -0.338 0.337 -0.337 0.338 -0.335 0.339 -0.335 0.339 -0.334 0.341 -0.333 0.342 -0.331 0.343 -0.331 0.343 -0.33 0.345 -0.328 0.346 -0.328 0.347 -0.326 0.347 -0.326 0.349 -0.325 0.349 -0.323 0.351 -0.323 0.352 -0.321 0.352 -0.32 0.354 -0.32 0.354 -0.318 0.356 -0.317 0.356 -0.316 0.357 -0.315 0.359 -0.314 0.359 -0.313 0.36 -0.312 0.361 -0.311 0.362 -0.31 0.363 -0.309 0.364 -0.307 0.365 -0.307 0.366 -0.306 0.367 -0.304 0.368 -0.303 0.368 -0.303 0.37 -0.301 0.37 -0.3 0.372 -0.299 0.372 -0.298 0.373 -0.297 0.374 -0.295 0.375 -0.295 0.376 -0.293 0.377 -0.293 0.378 -0.291 0.378 -0.29 0.38 -0.289 0.38 -0.288 0.382 -0.287 0.382 -0.286 0.383 -0.284 0.384 -0.284 0.385 -0.282 0.386 -0.281 0.386 -0.28 0.388 -0.279 0.388 -0.278 0.389 -0.276 0.39 -0.276 0.391 -0.274 0.392 -0.273 0.393 -0.272 0.394 -0.271 0.394 -0.27 0.395 -0.269 0.396 -0.267 0.397 -0.266 0.398 -0.265 0.399 -0.264 0.399 -0.263 0.401 -0.262 0.401 -0.26 0.402 -0.259 0.403 -0.258 0.403 -0.257 0.405 -0.256 0.405 -0.254 0.406 -0.254 0.407 -0.252 0.408 -0.251 0.408 -0.249 0.41 -0.249 0.41 -0.247 0.411 -0.246 0.412 -0.245 0.412 -0.244 0.414 -0.242 0.414 -0.241 0.415 -0.24 0.416 -0.239 0.416 -0.238 0.418 -0.236 0.418 -0.235 0.419 -0.234 0.419 -0.233 0.421 -0.231 0.421 -0.231 0.422 -0.229 0.423 -0.227 0.423 -0.227 0.425 -0.225 0.425 -0.224 0.426 -0.223 0.426 -0.221 0.428 -0.22 0.428 -0.219 0.429 -0.218 0.429 -0.217 0.431 -0.215 0.431 -0.214 0.432 -0.212 0.432 -0.212 0.433 -0.21 0.434 -0.209 0.435 -0.207 0.436 -0.206 0.436 -0.205 0.437 -0.204 0.438 -0.202 0.438 -0.201 0.439 -0.2 0.44 -0.199 0.44 -0.197 0.442 -0.196 0.442 -0.194 0.442 -0.194 0.444 -0.192 0.444 -0.19 0.444 -0.19 0.446 -0.188 0.446 -0.186 0.447 -0.186 0.447 -0.184 0.448 -0.182 0.449 -0.182 0.45 -0.18 0.45 -0.179 0.451 -0.177 0.451 -0.176 0.453 -0.175 0.453 -0.173 0.453 -0.172 0.454 -0.171 0.455 -0.169 0.456 -0.168 0.456 -0.167 0.457 -0.165 0.457 -0.164 0.458 -0.162 0.459 -0.162 0.46 -0.159 0.46 -0.159 0.46 -0.157 0.462 -0.156 0.462 -0.154 0.462 -0.153 0.464 -0.151 0.463 -0.15 0.465 -0.149 0.465 -0.148 0.466 -0.146 0.466 -0.144 0.467 -0.143 0.467 -0.142 0.469 -0.14 0.468 -0.139 0.47 -0.138 0.47 -0.136 0.47 -0.135 0.471 -0.133 0.472 -0.132 0.473 -0.131 0.473 -0.129 0.473 -0.127 0.474 -0.126 0.475 -0.125 0.475 -0.124 0.476 -0.121 0.476 -0.121 0.477 -0.119 0.478 -0.118 0.478 -0.116 0.479 -0.114 0.479 -0.114 0.48 -0.111 0.48 -0.111 0.481 -0.109 0.482 -0.107 0.482 -0.106 0.482 -0.105 0.483 -0.103 0.484 -0.101 0.484 -0.1 0.485 -0.099 0.485 -0.097 0.486 -0.096 0.486 -0.094 0.487 -0.092 0.487 -0.092 0.488 -0.089 0.489 -0.089 0.489 -0.086 0.489 -0.086 0.49 -0.083 0.49 -0.083 0.491 -0.08 0.492 -0.08 0.492 -0.077 0.492 -0.076 0.493 -0.075 0.494 -0.073 0.494 -0.072 0.494 -0.07 0.495 -0.069 0.496 -0.067 0.496 -0.065 0.496 -0.064 0.497 -0.063 0.497 -0.061 0.498 -0.059 0.498 -0.058 0.499 -0.057 0.499 -0.054 0.5 -0.054 0.5 -0.051 0.501 -0.051 0.501 -0.048 0.501 -0.047 0.502 -0.046 0.503 -0.044 0.503 -0.042 0.503 -0.041 0.504 -0.039 0.504 -0.038 0.505 -0.036 0.505 -0.034 0.505 -0.033 0.506 -0.031 0.506 -0.03 0.507 -0.028 0.507 -0.027 0.508 -0.025 0.508 -0.023 0.509 -0.022 0.508 -0.02 0.51 -0.019 0.509 -0.017 0.51 -0.015 0.511 -0.014 0.511 -0.012 0.511 -0.011 0.512 -0.009 0.512 -0.007 0.512 -0.006 0.513 -0.004 0.513 -0.002 0.514 -0.001 0.514 0 251.002 0 0.039 0.002 0.038 0.002 0.038 0.004 0.038 0.004 0.038 0.005 0.037 0.006 0.037 0.007 0.037 0.008 0.036 0.009 0.036 0.01 0.036 0.01 0.035 0.012 0.035 0.012 0.035 0.013 0.034 0.014 0.034 0.014 0.033 0.016 0.033 0.016 0.033 0.017 0.032 0.017 0.032 0.019 0.031 0.019 0.03 0.02 0.031 0.02 0.029 0.022 0.029 0.021 0.029 0.023 0.028 0.023 0.027 0.024 0.027 0.025 0.027 0.025 0.025 0.025 0.025 0.027 0.025 0.027 0.024 0.027 0.023 0.028 0.022 0.029 0.022 0.029 0.022 0.029 0.02 0.031 0.02 0.03 0.019 0.031 0.019 0.032 0.017 0.032 0.017 0.033 0.016 0.032 0.016 0.034 0.014 0.034 0.014 0.034 0.013 0.035 0.012 0.034 0.012 0.036 0.01 0.036 0.01 0.036 0.009 0.036 0.008 0.037 0.007 0.037 0.006 0.037 0.005 0.038 0.004 0.038 0.004 0.038 0.002 0.038 0.002 0.041 0 0.196-0.001 0.196-0.003 0.198-0.005 0.199-0.007 0.199-0.008 0.2-0.009 0.202-0.012 0.202-0.013 0.203-0.015 0.204-0.016 0.205-0.018 0.206-0.02 0.206-0.022 0.208-0.023 0.208-0.024 0.209-0.027 0.209-0.028 0.211-0.029 0.211-0.031 0.212-0.033 0.213-0.035 0.214-0.036 0.214-0.037 0.215-0.04 0.216-0.041 0.216-0.042 0.218-0.044 0.217-0.046 0.219-0.047 0.219-0.049 0.22-0.05 0.22-0.052 0.221-0.054 0.222-0.055 0.222-0.056 0.223-0.059 0.223-0.059 0.224-0.062 0.224-0.063 0.225-0.064 0.226-0.066 0.226-0.067 0.226-0.069 0.227-0.071 0.228-0.072 0.228-0.073 0.228-0.075 0.229-0.077 0.229-0.078 0.23-0.079 0.23-0.081 0.231-0.083 0.23-0.084 0.232-0.085 0.231-0.087 0.232-0.089 0.233-0.089 0.232-0.092 0.233-0.092 0.234-0.095 0.233-0.095 0.234-0.098 0.234-0.098 0.235-0.1 0.235-0.102 0.234-0.102 0.236-0.105 0.235-0.105 0.236-0.108 0.235-0.108 0.236-0.11 0.237-0.111 0.236-0.113 0.236-0.114 0.237-0.116 0.237-0.117 0.237-0.118 0.237-0.12 0.237-0.121 0.237-0.122 0.237-0.124 0.237-0.125 0.238-0.127 0.237-0.128 0.237-0.129 0.238-0.13 0.237-0.132 0.238-0.134 0.237-0.134 0.237-0.136 0.238-0.137 0.237-0.139 0.237-0.14 0.237-0.141 0.237-0.142 0.237-0.144 0.237-0.145 0.237-0.147 0.236-0.147 0.237-0.149 0.236-0.15 0.236-0.152 0.236-0.153 0.236-0.154 0.235-0.155 0.236-0.157 0.235-0.158 0.235-0.159 0.235-0.16 0.234-0.162 0.234-0.162 0.234-0.164 0.233-0.166 0.234-0.166 0.233-0.168 0.232-0.169 0.233-0.17 0.232-0.172 0.231-0.172 0.231-0.174 0.231-0.175 0.231-0.176 0.23-0.178 0.229-0.178 0.23-0.18 0.228-0.181 0.229-0.182 0.228-0.183 0.227-0.185 0.227-0.186 0.226-0.186 0.226-0.188 0.226-0.189 0.225-0.191 0.224-0.191 0.224-0.192 0.223-0.194 0.223-0.195 0.222-0.196 0.221-0.197 0.221-0.198 0.221-0.199 0.219-0.2 0.219-0.202 0.219-0.202 0.217-0.204 0.217-0.205 0.217-0.206 0.215-0.206 0.215-0.208 0.214-0.209 0.214-0.211 0.213-0.211 0.212-0.212 0.211-0.213 0.21-0.215 0.21-0.215 0.209-0.217 0.208-0.217 0.207-0.219 0.207-0.219 0.205-0.221 0.205-0.221 0.204-0.223 0.203-0.224 0.202-0.224 0.201-0.226 0.2-0.227 0.2-0.227 0.198-0.229 0.198-0.23 0.196-0.23 0.196-0.232 0.194-0.233 0.194-0.233 0.193-0.235 0.191-0.235 0.191-0.237 0.189-0.237 0.189-0.238 0.187-0.24 0.186-0.24 0.186-0.241 0.184-0.242 0.183-0.244 0.182-0.244 0.181-0.245 0.179-0.245 0.179-0.247 0.177-0.248 0.177-0.248 0.175-0.25 0.174-0.25 0.172-0.252 0.172-0.252 0.17-0.253 0.169-0.254 0.167-0.255 0.167-0.255 0.165-0.257 0.164-0.257 0.163-0.259 0.161-0.259 0.16-0.26 0.159-0.261 0.157-0.261 0.156-0.263 0.154-0.263 0.154-0.265 0.152-0.265 0.15-0.266 0.149-0.266 0.148-0.268 0.146-0.268 0.145-0.269 0.143-0.27 0.142-0.271 0.14-0.271 0.139-0.273 0.137-0.273 0.136-0.274 0.135-0.274 0.132-0.276 0.132-0.276 0.129-0.277 0.128-0.278 0.127-0.278 0.125-0.279 0.123-0.28 0.122-0.281 0.12-0.281 0.119-0.283 0.117-0.283 0.115-0.283 0.114-0.285 0.111-0.285 0.111-0.286 0.108-0.286 0.107-0.287 0.105-0.288 0.103-0.289 0.102-0.289 0.1-0.29 0.098-0.291 0.096-0.291 0.094-0.293 0.093-0.292 0.091-0.294 0.089-0.294 0.087-0.295 0.085-0.295 0.084-0.296 0.081-0.297 0.08-0.297 0.078-0.298 0.076-0.299 0.013-0.021 0.038-0.061 0.062-0.095 0.082-0.122 0.049-0.07 0.053-0.076 0.057-0.079 0.061-0.082 0.066-0.086 0.069-0.088 0.072-0.089 0.075-0.09 0.078-0.089 0.081-0.089 0.083-0.088 0.042-0.043 0.043-0.043 0.043-0.041 0.044-0.041 0.044-0.041 0.044-0.039 0.045-0.038 0.045-0.037 0.045-0.035 0.046-0.035 0.046-0.033 0.046-0.031 0.046-0.03 0.046-0.028 0.047-0.027 0.046-0.025 0.047-0.022 0.046-0.021 0.047-0.019 0.046-0.016 0.047-0.014 0.046-0.012 0.046-0.009 0.046-0.007 0.045-0.004 0.046-0.001 0.053 0.001 0.053 0.004 0.053 0.007 0.053 0.009 0.052 0.012 0.052 0.014 0.051 0.016 0.051 0.019 0.051 0.021 0.05 0.022 0.05 0.025 0.05 0.027 0.049 0.028 0.049 0.03 0.048 0.031 0.047 0.033 0.047 0.035 0.047 0.035 0.046 0.037 0.045 0.038 0.045 0.039 0.044 0.041 0.043 0.041 0.043 0.041 0.042 0.043 0.041 0.043 0.041 0.044 0.04 0.044 0.039 0.044 0.039 0.045 0.074 0.089 0.071 0.09 0.068 0.089 0.063 0.088 0.061 0.086 0.056 0.082 0.052 0.079 0.048 0.076 0.043 0.07 0.039 0.064 0.034 0.058 0.054 0.095 0.033 0.061 0.011 0.021 0.076 0.299 0.078 0.298 0.079 0.297 0.082 0.297 0.083 0.296 0.085 0.296 0.087 0.295 0.088 0.294 0.091 0.293 0.092 0.293 0.094 0.292 0.096 0.292 0.097 0.291 0.099 0.29 0.101 0.289 0.102 0.289 0.105 0.288 0.106 0.288 0.107 0.287 0.109 0.286 0.111 0.285 0.113 0.285 0.114 0.284 0.116 0.283 0.117 0.282 0.119 0.282 0.12 0.281 0.122 0.281 0.124 0.279 0.125 0.279 0.127 0.278 0.128 0.277 0.13 0.277 0.131 0.276 0.133 0.275 0.135 0.274 0.135 0.274 0.138 0.272 0.138 0.272 0.14 0.271 0.142 0.271 0.143 0.269 0.144 0.269 0.146 0.268 0.147 0.267 0.149 0.267 0.15 0.265 0.151 0.265 0.153 0.264 0.154 0.263 0.155 0.262 0.157 0.261 0.158 0.261 0.159 0.259 0.161 0.259 0.162 0.258 0.163 0.257 0.164 0.257 0.166 0.255 0.166 0.254 0.168 0.254 0.17 0.253 0.17 0.252 0.172 0.251 0.172 0.25 0.174 0.249 0.176 0.248 0.176 0.247 0.177 0.247 0.179 0.245 0.179 0.245 0.181 0.244 0.182 0.242 0.183 0.242 0.184 0.241 0.185 0.24 0.186 0.239 0.187 0.238 0.189 0.237 0.189 0.236 0.19 0.235 0.191 0.235 0.192 0.233 0.194 0.232 0.194 0.231 0.195 0.23 0.196 0.23 0.197 0.228 0.198 0.227 0.199 0.227 0.199 0.225 0.201 0.224 0.201 0.223 0.203 0.222 0.203 0.222 0.204 0.22 0.205 0.219 0.206 0.218 0.206 0.217 0.208 0.216 0.208 0.215 0.209 0.214 0.209 0.213 0.211 0.211 0.211 0.211 0.212 0.21 0.213 0.208 0.213 0.208 0.214 0.206 0.215 0.205 0.216 0.205 0.216 0.203 0.217 0.202 0.217 0.201 0.219 0.199 0.218 0.199 0.22 0.197 0.22 0.197 0.22 0.195 0.222 0.194 0.222 0.193 0.222 0.192 0.223 0.191 0.223 0.189 0.224 0.189 0.225 0.187 0.225 0.186 0.226 0.185 0.226 0.184 0.227 0.182 0.227 0.182 0.227 0.18 0.228 0.179 0.229 0.178 0.228 0.176 0.23 0.176 0.229 0.174 0.231 0.173 0.23 0.172 0.231 0.17 0.231 0.17 0.232 0.168 0.232 0.167 0.232 0.165 0.233 0.165 0.233 0.163 0.233 0.162 0.233 0.16 0.234 0.16 0.234 0.158 0.235 0.157 0.234 0.155 0.235 0.154 0.235 0.153 0.236 0.152 0.235 0.151 0.236 0.149 0.236 0.148 0.236 0.146 0.236 0.145 0.237 0.144 0.236 0.143 0.237 0.141 0.237 0.14 0.237 0.139 0.237 0.137 0.237 0.136 0.237 0.135 0.237 0.133 0.238 0.132 0.237 0.13 0.237 0.13 0.238 0.127 0.237 0.127 0.238 0.125 0.237 0.124 0.238 0.122 0.237 0.121 0.238 0.12 0.237 0.118 0.237 0.117 0.238 0.115 0.237 0.114 0.237 0.112 0.237 0.112 0.237 0.109 0.236 0.109 0.237 0.106 0.237 0.106 0.236 0.104 0.236 0.102 0.236 0.102 0.236 0.099 0.236 0.098 0.235 0.097 0.235 0.095 0.235 0.094 0.235 0.093 0.234 0.09 0.235 0.09 0.234 0.088 0.233 0.086 0.234 0.085 0.233 0.084 0.232 0.081 0.233 0.081 0.232 0.079 0.232 0.077 0.231 0.076 0.231 0.074 0.231 0.073 0.23 0.071 0.23 0.07 0.23 0.068 0.229 0.067 0.228 0.065 0.229 0.064 0.227 0.062 0.228 0.06 0.227 0.059 0.226 0.057 0.226 0.056 0.225 0.054 0.225 0.053 0.224 0.051 0.224 0.049 0.223 0.048 0.223 0.046 0.222 0.045 0.222 0.043 0.221 0.041 0.22 0.04 0.22 0.038 0.219 0.036 0.218 0.035 0.218 0.033 0.217 0.032 0.217 0.03 0.216 0.028 0.215 0.027 0.214 0.025 0.214 0.023 0.213 0.022 0.213 0.019 0.211 0.019 0.211 0.016 0.21 0.015 0.209 0.013 0.209 0.012 0.208 0.01 0.207 0.008 0.206 0.006 0.205 0.005 0.205 0.003 0.203 0.001 0.203 0 0.204-0.001 0.205-0.003 0.206-0.005 0.207-0.007 0.207-0.008 0.208-0.01 0.209-0.011 0.21-0.013 0.21-0.015 0.212-0.016 0.212-0.019 0.212-0.019 0.214-0.022 0.214-0.023 0.215-0.025 0.215-0.026 0.217-0.028 0.216-0.03 0.218-0.031 0.218-0.033 0.219-0.034 0.219-0.036 0.22-0.038 0.221-0.039 0.221-0.041 0.222-0.043 0.222-0.044 0.223-0.045 0.224-0.048 0.224-0.048 0.224-0.051 0.225-0.052 0.226-0.053 0.226-0.055 0.227-0.057 0.227-0.058 0.227-0.06 0.228-0.061 0.229-0.063 0.228-0.065 0.23-0.065 0.229-0.068 0.23-0.069 0.231-0.07 0.231-0.072 0.231-0.074 0.232-0.075 0.231-0.076 0.233-0.078 0.232-0.08 0.233-0.081 0.233-0.082 0.234-0.084 0.234-0.086 0.234-0.087 0.234-0.088 0.235-0.09 0.235-0.091 0.235-0.093 0.235-0.094 0.235-0.096 0.236-0.097 0.236-0.099 0.236-0.1 0.236-0.101 0.237-0.103 0.236-0.104 0.237-0.106 0.237-0.107 0.237-0.109 0.237-0.11 0.237-0.111 0.237-0.113 0.238-0.114 0.237-0.116 0.237-0.117 0.238-0.118 0.237-0.12 0.238-0.121 0.237-0.122 0.238-0.124 0.237-0.125 0.238-0.127 0.237-0.127 0.238-0.13 0.237-0.13 0.238-0.132 0.237-0.133 0.237-0.135 0.237-0.136 0.237-0.137 0.237-0.139 0.237-0.139 0.236-0.142 0.237-0.142 0.236-0.144 0.236-0.145 0.236-0.146 0.236-0.148 0.236-0.149 0.235-0.15 0.235-0.152 0.235-0.152 0.235-0.155 0.234-0.155 0.234-0.156 0.234-0.158 0.234-0.159 0.233-0.161 0.233-0.161 0.233-0.163 0.232-0.164 0.232-0.166 0.232-0.166 0.232-0.168 0.23-0.169 0.231-0.17 0.23-0.171 0.23-0.173 0.23-0.174 0.229-0.175 0.228-0.176 0.228-0.177 0.228-0.179 0.227-0.18 0.227-0.181 0.226-0.182 0.226-0.183 0.225-0.185 0.225-0.185 0.224-0.187 0.224-0.188 0.223-0.189 0.223-0.19 0.222-0.192 0.221-0.192 0.221-0.194 0.22-0.194 0.22-0.196 0.219-0.197 0.218-0.198 0.218-0.2 0.217-0.2 0.217-0.201 0.216-0.203 0.215-0.204 0.214-0.204 0.214-0.206 0.213-0.207 0.212-0.208 0.212-0.209 0.21-0.21 0.21-0.211 0.21-0.213 0.208-0.213 0.208-0.214 0.207-0.216 0.206-0.216 0.205-0.218 0.205-0.218 0.203-0.22 0.203-0.22 0.202-0.222 0.201-0.222 0.2-0.224 0.199-0.225 0.199-0.225 0.197-0.227 0.197-0.228 0.195-0.228 0.195-0.23 0.194-0.231 0.192-0.231 0.192-0.233 0.191-0.233 0.19-0.235 0.189-0.236 0.187-0.236 0.187-0.237 0.186-0.239 0.184-0.239 0.184-0.24 0.182-0.242 0.182-0.242 0.18-0.243 0.179-0.244 0.178-0.245 0.177-0.246 0.176-0.246 0.175-0.248 0.173-0.249 0.173-0.249 0.171-0.251 0.17-0.251 0.169-0.252 0.167-0.253 0.167-0.254 0.165-0.255 0.164-0.256 0.163-0.256 0.161-0.258 0.16-0.258 0.159-0.259 0.158-0.26 0.156-0.261 0.155-0.262 0.153-0.262 0.153-0.264 0.151-0.264 0.149-0.265 0.148-0.266 0.147-0.266 0.146-0.268 0.144-0.268 0.143-0.269 0.141-0.27 0.14-0.271 0.138-0.271 0.137-0.273 0.135-0.273 0.134-0.274 0.133-0.274 0.131-0.276 0.129-0.276 0.128-0.277 0.127-0.278 0.125-0.278 0.123-0.279 0.122-0.28 0.12-0.281 0.119-0.282 0.117-0.282 0.116-0.283 0.114-0.283 0.112-0.285 0.111-0.285 0.109-0.286 0.107-0.286 0.106-0.287 0.104-0.288 0.102-0.289 0.101-0.289 0.099-0.29 0.097-0.291 0.096-0.291 0.093-0.293 0.093-0.292 0.09-0.294 0.088-0.294 0.087-0.295 0.085-0.295 0.083-0.296 0.082-0.297 0.079-0.297 0.078-0.298 0.076-0.299 0.057-0.082 0.066-0.095 0.09-0.123 0.052-0.07 0.057-0.075 0.062-0.079 0.065-0.083 0.069-0.085 0.073-0.088 0.075-0.089 0.079-0.09 0.08-0.09 0.083-0.089 0.085-0.088 0.087-0.085 0.043-0.042 0.044-0.041 0.044-0.04 0.045-0.039 0.044-0.039 0.045-0.037 0.044-0.035 0.045-0.035 0.045-0.033 0.044-0.031 0.045-0.03 0.044-0.028 0.044-0.027 0.044-0.025 0.044-0.022 0.043-0.021 0.044-0.019 0.042-0.016 0.043-0.014 0.042-0.012 0.041-0.009 0.041-0.007 0.04-0.004 0.04-0.002 0.053 0.002 0.053 0.004 0.053 0.007 0.053 0.009 0.052 0.012 0.052 0.014 0.051 0.016 0.051 0.019 0.051 0.021 0.051 0.022 0.049 0.025 0.05 0.027 0.049 0.028 0.049 0.03 0.048 0.031 0.047 0.033 0.047 0.035 0.047 0.035 0.046 0.037 0.045 0.039 0.045 0.039 0.044 0.04 0.043 0.041 0.043 0.042 0.042 0.042 0.041 0.043 0.041 0.044 0.04 0.044 0.039 0.044 0.038 0.045 0.075 0.09 0.07 0.09 0.068 0.089 0.064 0.088 0.06 0.085 0.056 0.083 0.052 0.079 0.048 0.075 0.043 0.07 0.039 0.065 0.034 0.058 0.054 0.095 0.033 0.061 0.011 0.021 0.076 0.299 0.078 0.298 0.079 0.297 0.081 0.297 0.083 0.296 0.084 0.296 0.086 0.295 0.088 0.294 0.09 0.294 0.091 0.293 0.093 0.292 0.094 0.292 0.096 0.291 0.098 0.29 0.099 0.29 0.101 0.289 0.103 0.288 0.104 0.288 0.106 0.287 0.107 0.286 0.109 0.286 0.11 0.285 0.112 0.284 0.114 0.283 0.115 0.283 0.116 0.282 0.118 0.282 0.12 0.28 0.121 0.28 0.122 0.279 0.124 0.279 0.126 0.277 0.127 0.277 0.128 0.276 0.13 0.276 0.131 0.274 0.133 0.274 0.134 0.273 0.135 0.273 0.137 0.271 0.138 0.271 0.139 0.27 0.141 0.269 0.143 0.268 0.143 0.268 0.145 0.267 0.146 0.266 0.148 0.265 0.149 0.264 0.15 0.264 0.151 0.262 0.153 0.262 0.154 0.261 0.155 0.26 0.156 0.26 0.158 0.258 0.159 0.258 0.16 0.256 0.161 0.256 0.163 0.255 0.163 0.254 0.165 0.254 0.166 0.252 0.168 0.251 0.168 0.251 0.169 0.25 0.171 0.248 0.172 0.248 0.173 0.247 0.174 0.246 0.175 0.245 0.176 0.245 0.177 0.243 0.179 0.242 0.179 0.242 0.18 0.24 0.182 0.24 0.182 0.238 0.184 0.238 0.184 0.237 0.186 0.235 0.186 0.235 0.188 0.234 0.188 0.232 0.19 0.232 0.19 0.231 0.191 0.23 0.193 0.229 0.193 0.228 0.194 0.226 0.195 0.226 0.196 0.225 0.197 0.224 0.197 0.222 0.199 0.222 0.199 0.221 0.201 0.22 0.201 0.218 0.202 0.218 0.202 0.216 0.204 0.216 0.204 0.214 0.205 0.213 0.206 0.213 0.207 0.211 0.208 0.21 0.208 0.209 0.209 0.208 0.21 0.207 0.21 0.206 0.211 0.205 0.212 0.203 0.213 0.203 0.213 0.201 0.214 0.2 0.215 0.199 0.215 0.198 0.216 0.197 0.217 0.196 0.217 0.195 0.218 0.193 0.219 0.192 0.219 0.191 0.22 0.19 0.22 0.189 0.221 0.188 0.221 0.186 0.222 0.186 0.223 0.184 0.223 0.183 0.224 0.182 0.224 0.18 0.225 0.18 0.225 0.178 0.226 0.177 0.226 0.176 0.227 0.174 0.227 0.173 0.227 0.173 0.228 0.17 0.229 0.17 0.229 0.168 0.229 0.168 0.23 0.166 0.23 0.164 0.231 0.164 0.231 0.162 0.231 0.161 0.232 0.159 0.232 0.159 0.232 0.157 0.233 0.156 0.233 0.154 0.233 0.153 0.234 0.152 0.234 0.151 0.234 0.149 0.235 0.148 0.235 0.147 0.235 0.145 0.235 0.144 0.236 0.143 0.236 0.141 0.236 0.14 0.236 0.139 0.236 0.137 0.237 0.136 0.237 0.135 0.237 0.133 0.237 0.132 0.238 0.131 0.237 0.129 0.238 0.128 0.238 0.126 0.237 0.125 0.239 0.124 0.238 0.122 0.238 0.121 0.238 0.12 0.239 0.118 0.238 0.116 0.239 0.116 0.238 0.113 0.239 0.113 0.238 0.111 0.239 0.109 0.239 0.108 0.238 0.107 0.239 0.105 0.239 0.104 0.238 0.102 0.239 0.101 0.239 0.099 0.238 0.098 0.238 0.096 0.239 0.095 0.238 0.094 0.238 0.092 0.238 0.09 0.238 0.089 0.238 0.088 0.238 0.086 0.237 0.084 0.238 0.083 0.237 0.081 0.237 0.08 0.237 0.079 0.237 0.076 0.236 0.076 0.237 0.073 0.236 0.073 0.236 0.07 0.235 0.069 0.236 0.068 0.235 0.066 0.235 0.064 0.235 0.063 0.234 0.061 0.234 0.06 0.234 0.058 0.233 0.056 0.234 0.055 0.232 0.053 0.233 0.052 0.232 0.05 0.232 0.049 0.231 0.046 0.231 0.046 0.231 0.043 0.23 0.042 0.23 0.04 0.23 0.039 0.229 0.037 0.228 0.036 0.229 0.033 0.227 0.032 0.228 0.031 0.226 0.028 0.227 0.027 0.226 0.026 0.225 0.024 0.225 0.022 0.224 0.02 0.224 0.018 0.223 0.017 0.223 0.016 0.222 0.013 0.222 0.012 0.221 0.01 0.221 0.008 0.22 0.007 0.219 0.005 0.219 0.003 0.218 0.001 0.217 0 0.217-0.002 0.194 0 0.195-0.002 0.196-0.003 0.197-0.005 0.198-0.007 0.198-0.009 0.2-0.01 0.201-0.012 0.201-0.014 0.203-0.015 0.203-0.017 0.204-0.019 0.205-0.02 0.206-0.022 0.207-0.024 0.208-0.025 0.208-0.027 0.209-0.028 0.211-0.031 0.21-0.032 0.212-0.033 0.212-0.035 0.214-0.037 0.213-0.038 0.215-0.04 0.215-0.042 0.216-0.043 0.217-0.045 0.217-0.047 0.219-0.048 0.218-0.049 0.22-0.052 0.22-0.052 0.22-0.055 0.222-0.056 0.221-0.057 0.223-0.059 0.223-0.061 0.224-0.062 0.224-0.064 0.224-0.065 0.226-0.067 0.226-0.068 0.226-0.07 0.227-0.072 0.227-0.073 0.228-0.074 0.228-0.076 0.228-0.078 0.23-0.079 0.229-0.081 0.23-0.082 0.23-0.083 0.231-0.085 0.231-0.087 0.232-0.088 0.232-0.089 0.232-0.091 0.233-0.093 0.232-0.094 0.234-0.095 0.233-0.097 0.234-0.098 0.234-0.1 0.234-0.101 0.235-0.103 0.235-0.104 0.235-0.105 0.235-0.107 0.236-0.109 0.236-0.11 0.236-0.111 0.236-0.112 0.236-0.114 0.237-0.116 0.236-0.117 0.237-0.118 0.237-0.119 0.237-0.121 0.237-0.123 0.237-0.123 0.237-0.126 0.237-0.126 0.238-0.128 0.237-0.129 0.238-0.131 0.237-0.132 0.237-0.133 0.238-0.135 0.237-0.135 0.238-0.138 0.237-0.138 0.237-0.14 0.238-0.142 0.237-0.142 0.237-0.144 0.237-0.145 0.237-0.147 0.236-0.147 0.237-0.15 0.236-0.15 0.237-0.152 0.236-0.153 0.236-0.154 0.236-0.155 0.235-0.157 0.236-0.158 0.235-0.159 0.235-0.161 0.235-0.162 0.234-0.163 0.234-0.164 0.234-0.166 0.234-0.166 0.233-0.168 0.233-0.17 0.233-0.17 0.232-0.172 0.232-0.173 0.231-0.174 0.232-0.175 0.231-0.177 0.23-0.177 0.23-0.179 0.23-0.18 0.229-0.182 0.229-0.182 0.228-0.184 0.228-0.184 0.227-0.186 0.227-0.188 0.227-0.188 0.225-0.189 0.226-0.191 0.225-0.192 0.224-0.192 0.224-0.194 0.223-0.196 0.223-0.196 0.222-0.197 0.221-0.199 0.221-0.199 0.22-0.201 0.219-0.202 0.219-0.203 0.219-0.204 0.217-0.205 0.217-0.206 0.216-0.208 0.216-0.208 0.215-0.21 0.214-0.21 0.213-0.212 0.212-0.212 0.212-0.214 0.211-0.215 0.211-0.216 0.209-0.217 0.209-0.218 0.207-0.219 0.207-0.22 0.207-0.221 0.205-0.222 0.204-0.223 0.204-0.224 0.203-0.225 0.201-0.226 0.201-0.227 0.2-0.228 0.199-0.229 0.198-0.23 0.197-0.232 0.197-0.232 0.195-0.233 0.194-0.234 0.193-0.235 0.192-0.236 0.191-0.237 0.191-0.237 0.189-0.239 0.188-0.24 0.187-0.241 0.185-0.241 0.185-0.243 0.184-0.244 0.182-0.244 0.182-0.245 0.18-0.247 0.179-0.247 0.178-0.248 0.177-0.249 0.175-0.25 0.175-0.251 0.173-0.251 0.172-0.253 0.171-0.254 0.169-0.254 0.169-0.255 0.166-0.256 0.166-0.257 0.165-0.258 0.163-0.259 0.162-0.259 0.16-0.261 0.159-0.261 0.158-0.262 0.156-0.263 0.156-0.264 0.153-0.264 0.153-0.266 0.15-0.266 0.15-0.267 0.148-0.268 0.147-0.268 0.145-0.27 0.144-0.27 0.142-0.271 0.141-0.272 0.139-0.273 0.138-0.273 0.136-0.274 0.135-0.275 0.133-0.276 0.131-0.276 0.131-0.277 0.128-0.278 0.127-0.279 0.125-0.28 0.124-0.28 0.122-0.281 0.12-0.282 0.119-0.282 0.117-0.283 0.116-0.284 0.114-0.285 0.112-0.285 0.11-0.286 0.109-0.287 0.107-0.287 0.105-0.288 0.104-0.289 0.101-0.289 0.1-0.291 0.099-0.29 0.096-0.292 0.095-0.292 0.092-0.293 0.091-0.293 0.089-0.295 0.088-0.294 0.085-0.296 0.084-0.296 0.081-0.297 0.08-0.297 0.078-0.298 0.076-0.299 0.011-0.021 0.033-0.061 0.054-0.095 0.034-0.058 0.039-0.065 0.043-0.07 0.048-0.075 0.052-0.079 0.056-0.083 0.06-0.085 0.064-0.088 0.068-0.089 0.07-0.09 0.075-0.09 0.038-0.045 0.039-0.044 0.04-0.044 0.041-0.044 0.041-0.043 0.042-0.042 0.043-0.042 0.043-0.041 0.044-0.04 0.045-0.039 0.045-0.039 0.046-0.037 0.047-0.035 0.047-0.035 0.047-0.033 0.048-0.031 0.049-0.03 0.049-0.028 0.05-0.027 0.049-0.025 0.051-0.022 0.051-0.021 0.051-0.019 0.051-0.016 0.052-0.014 0.052-0.012 0.053-0.009 0.053-0.007 0.053-0.004 0.053-0.002 0.053 0.002 0.053 0.004 0.053 0.007 0.053 0.009 0.052 0.012 0.052 0.014 0.051 0.016 0.051 0.019 0.051 0.021 0.051 0.022 0.049 0.025 0.05 0.027 0.049 0.028 0.049 0.03 0.048 0.031 0.047 0.033 0.047 0.035 0.047 0.035 0.046 0.037 0.045 0.039 0.045 0.039 0.044 0.04 0.043 0.041 0.043 0.042 0.042 0.042 0.041 0.043 0.041 0.044 0.04 0.044 0.039 0.044 0.038 0.045 0.075 0.09 0.07 0.09 0.068 0.089 0.064 0.088 0.06 0.085 0.056 0.083 0.052 0.079 0.048 0.075 0.043 0.07 0.039 0.065 0.034 0.058 0.054 0.095 0.033 0.061 0.011 0.021 0.076 0.299 0.078 0.298 0.079 0.297 0.081 0.297 0.083 0.296 0.085 0.296 0.086 0.295 0.089 0.294 0.09 0.293 0.091 0.293 0.094 0.292 0.095 0.292 0.096 0.291 0.099 0.29 0.1 0.289 0.102 0.289 0.103 0.288 0.105 0.288 0.107 0.287 0.108 0.286 0.11 0.285 0.111 0.285 0.113 0.284 0.115 0.283 0.116 0.282 0.118 0.282 0.119 0.281 0.121 0.281 0.122 0.279 0.124 0.279 0.125 0.278 0.127 0.277 0.128 0.277 0.13 0.276 0.131 0.275 0.133 0.274 0.134 0.274 0.135 0.272 0.137 0.272 0.139 0.271 0.14 0.271 0.141 0.269 0.142 0.269 0.144 0.268 0.146 0.267 0.146 0.266 0.148 0.266 0.15 0.265 0.151 0.264 0.152 0.263 0.153 0.262 0.154 0.261 0.156 0.261 0.157 0.259 0.159 0.259 0.16 0.258 0.16 0.257 0.163 0.256 0.163 0.256 0.165 0.254 0.165 0.254 0.167 0.253 0.169 0.252 0.169 0.25 0.17 0.251 0.172 0.249 0.173 0.248 0.174 0.247 0.175 0.247 0.176 0.245 0.177 0.245 0.179 0.244 0.179 0.242 0.181 0.242 0.181 0.241 0.183 0.24 0.184 0.239 0.185 0.238 0.185 0.237 0.187 0.236 0.188 0.235 0.189 0.234 0.189 0.234 0.191 0.232 0.192 0.231 0.193 0.23 0.193 0.23 0.195 0.228 0.195 0.227 0.197 0.226 0.197 0.226 0.198 0.224 0.199 0.223 0.2 0.222 0.201 0.221 0.202 0.221 0.202 0.219 0.203 0.218 0.205 0.217 0.205 0.216 0.205 0.215 0.207 0.214 0.207 0.212 0.208 0.212 0.209 0.211 0.21 0.209 0.21 0.209 0.212 0.207 0.212 0.207 0.212 0.205 0.213 0.204 0.214 0.203 0.215 0.202 0.215 0.201 0.216 0.2 0.217 0.199 0.217 0.197 0.218 0.197 0.219 0.195 0.219 0.194 0.22 0.193 0.22 0.192 0.221 0.191 0.222 0.189 0.222 0.188 0.223 0.188 0.223 0.186 0.224 0.185 0.224 0.183 0.225 0.183 0.225 0.181 0.226 0.181 0.226 0.179 0.227 0.177 0.227 0.177 0.228 0.175 0.228 0.175 0.229 0.173 0.229 0.171 0.229 0.171 0.23 0.169 0.23 0.168 0.231 0.167 0.231 0.166 0.231 0.164 0.232 0.163 0.232 0.162 0.232 0.161 0.233 0.159 0.233 0.158 0.234 0.157 0.233 0.156 0.234 0.154 0.234 0.153 0.235 0.152 0.235 0.15 0.235 0.149 0.235 0.148 0.235 0.147 0.236 0.145 0.236 0.144 0.236 0.142 0.236 0.142 0.237 0.14 0.236 0.138 0.237 0.138 0.237 0.136 0.237 0.134 0.237 0.133 0.237 0.132 0.238 0.131 0.237 0.129 0.238 0.128 0.237 0.126 0.238 0.126 0.238 0.123 0.238 0.123 0.238 0.121 0.237 0.119 0.238 0.118 0.238 0.117 0.238 0.115 0.238 0.114 0.238 0.113 0.238 0.111 0.238 0.11 0.237 0.108 0.238 0.107 0.238 0.105 0.237 0.104 0.238 0.103 0.237 0.101 0.237 0.1 0.237 0.098 0.237 0.097 0.237 0.095 0.237 0.094 0.236 0.092 0.237 0.091 0.236 0.09 0.236 0.087 0.235 0.087 0.236 0.085 0.235 0.083 0.235 0.082 0.235 0.081 0.235 0.078 0.234 0.078 0.234 0.076 0.234 0.074 0.234 0.073 0.233 0.071 0.233 0.07 0.232 0.068 0.232 0.067 0.232 0.065 0.232 0.063 0.231 0.062 0.231 0.061 0.23 0.059 0.23 0.057 0.23 0.056 0.229 0.054 0.229 0.053 0.228 0.051 0.228 0.049 0.228 0.048 0.227 0.046 0.226 0.044 0.226 0.043 0.226 0.042 0.225 0.039 0.224 0.039 0.224 0.036 0.224 0.035 0.223 0.033 0.222 0.032 0.222 0.03 0.221 0.028 0.221 0.026 0.22 0.025 0.22 0.024 0.219 0.021 0.218 0.02 0.217 0.019 0.217 0.016 0.217 0.015 0.216 0.013 0.215 0.012 0.214 0.01 0.214 0.008 0.212 0.006 0.213 0.005 0.211 0.003 0.211 0.001 0.21 0 0.002 0.001 0.037-0.001 0.037-0.001 0.037-0.003 0.037-0.003 0.037-0.004 0.036-0.005 0.037-0.006 0.036-0.007 0.036-0.007 0.035-0.009 0.036-0.009 0.035-0.01 0.035-0.011 0.034-0.012 0.035-0.013 0.033-0.014 0.034-0.014 0.033-0.015 0.033-0.016 0.033-0.017 0.032-0.018 0.031-0.018 0.032-0.019 0.03-0.02 0.031-0.021 0.029-0.022 0.03-0.022 0.029-0.023 0.028-0.024 0.028-0.024 0.027-0.025 0.026-0.026 0.026-0.027 0.026-0.027 0.024-0.028 0.024-0.028 0.023-0.029 0.022-0.03 0.022-0.029 0.021-0.031 0.019-0.03 0.02-0.032 0.018-0.031 0.018-0.032 0.017-0.033 0.016-0.033 0.015-0.033 0.014-0.034 0.014-0.034 0.012-0.034 0.012-0.034 0.011-0.035 0.011-0.035 0.009-0.036 0.008-0.035 0.008-0.036 0.007-0.036 0.006-0.037 0.005-0.036 0.004-0.037 0.003-0.037 0.002-0.037 0.002-0.037 0-0.037 0-7.806 0.931 0.12 -0.931-0.246 0-243.07 -0.001-0.514 -0.002-0.514 -0.004-0.513 -0.006-0.513 -0.007-0.512 -0.009-0.512 -0.011-0.512 -0.012-0.511 -0.014-0.511 -0.015-0.511 -0.017-0.51 -0.019-0.509 -0.02-0.51 -0.022-0.508 -0.023-0.509 -0.025-0.508 -0.027-0.508 -0.028-0.507 -0.03-0.507 -0.031-0.506 -0.033-0.506 -0.034-0.505 -0.036-0.505 -0.038-0.505 -0.039-0.504 -0.041-0.504 -0.042-0.503 -0.044-0.503 -0.046-0.503 -0.047-0.502 -0.048-0.501 -0.051-0.501 -0.051-0.501 -0.054-0.5 -0.054-0.5 -0.057-0.499 -0.058-0.499 -0.059-0.498 -0.061-0.498 -0.062-0.497 -0.064-0.497 -0.066-0.496 -0.067-0.496 -0.069-0.496 -0.07-0.495 -0.072-0.494 -0.073-0.494 -0.074-0.494 -0.077-0.493 -0.077-0.492 -0.08-0.492 -0.08-0.491 -0.083-0.491 -0.083-0.491 -0.086-0.49 -0.086-0.489 -0.089-0.489 -0.089-0.489 -0.091-0.488 -0.093-0.487 -0.094-0.487 -0.096-0.486 -0.097-0.486 -0.099-0.485 -0.1-0.485 -0.101-0.484 -0.103-0.484 -0.105-0.483 -0.106-0.482 -0.107-0.482 -0.109-0.482 -0.111-0.481 -0.111-0.48 -0.114-0.48 -0.114-0.479 -0.116-0.479 -0.118-0.478 -0.119-0.478 -0.12-0.477 -0.122-0.476 -0.124-0.476 -0.124-0.475 -0.127-0.475 -0.127-0.474 -0.129-0.473 -0.131-0.473 -0.132-0.473 -0.133-0.471 -0.135-0.472 -0.136-0.47 -0.138-0.47 -0.138-0.469 -0.141-0.469 -0.142-0.468 -0.143-0.468 -0.144-0.467 -0.146-0.466 -0.148-0.466 -0.148-0.465 -0.151-0.465 -0.151-0.463 -0.153-0.464 -0.154-0.462 -0.156-0.462 -0.157-0.462 -0.158-0.46 -0.16-0.46 -0.161-0.46 -0.163-0.459 -0.164-0.458 -0.165-0.457 -0.167-0.457 -0.168-0.456 -0.169-0.456 -0.171-0.455 -0.172-0.454 -0.173-0.453 -0.175-0.453 -0.176-0.453 -0.177-0.451 -0.179-0.451 -0.18-0.45 -0.181-0.45 -0.183-0.449 -0.184-0.448 -0.186-0.447 -0.186-0.447 -0.188-0.446 -0.19-0.446 -0.19-0.444 -0.192-0.444 -0.194-0.444 -0.194-0.442 -0.196-0.442 -0.197-0.442 -0.199-0.44 -0.199-0.44 -0.202-0.439 -0.202-0.438 -0.204-0.438 -0.205-0.437 -0.206-0.436 -0.207-0.436 -0.209-0.434 -0.21-0.434 -0.212-0.434 -0.212-0.432 -0.214-0.432 -0.215-0.431 -0.217-0.431 -0.217-0.429 -0.219-0.429 -0.221-0.428 -0.221-0.428 -0.223-0.426 -0.224-0.426 -0.225-0.425 -0.227-0.424 -0.227-0.424 -0.229-0.423 -0.23-0.422 -0.232-0.421 -0.233-0.421 -0.234-0.419 -0.235-0.419 -0.236-0.418 -0.238-0.418 -0.238-0.416 -0.24-0.416 -0.242-0.415 -0.242-0.414 -0.244-0.414 -0.245-0.412 -0.246-0.412 -0.247-0.411 -0.249-0.41 -0.249-0.41 -0.251-0.408 -0.252-0.408 -0.254-0.407 -0.254-0.406 -0.256-0.405 -0.257-0.405 -0.258-0.403 -0.259-0.403 -0.26-0.402 -0.262-0.401 -0.263-0.401 -0.263-0.399 -0.266-0.399 -0.266-0.398 -0.267-0.397 -0.269-0.396 -0.269-0.395 -0.271-0.394 -0.272-0.394 -0.274-0.393 -0.274-0.391 -0.275-0.391 -0.277-0.391 -0.278-0.389 -0.279-0.388 -0.28-0.388 -0.281-0.386 -0.282-0.386 -0.284-0.385 -0.284-0.384 -0.286-0.383 -0.287-0.382 -0.288-0.382 -0.289-0.38 -0.29-0.379 -0.291-0.379 -0.293-0.378 -0.293-0.377 -0.295-0.376 -0.295-0.375 -0.297-0.374 -0.298-0.373 -0.299-0.372 -0.3-0.372 -0.301-0.37 -0.303-0.37 -0.303-0.368 -0.304-0.368 -0.306-0.367 -0.306-0.366 -0.308-0.365 -0.309-0.364 -0.31-0.363 -0.31-0.362 -0.312-0.361 -0.313-0.36 -0.314-0.359 -0.316-0.359 -0.316-0.357 -0.317-0.356 -0.318-0.356 -0.32-0.354 -0.32-0.354 -0.321-0.352 -0.323-0.352 -0.323-0.35 -0.325-0.35 -0.325-0.349 -0.327-0.347 -0.328-0.347 -0.328-0.346 -0.33-0.345 -0.331-0.343 -0.331-0.343 -0.333-0.342 -0.334-0.341 -0.335-0.339 -0.335-0.339 -0.337-0.338 -0.338-0.337 -0.339-0.335 -0.339-0.335 -0.341-0.334 -0.342-0.333 -0.343-0.331 -0.343-0.331 -0.345-0.33 -0.346-0.328 -0.347-0.328 -0.347-0.327 -0.349-0.325 -0.35-0.325 -0.35-0.323 -0.352-0.323 -0.352-0.321 -0.354-0.32 -0.354-0.32 -0.356-0.318 -0.356-0.317 -0.357-0.316 -0.359-0.316 -0.359-0.314 -0.36-0.313 -0.361-0.312 -0.362-0.31 -0.363-0.31 -0.364-0.309 -0.365-0.308 -0.366-0.306 -0.367-0.306 -0.368-0.304 -0.368-0.303 -0.37-0.303 -0.37-0.301 -0.372-0.3 -0.372-0.299 -0.373-0.298 -0.374-0.297 -0.375-0.295 -0.376-0.295 -0.377-0.293 -0.378-0.293 -0.379-0.291 -0.379-0.29 -0.38-0.289 -0.382-0.288 -0.382-0.287 -0.383-0.286 -0.384-0.284 -0.385-0.284 -0.386-0.282 -0.386-0.281 -0.388-0.28 -0.388-0.279 -0.389-0.278 -0.391-0.277 -0.391-0.275 -0.391-0.274 -0.393-0.274 -0.394-0.272 -0.394-0.271 -0.395-0.269 -0.396-0.269 -0.397-0.267 -0.398-0.266 -0.399-0.266 -0.399-0.263 -0.401-0.263 -0.401-0.262 -0.402-0.26 -0.403-0.259 -0.403-0.258 -0.405-0.257 -0.405-0.256 -0.406-0.254 -0.407-0.254 -0.408-0.252 -0.408-0.251 -0.41-0.249 -0.41-0.249 -0.411-0.247 -0.412-0.246 -0.412-0.245 -0.414-0.244 -0.414-0.242 -0.415-0.242 -0.416-0.24 -0.416-0.238 -0.418-0.238 -0.418-0.236 -0.419-0.235 -0.419-0.234 -0.421-0.233 -0.421-0.232 -0.422-0.23 -0.423-0.229 -0.424-0.227 -0.424-0.227 -0.425-0.225 -0.426-0.224 -0.426-0.223 -0.428-0.221 -0.428-0.221 -0.429-0.219 -0.429-0.217 -0.431-0.217 -0.431-0.215 -0.432-0.214 -0.432-0.212 -0.434-0.212 -0.434-0.21 -0.434-0.209 -0.436-0.207 -0.436-0.206 -0.437-0.205 -0.438-0.204 -0.438-0.202 -0.439-0.202 -0.44-0.199 -0.44-0.199 -0.442-0.197 -0.442-0.196 -0.442-0.194 -0.444-0.194 -0.444-0.192 -0.444-0.19 -0.446-0.19 -0.446-0.188 -0.447-0.186 -0.447-0.186 -0.448-0.184 -0.449-0.183 -0.45-0.181 -0.45-0.18 -0.451-0.179 -0.451-0.177 -0.453-0.176 -0.453-0.175 -0.453-0.173 -0.454-0.172 -0.455-0.171 -0.456-0.169 -0.456-0.168 -0.457-0.167 -0.457-0.165 -0.458-0.164 -0.459-0.163 -0.46-0.161 -0.46-0.16 -0.46-0.158 -0.462-0.157 -0.462-0.156 -0.462-0.154 -0.464-0.153 -0.463-0.151 -0.465-0.151 -0.465-0.148 -0.466-0.148 -0.466-0.146 -0.467-0.144 -0.468-0.143 -0.468-0.142 -0.469-0.141 -0.469-0.138 -0.47-0.138 -0.47-0.136 -0.472-0.135 -0.471-0.133 -0.473-0.132 -0.473-0.131 -0.473-0.129 -0.474-0.127 -0.475-0.127 -0.475-0.124 -0.476-0.124 -0.476-0.122 -0.477-0.12 -0.478-0.119 -0.478-0.118 -0.479-0.116 -0.479-0.114 -0.48-0.114 -0.48-0.111 -0.481-0.111 -0.482-0.109 -0.482-0.107 -0.482-0.106 -0.483-0.105 -0.484-0.103 -0.484-0.101 -0.485-0.1 -0.485-0.099 -0.486-0.097 -0.486-0.096 -0.487-0.094 -0.487-0.093 -0.488-0.091 -0.489-0.089 -0.489-0.089 -0.489-0.086 -0.49-0.086 -0.491-0.083 -0.491-0.083 -0.491-0.08 -0.492-0.08 -0.492-0.077 -0.493-0.077 -0.494-0.074 -0.494-0.073 -0.494-0.072 -0.495-0.07 -0.496-0.069 -0.496-0.067 -0.496-0.066 -0.497-0.064 -0.497-0.062 -0.498-0.061 -0.498-0.059 -0.499-0.058 -0.499-0.057 -0.5-0.054 -0.5-0.054 -0.501-0.051 -0.501-0.051 -0.501-0.048 -0.502-0.047 -0.503-0.046 -0.503-0.044 -0.503-0.042 -0.504-0.041 -0.504-0.039 -0.505-0.038 -0.505-0.036 -0.505-0.034 -0.506-0.033 -0.506-0.031 -0.507-0.03 -0.507-0.028 -0.508-0.027 -0.508-0.025 -0.509-0.023 -0.508-0.022 -0.51-0.02 -0.509-0.019 -0.51-0.017 -0.511-0.015 -0.511-0.014 -0.511-0.012 -0.512-0.011 -0.512-0.009 -0.512-0.007 -0.513-0.006 -0.513-0.004 -0.514-0.002 -0.514-0.001 -0.514 0.001Z" class="c"/><circle cx="109.426" cy="137.125" r="8.808" class="b"/><path d="M109.661 118.819c10.346 0.196 19.377 10.28 17.896 20.856 -1.209 8.629-9.36 15.759-18.131 15.759 -12.086 0-22.241-14.335-16.496-26.251 2.935-6.089 9.404-10.234 16.261-10.364 0.236-0.002 0.235-0.002 0.47 0Zm-0.349 9.499c-5.794 0.111-10.553 6.966-7.825 12.625 3.129 6.49 15.455 6.028 16.661-2.586 0.7-4.996-3.418-10.073-8.836-10.039Z" class="c"/><circle cx="229.426" cy="137.125" r="8.808" class="b"/><path d="M229.661 118.819c10.418 0.197 19.495 10.404 17.863 21.083 -1.305 8.533-9.392 15.532-18.098 15.532 -10.517 0-19.851-10.526-18.061-21.313 1.387-8.359 9.121-15.137 17.826-15.302 0.235-0.002 0.235-0.002 0.47 0Zm-0.349 9.499c-5.794 0.111-10.553 6.966-7.825 12.625 3.129 6.49 15.455 6.028 16.661-2.586 0.7-4.996-3.418-10.073-8.836-10.039Z" class="c"/><path d="M257.46 211.059c4.622 1.006 4.776 6.936-0.942 12.357 -10.988 10.417-27.779 12.42-42.944 13.838 -31.667 2.96-64.04-0.635-94.488 7.084 -1.417 0.359-2.825 0.753-4.22 1.19 -1.038 0.326-2.069 0.675-3.09 1.053 -1.56 0.578-3.095 1.223-4.587 1.953 -4.726 2.312-9.129 5.574-11.74 10.36 0 0-3.023 3.521-6.199 2.02 -2.584-1.221-3.276-4.646-1.697-7.361 6.971-11.988 21.888-17.162 35.228-19.769 32.293-6.31 65.641-2.199 99.253-7.085 11.696-1.7 24.785-4.167 30.671-13.485 0 0 1.441-1.799 3.105-2.125 1.024-0.2 1.303-0.064 1.65-0.03Z" class="c"/></svg>