<?xml version="1.0" encoding="UTF-8" standalone="no"?><!DOCTYPE svg PUBLIC "-//W3C//DTD SVG 1.1//EN" "http://www.w3.org/Graphics/SVG/1.1/DTD/svg11.dtd"><svg width="100%" height="100%" viewBox="0 0 338 431" version="1.1" xmlns="http://www.w3.org/2000/svg" xmlns:xlink="http://www.w3.org/1999/xlink" xml:space="preserve" xmlns:serif="http://www.serif.com/" style="fill-rule:evenodd;clip-rule:evenodd;stroke-linejoin:round;stroke-miterlimit:1.41421;"><g><path d="M150.86,11.026c5.953,-0.678 12.006,-1.026 18.14,-1.026c87.754,0 159,71.246 159,159c0,0 0,230.372 0,251.002c0,0.397 -0.158,0.779 -0.439,1.06c-0.28,0.281 -0.662,0.439 -1.059,0.439c-0.001,-0.001 -0.001,-0.001 -0.002,-0.001c-5.937,0.037 -12.777,-2.005 -19.5,-5.681l0,-244.66c0,-87.432 -69.703,-158.595 -156.14,-160.133Z" style="fill:#fff;fill-opacity:0.431373;"/><g><path d="M61.88,377.342c-6.398,25.51 -33.722,44.116 -50.38,44.158c-0.001,0 -0.001,0 -0.002,0c-0.827,0 -1.498,-0.671 -1.498,-1.498c0,-20.63 0,-251.002 0,-251.002c0,-87.755 71.246,-159 159,-159c87.754,0 159,71.246 159,159c0,0 0,230.372 0,251.002c0,0.397 -0.158,0.779 -0.439,1.06c-0.28,0.281 -0.662,0.439 -1.059,0.439c-0.001,-0.001 -0.001,-0.001 -0.002,-0.001c-17.891,0.11 -43.982,-18.648 -50.38,-44.158c0,0 -0.98,-1.919 -2.12,-1.919c-1.14,0 -2.12,1.919 -2.12,1.919c-6.398,25.51 -33.873,44.23 -50.38,44.158c-18.477,0.252 -43.982,-18.648 -50.38,-44.158c0,0 -0.98,-1.919 -2.12,-1.919c-0.841,0 -2.12,1.919 -2.12,1.919c-6.398,25.51 -32.996,44.114 -50.38,44.158c-17.267,0.111 -43.982,-18.648 -50.38,-44.158c0,0 -0.981,-1.917 -2.121,-1.917c-0.967,0 -2.119,1.917 -2.119,1.917Z" style="fill:#fff;fill-opacity:0.431373;"/><path d="M169.544,0.501l0.544,0.002l0.543,0.005l0.543,0.006l0.543,0.008l0.542,0.009l0.542,0.011l0.541,0.013l0.541,0.015l0.541,0.016l0.54,0.018l0.54,0.02l0.539,0.021l0.539,0.023l0.538,0.025l0.539,0.026l0.537,0.028l0.537,0.03l0.537,0.032l0.537,0.033l0.536,0.035l0.535,0.036l0.535,0.039l0.535,0.039l0.534,0.042l0.534,0.043l0.533,0.045l0.533,0.047l0.532,0.048l0.532,0.05l0.531,0.051l0.531,0.053l0.531,0.055l0.53,0.056l0.529,0.059l0.529,0.059l0.529,0.062l0.528,0.063l0.527,0.064l0.527,0.066l0.527,0.068l0.526,0.07l0.526,0.071l0.525,0.073l0.524,0.074l0.524,0.076l0.524,0.078l0.523,0.079l0.523,0.08l0.522,0.083l0.521,0.084l0.521,0.085l0.52,0.088l0.521,0.088l0.519,0.091l0.519,0.092l0.518,0.093l0.518,0.095l0.517,0.097l0.517,0.098l0.516,0.1l0.515,0.101l0.515,0.103l0.515,0.105l0.513,0.106l0.514,0.108l0.513,0.109l0.512,0.111l0.511,0.112l0.511,0.114l0.511,0.115l0.51,0.117l0.509,0.119l0.509,0.12l0.508,0.122l0.507,0.123l0.507,0.124l0.507,0.127l0.505,0.127l0.505,0.13l0.505,0.13l0.504,0.133l0.503,0.133l0.503,0.136l0.502,0.137l0.501,0.138l0.501,0.14l0.5,0.141l0.5,0.143l0.499,0.144l0.498,0.146l0.498,0.148l0.496,0.148l0.497,0.151l0.496,0.152l0.495,0.153l0.494,0.154l0.494,0.157l0.493,0.157l0.492,0.16l0.492,0.16l0.491,0.162l0.491,0.164l0.49,0.165l0.489,0.167l0.488,0.167l0.488,0.17l0.487,0.171l0.487,0.172l0.485,0.174l0.485,0.175l0.485,0.177l0.483,0.178l0.483,0.179l0.483,0.181l0.481,0.183l0.481,0.183l0.48,0.186l0.48,0.186l0.478,0.188l0.478,0.19l0.478,0.191l0.476,0.192l0.476,0.194l0.475,0.195l0.474,0.196l0.474,0.198l0.473,0.2l0.472,0.2l0.472,0.203l0.471,0.203l0.469,0.205l0.47,0.206l0.468,0.208l0.468,0.209l0.467,0.21l0.466,0.212l0.466,0.213l0.464,0.215l0.464,0.216l0.463,0.217l0.463,0.219l0.461,0.219l0.461,0.222l0.461,0.223l0.459,0.224l0.458,0.225l0.458,0.227l0.457,0.228l0.456,0.229l0.455,0.231l0.455,0.232l0.454,0.233l0.453,0.235l0.452,0.236l0.451,0.238l0.451,0.238l0.449,0.24l0.449,0.242l0.449,0.243l0.447,0.244l0.446,0.245l0.446,0.246l0.445,0.248l0.444,0.249l0.443,0.251l0.442,0.252l0.442,0.253l0.44,0.254l0.44,0.256l0.439,0.257l0.438,0.258l0.437,0.26l0.437,0.26l0.435,0.262l0.435,0.264l0.434,0.264l0.433,0.266l0.432,0.267l0.431,0.269l0.43,0.27l0.43,0.27l0.428,0.272l0.428,0.274l0.427,0.275l0.426,0.276l0.425,0.277l0.424,0.278l0.423,0.28l0.423,0.281l0.422,0.282l0.42,0.283l0.42,0.285l0.419,0.286l0.417,0.287l0.417,0.288l0.416,0.289l0.416,0.291l0.414,0.292l0.413,0.293l0.413,0.294l0.411,0.296l0.411,0.296l0.409,0.298l0.409,0.299l0.408,0.301l0.407,0.301l0.405,0.303l0.405,0.304l0.404,0.305l0.404,0.306l0.402,0.307l0.401,0.309l0.4,0.31l0.399,0.311l0.398,0.312l0.398,0.313l0.396,0.315l0.396,0.315l0.394,0.317l0.393,0.318l0.393,0.319l0.391,0.32l0.391,0.321l0.389,0.323l0.389,0.323l0.388,0.325l0.386,0.326l0.386,0.327l0.384,0.329l0.384,0.329l0.382,0.33l0.382,0.332l0.38,0.332l0.38,0.334l0.378,0.335l0.378,0.336l0.377,0.337l0.375,0.339l0.375,0.339l0.373,0.341l0.373,0.341l0.371,0.343l0.37,0.344l0.37,0.344l0.368,0.346l0.367,0.348l0.366,0.347l0.366,0.35l0.364,0.35l0.363,0.351l0.362,0.353l0.361,0.354l0.36,0.354l0.359,0.356l0.357,0.356l0.357,0.359l0.356,0.358l0.354,0.36l0.354,0.361l0.353,0.362l0.351,0.364l0.35,0.363l0.349,0.366l0.349,0.366l0.346,0.367l0.347,0.368l0.344,0.37l0.344,0.37l0.343,0.372l0.342,0.372l0.34,0.373l0.339,0.375l0.338,0.375l0.338,0.377l0.336,0.378l0.335,0.378l0.333,0.379l0.333,0.381l0.332,0.382l0.33,0.382l0.33,0.384l0.328,0.384l0.327,0.386l0.326,0.386l0.325,0.388l0.323,0.389l0.323,0.389l0.321,0.391l0.32,0.391l0.319,0.393l0.318,0.393l0.317,0.395l0.315,0.395l0.315,0.396l0.313,0.398l0.312,0.397l0.311,0.4l0.31,0.401l0.309,0.4l0.307,0.402l0.306,0.404l0.305,0.404l0.304,0.404l0.303,0.406l0.301,0.407l0.301,0.408l0.298,0.408l0.299,0.41l0.297,0.411l0.295,0.412l0.294,0.411l0.293,0.414l0.292,0.414l0.291,0.415l0.289,0.416l0.289,0.418l0.287,0.418l0.285,0.418l0.285,0.42l0.283,0.42l0.282,0.422l0.281,0.423l0.28,0.423l0.278,0.424l0.277,0.425l0.276,0.426l0.275,0.427l0.273,0.427l0.273,0.429l0.271,0.43l0.269,0.43l0.269,0.431l0.267,0.432l0.266,0.433l0.264,0.434l0.264,0.435l0.262,0.436l0.26,0.435l0.26,0.438l0.258,0.438l0.257,0.439l0.256,0.44l0.254,0.44l0.253,0.442l0.252,0.442l0.25,0.443l0.25,0.444l0.248,0.445l0.246,0.446l0.245,0.446l0.245,0.448l0.242,0.448l0.241,0.448l0.241,0.45l0.238,0.451l0.238,0.451l0.236,0.452l0.235,0.453l0.233,0.454l0.232,0.454l0.231,0.456l0.229,0.456l0.228,0.457l0.227,0.458l0.225,0.458l0.224,0.46l0.223,0.46l0.222,0.461l0.219,0.461l0.219,0.463l0.217,0.463l0.216,0.464l0.215,0.464l0.213,0.466l0.212,0.466l0.21,0.467l0.209,0.467l0.208,0.469l0.206,0.47l0.205,0.47l0.203,0.47l0.203,0.472l0.2,0.472l0.2,0.473l0.198,0.474l0.196,0.474l0.195,0.475l0.194,0.476l0.192,0.477l0.191,0.477l0.19,0.478l0.188,0.478l0.186,0.48l0.186,0.48l0.184,0.481l0.182,0.481l0.181,0.482l0.179,0.484l0.178,0.483l0.177,0.485l0.175,0.485l0.174,0.485l0.172,0.487l0.171,0.487l0.17,0.488l0.168,0.489l0.166,0.488l0.165,0.49l0.164,0.491l0.162,0.491l0.16,0.492l0.16,0.492l0.157,0.493l0.156,0.494l0.155,0.494l0.153,0.495l0.152,0.496l0.151,0.497l0.149,0.497l0.147,0.497l0.146,0.499l0.144,0.498l0.143,0.5l0.141,0.5l0.14,0.501l0.138,0.501l0.137,0.502l0.136,0.503l0.133,0.503l0.133,0.504l0.13,0.505l0.13,0.504l0.127,0.506l0.127,0.507l0.124,0.507l0.123,0.507l0.122,0.508l0.12,0.509l0.119,0.51l0.117,0.509l0.115,0.511l0.114,0.511l0.112,0.511l0.111,0.512l0.109,0.513l0.108,0.513l0.106,0.514l0.105,0.515l0.102,0.515l0.102,0.515l0.1,0.517l0.098,0.516l0.097,0.517l0.095,0.518l0.093,0.519l0.092,0.518l0.091,0.519l0.088,0.521l0.088,0.52l0.085,0.521l0.084,0.522l0.083,0.521l0.08,0.523l0.079,0.523l0.078,0.524l0.076,0.524l0.074,0.524l0.073,0.525l0.071,0.526l0.07,0.526l0.068,0.527l0.066,0.527l0.064,0.527l0.063,0.528l0.062,0.529l0.059,0.529l0.058,0.529l0.057,0.53l0.055,0.531l0.053,0.531l0.051,0.532l0.05,0.531l0.048,0.532l0.047,0.533l0.045,0.533l0.043,0.534l0.042,0.534l0.039,0.535l0.039,0.535l0.036,0.536l0.035,0.536l0.033,0.536l0.032,0.536l0.03,0.538l0.028,0.537l0.026,0.539l0.025,0.538l0.023,0.539l0.021,0.539l0.02,0.54l0.018,0.54l0.016,0.541l0.015,0.541l0.013,0.541l0.011,0.542l0.009,0.542l0.008,0.543l0.006,0.543l0.005,0.543l0.002,0.544l0.001,0.537l0,251.064l-0.002,0.216l-0.011,0.272l-0.016,0.266l-0.024,0.274l-0.03,0.274l-0.037,0.266l-0.042,0.261l-0.049,0.267l-0.057,0.265l-0.061,0.259l-0.071,0.268l-0.075,0.258l-0.08,0.253l-0.086,0.248l-0.094,0.255l-0.101,0.251l-0.102,0.24l-0.116,0.253l-0.117,0.24l-0.121,0.234l-0.131,0.237l-0.135,0.234l-0.142,0.23l-0.145,0.223l-0.151,0.22l-0.158,0.22l-0.169,0.223l-0.167,0.209l-0.172,0.205l-0.183,0.207l-0.184,0.198l-0.188,0.193l-0.196,0.192l-0.206,0.191l-0.2,0.176l-0.204,0.172l-0.213,0.17l-0.218,0.166l-0.221,0.159l-0.214,0.147l-0.233,0.152l-0.234,0.143l-0.224,0.13l-0.234,0.129l-0.243,0.126l-0.24,0.117l-0.24,0.11l-0.253,0.108l-0.248,0.1l-0.251,0.093l-0.258,0.089l-0.25,0.079l-0.258,0.075l-0.259,0.069l-0.259,0.062l-0.274,0.058l-0.26,0.048l-0.26,0.043l-0.274,0.037l-0.274,0.031l-0.266,0.023l-0.274,0.017l-0.272,0.01l-0.146,0.002l-2.556,-0.316l1.124,0.298l0.211,0.006l0.288,0.007l0.288,0.004l0.289,0.001l-0.998,0.003l-0.078,-0.021l-0.077,-0.003l-0.287,-0.01l-0.288,-0.014l-0.289,-0.015l-0.289,-0.018l-0.287,-0.02l-0.288,-0.022l-0.288,-0.024l-0.287,-0.026l-0.288,-0.029l-0.288,-0.03l-0.287,-0.033l-0.287,-0.034l-0.289,-0.037l-0.287,-0.039l-0.286,-0.041l-0.288,-0.043l-0.287,-0.044l-0.287,-0.047l-0.286,-0.049l-0.287,-0.05l-0.287,-0.053l-0.288,-0.055l-0.286,-0.056l-0.285,-0.058l-0.287,-0.06l-0.286,-0.062l-0.286,-0.064l-0.287,-0.066l-0.287,-0.068l-0.283,-0.068l-0.286,-0.072l-0.286,-0.073l-0.286,-0.074l-0.285,-0.077l-0.285,-0.078l-0.286,-0.081l-0.285,-0.081l-0.284,-0.084l-0.285,-0.085l-0.284,-0.087l-0.285,-0.089l-0.284,-0.09l-0.284,-0.092l-0.284,-0.094l-0.285,-0.096l-0.283,-0.097l-0.283,-0.098l-0.283,-0.101l-0.283,-0.102l-0.283,-0.103l-0.283,-0.106l-0.283,-0.107l-0.282,-0.109l-0.282,-0.11l-0.282,-0.111l-0.282,-0.114l-0.282,-0.115l-0.281,-0.116l-0.282,-0.119l-0.281,-0.119l-0.28,-0.121l-0.282,-0.124l-0.28,-0.124l-0.28,-0.126l-0.28,-0.127l-0.28,-0.13l-0.278,-0.13l-0.28,-0.132l-0.279,-0.134l-0.279,-0.135l-0.277,-0.136l-0.279,-0.139l-0.278,-0.139l-0.278,-0.142l-0.277,-0.142l-0.276,-0.144l-0.278,-0.146l-0.276,-0.147l-0.276,-0.148l-0.275,-0.15l-0.276,-0.152l-0.275,-0.153l-0.275,-0.154l-0.274,-0.156l-0.275,-0.158l-0.273,-0.159l-0.273,-0.159l-0.273,-0.162l-0.273,-0.163l-0.272,-0.164l-0.273,-0.167l-0.271,-0.167l-0.271,-0.169l-0.27,-0.17l-0.27,-0.171l-0.271,-0.173l-0.269,-0.175l-0.268,-0.175l-0.269,-0.177l-0.269,-0.179l-0.267,-0.18l-0.267,-0.181l-0.267,-0.182l-0.266,-0.184l-0.266,-0.186l-0.265,-0.187l-0.265,-0.188l-0.265,-0.189l-0.263,-0.191l-0.263,-0.192l-0.262,-0.193l-0.263,-0.196l-0.262,-0.196l-0.261,-0.197l-0.261,-0.2l-0.259,-0.199l-0.26,-0.202l-0.258,-0.203l-0.258,-0.204l-0.258,-0.206l-0.256,-0.206l-0.257,-0.209l-0.256,-0.209l-0.255,-0.211l-0.255,-0.212l-0.253,-0.213l-0.253,-0.215l-0.253,-0.216l-0.252,-0.218l-0.25,-0.217l-0.251,-0.221l-0.25,-0.221l-0.248,-0.222l-0.249,-0.224l-0.248,-0.225l-0.246,-0.226l-0.246,-0.228l-0.246,-0.229l-0.244,-0.229l-0.244,-0.232l-0.244,-0.233l-0.241,-0.233l-0.242,-0.235l-0.24,-0.237l-0.24,-0.237l-0.239,-0.24l-0.238,-0.239l-0.237,-0.242l-0.236,-0.242l-0.236,-0.244l-0.235,-0.245l-0.234,-0.247l-0.232,-0.247l-0.232,-0.249l-0.231,-0.25l-0.231,-0.251l-0.229,-0.253l-0.228,-0.253l-0.227,-0.255l-0.227,-0.257l-0.225,-0.257l-0.224,-0.258l-0.223,-0.259l-0.223,-0.261l-0.221,-0.263l-0.221,-0.263l-0.219,-0.265l-0.218,-0.265l-0.218,-0.268l-0.216,-0.267l-0.215,-0.27l-0.214,-0.27l-0.213,-0.272l-0.211,-0.273l-0.211,-0.274l-0.21,-0.275l-0.208,-0.276l-0.208,-0.278l-0.205,-0.279l-0.205,-0.279l-0.204,-0.282l-0.203,-0.282l-0.201,-0.283l-0.2,-0.285l-0.199,-0.286l-0.198,-0.287l-0.196,-0.288l-0.195,-0.289l-0.194,-0.29l-0.192,-0.291l-0.192,-0.293l-0.19,-0.294l-0.188,-0.294l-0.188,-0.297l-0.186,-0.297l-0.184,-0.298l-0.183,-0.299l-0.183,-0.301l-0.18,-0.301l-0.125,-0.212l-0.007,0.011l-0.185,0.303l-0.186,0.302l-0.187,0.3l-0.189,0.301l-0.191,0.298l-0.192,0.298l-0.193,0.296l-0.194,0.294l-0.195,0.294l-0.198,0.293l-0.199,0.292l-0.199,0.29l-0.201,0.288l-0.202,0.288l-0.204,0.287l-0.205,0.286l-0.205,0.283l-0.207,0.283l-0.209,0.283l-0.21,0.281l-0.211,0.279l-0.211,0.278l-0.213,0.277l-0.215,0.276l-0.215,0.275l-0.216,0.273l-0.218,0.273l-0.219,0.27l-0.219,0.27l-0.222,0.269l-0.221,0.267l-0.223,0.266l-0.224,0.265l-0.225,0.264l-0.226,0.262l-0.227,0.262l-0.228,0.26l-0.228,0.258l-0.23,0.258l-0.231,0.256l-0.232,0.255l-0.232,0.254l-0.235,0.253l-0.233,0.251l-0.236,0.25l-0.236,0.25l-0.237,0.247l-0.238,0.246l-0.238,0.245l-0.241,0.244l-0.24,0.243l-0.241,0.241l-0.242,0.24l-0.243,0.239l-0.244,0.238l-0.244,0.236l-0.245,0.235l-0.246,0.234l-0.247,0.233l-0.247,0.231l-0.248,0.23l-0.249,0.229l-0.249,0.227l-0.251,0.227l-0.251,0.224l-0.25,0.223l-0.253,0.223l-0.253,0.221l-0.253,0.219l-0.254,0.219l-0.255,0.218l-0.256,0.216l-0.255,0.214l-0.256,0.213l-0.257,0.212l-0.258,0.211l-0.258,0.209l-0.259,0.208l-0.259,0.207l-0.259,0.205l-0.26,0.204l-0.262,0.203l-0.261,0.202l-0.262,0.2l-0.261,0.198l-0.264,0.198l-0.263,0.196l-0.263,0.194l-0.264,0.194l-0.265,0.192l-0.265,0.191l-0.265,0.189l-0.265,0.188l-0.266,0.187l-0.267,0.185l-0.268,0.185l-0.267,0.182l-0.266,0.181l-0.268,0.18l-0.269,0.179l-0.268,0.177l-0.269,0.176l-0.27,0.174l-0.269,0.173l-0.269,0.171l-0.271,0.171l-0.271,0.169l-0.27,0.167l-0.271,0.166l-0.272,0.165l-0.271,0.163l-0.272,0.162l-0.272,0.16l-0.271,0.159l-0.273,0.157l-0.274,0.157l-0.272,0.155l-0.273,0.153l-0.274,0.152l-0.273,0.15l-0.273,0.149l-0.274,0.147l-0.275,0.147l-0.274,0.144l-0.275,0.144l-0.273,0.14l-0.275,0.141l-0.275,0.139l-0.274,0.137l-0.276,0.136l-0.275,0.134l-0.276,0.133l-0.274,0.131l-0.276,0.13l-0.276,0.129l-0.275,0.126l-0.277,0.126l-0.276,0.124l-0.275,0.122l-0.276,0.121l-0.276,0.119l-0.276,0.117l-0.276,0.116l-0.276,0.115l-0.277,0.113l-0.277,0.112l-0.275,0.109l-0.278,0.109l-0.275,0.106l-0.276,0.105l-0.278,0.104l-0.277,0.102l-0.275,0.1l-0.277,0.099l-0.277,0.097l-0.276,0.096l-0.277,0.093l-0.276,0.092l-0.277,0.091l-0.278,0.089l-0.277,0.087l-0.275,0.086l-0.277,0.084l-0.278,0.082l-0.276,0.08l-0.275,0.079l-0.278,0.077l-0.277,0.075l-0.277,0.074l-0.277,0.072l-0.276,0.069l-0.277,0.069l-0.277,0.066l-0.277,0.065l-0.276,0.062l-0.276,0.061l-0.279,0.06l-0.276,0.057l-0.276,0.055l-0.277,0.054l-0.277,0.051l-0.277,0.05l-0.277,0.048l-0.277,0.046l-0.278,0.044l-0.276,0.042l-0.276,0.039l-0.279,0.038l-0.277,0.036l-0.275,0.034l-0.278,0.032l-0.278,0.029l-0.277,0.028l-0.277,0.025l-0.278,0.023l-0.277,0.021l-0.278,0.019l-0.277,0.016l-0.278,0.015l-0.278,0.012l-0.277,0.009l-0.278,0.008l-0.278,0.004l-0.278,0.003l-0.192,0l-0.21,0.002l-0.293,0l-0.294,-0.001l-0.294,-0.005l-0.294,-0.006l-0.293,-0.009l-0.293,-0.011l-0.295,-0.014l-0.294,-0.015l-0.292,-0.018l-0.294,-0.02l-0.293,-0.022l-0.294,-0.025l-0.294,-0.026l-0.293,-0.029l-0.291,-0.031l-0.294,-0.033l-0.293,-0.035l-0.292,-0.037l-0.293,-0.039l-0.293,-0.041l-0.292,-0.043l-0.291,-0.045l-0.294,-0.048l-0.292,-0.049l-0.29,-0.051l-0.293,-0.053l-0.292,-0.055l-0.291,-0.057l-0.291,-0.059l-0.291,-0.061l-0.29,-0.062l-0.291,-0.065l-0.291,-0.067l-0.29,-0.068l-0.29,-0.07l-0.291,-0.072l-0.29,-0.074l-0.289,-0.076l-0.29,-0.077l-0.289,-0.079l-0.288,-0.081l-0.29,-0.083l-0.289,-0.085l-0.288,-0.086l-0.289,-0.089l-0.287,-0.089l-0.289,-0.092l-0.288,-0.094l-0.286,-0.094l-0.287,-0.097l-0.288,-0.099l-0.286,-0.1l-0.288,-0.102l-0.285,-0.103l-0.286,-0.105l-0.286,-0.107l-0.286,-0.109l-0.285,-0.11l-0.285,-0.111l-0.284,-0.114l-0.285,-0.115l-0.284,-0.116l-0.283,-0.118l-0.286,-0.121l-0.282,-0.121l-0.283,-0.123l-0.283,-0.125l-0.281,-0.125l-0.283,-0.128l-0.282,-0.13l-0.282,-0.131l-0.281,-0.132l-0.28,-0.134l-0.281,-0.136l-0.28,-0.137l-0.281,-0.138l-0.279,-0.141l-0.279,-0.141l-0.278,-0.143l-0.279,-0.145l-0.279,-0.146l-0.277,-0.148l-0.277,-0.149l-0.277,-0.15l-0.277,-0.153l-0.277,-0.154l-0.275,-0.154l-0.274,-0.156l-0.276,-0.159l-0.274,-0.159l-0.275,-0.161l-0.274,-0.163l-0.272,-0.163l-0.273,-0.166l-0.273,-0.166l-0.272,-0.168l-0.271,-0.17l-0.271,-0.171l-0.271,-0.172l-0.27,-0.175l-0.269,-0.174l-0.269,-0.177l-0.269,-0.178l-0.268,-0.179l-0.268,-0.182l-0.267,-0.182l-0.266,-0.183l-0.266,-0.185l-0.265,-0.186l-0.266,-0.188l-0.264,-0.189l-0.263,-0.191l-0.263,-0.191l-0.263,-0.194l-0.262,-0.194l-0.262,-0.196l-0.261,-0.198l-0.26,-0.198l-0.26,-0.2l-0.259,-0.201l-0.258,-0.203l-0.258,-0.204l-0.256,-0.205l-0.257,-0.206l-0.257,-0.209l-0.255,-0.209l-0.254,-0.211l-0.254,-0.211l-0.253,-0.213l-0.253,-0.215l-0.251,-0.216l-0.251,-0.217l-0.251,-0.218l-0.249,-0.22l-0.249,-0.221l-0.248,-0.222l-0.248,-0.224l-0.247,-0.225l-0.246,-0.226l-0.244,-0.227l-0.244,-0.228l-0.245,-0.231l-0.241,-0.23l-0.243,-0.233l-0.242,-0.234l-0.239,-0.234l-0.24,-0.237l-0.239,-0.238l-0.237,-0.238l-0.236,-0.239l-0.237,-0.242l-0.236,-0.243l-0.234,-0.243l-0.233,-0.245l-0.232,-0.245l-0.232,-0.248l-0.231,-0.249l-0.23,-0.25l-0.228,-0.25l-0.228,-0.253l-0.227,-0.253l-0.226,-0.255l-0.225,-0.255l-0.224,-0.257l-0.223,-0.258l-0.222,-0.26l-0.221,-0.261l-0.22,-0.261l-0.219,-0.263l-0.218,-0.264l-0.217,-0.266l-0.216,-0.267l-0.214,-0.267l-0.214,-0.269l-0.212,-0.27l-0.212,-0.272l-0.21,-0.272l-0.209,-0.273l-0.208,-0.275l-0.208,-0.276l-0.205,-0.277l-0.205,-0.278l-0.204,-0.28l-0.202,-0.28l-0.201,-0.281l-0.2,-0.284l-0.199,-0.284l-0.197,-0.284l-0.197,-0.287l-0.194,-0.287l-0.194,-0.288l-0.193,-0.29l-0.191,-0.291l-0.19,-0.291l-0.189,-0.294l-0.188,-0.294l-0.186,-0.295l-0.185,-0.296l-0.183,-0.298l-0.182,-0.298l-0.181,-0.299l-0.179,-0.301l-0.178,-0.302l-0.032,-0.055l-0.073,0.123l-0.183,0.301l-0.184,0.3l-0.185,0.299l-0.188,0.299l-0.188,0.297l-0.189,0.295l-0.191,0.295l-0.192,0.293l-0.194,0.292l-0.195,0.292l-0.195,0.289l-0.198,0.289l-0.199,0.288l-0.2,0.286l-0.201,0.285l-0.202,0.283l-0.203,0.283l-0.206,0.283l-0.206,0.28l-0.206,0.279l-0.209,0.278l-0.21,0.277l-0.211,0.276l-0.211,0.274l-0.213,0.273l-0.214,0.273l-0.215,0.271l-0.216,0.269l-0.217,0.269l-0.219,0.268l-0.219,0.266l-0.22,0.264l-0.222,0.264l-0.222,0.262l-0.224,0.262l-0.224,0.26l-0.226,0.259l-0.226,0.257l-0.228,0.257l-0.228,0.255l-0.23,0.254l-0.23,0.253l-0.231,0.251l-0.232,0.25l-0.233,0.249l-0.234,0.248l-0.234,0.246l-0.236,0.246l-0.237,0.244l-0.237,0.243l-0.238,0.241l-0.24,0.241l-0.239,0.239l-0.241,0.237l-0.242,0.237l-0.242,0.236l-0.242,0.233l-0.244,0.233l-0.246,0.232l-0.244,0.23l-0.246,0.229l-0.248,0.228l-0.247,0.227l-0.248,0.225l-0.249,0.224l-0.25,0.222l-0.25,0.222l-0.252,0.22l-0.251,0.218l-0.252,0.218l-0.254,0.216l-0.253,0.215l-0.254,0.214l-0.255,0.212l-0.256,0.211l-0.256,0.21l-0.256,0.208l-0.258,0.208l-0.258,0.205l-0.258,0.204l-0.26,0.204l-0.259,0.202l-0.26,0.2l-0.261,0.199l-0.261,0.198l-0.262,0.197l-0.262,0.195l-0.262,0.194l-0.264,0.192l-0.263,0.192l-0.265,0.19l-0.263,0.187l-0.266,0.188l-0.266,0.186l-0.265,0.184l-0.267,0.183l-0.267,0.182l-0.268,0.181l-0.267,0.179l-0.268,0.177l-0.268,0.176l-0.269,0.175l-0.269,0.174l-0.27,0.172l-0.271,0.171l-0.269,0.169l-0.271,0.167l-0.272,0.168l-0.271,0.164l-0.271,0.164l-0.273,0.163l-0.272,0.16l-0.273,0.16l-0.272,0.158l-0.273,0.156l-0.274,0.156l-0.274,0.153l-0.274,0.153l-0.275,0.151l-0.274,0.149l-0.275,0.148l-0.275,0.146l-0.275,0.146l-0.276,0.144l-0.276,0.142l-0.276,0.141l-0.276,0.138l-0.277,0.138l-0.277,0.137l-0.276,0.134l-0.277,0.133l-0.279,0.133l-0.277,0.13l-0.277,0.129l-0.278,0.127l-0.277,0.125l-0.28,0.125l-0.278,0.123l-0.278,0.121l-0.279,0.119l-0.278,0.119l-0.28,0.116l-0.279,0.115l-0.279,0.114l-0.28,0.112l-0.279,0.11l-0.279,0.108l-0.28,0.108l-0.281,0.106l-0.278,0.103l-0.28,0.102l-0.282,0.102l-0.28,0.099l-0.28,0.097l-0.279,0.096l-0.282,0.094l-0.28,0.093l-0.28,0.091l-0.282,0.089l-0.28,0.087l-0.281,0.086l-0.281,0.085l-0.281,0.082l-0.282,0.081l-0.281,0.079l-0.281,0.078l-0.281,0.075l-0.281,0.074l-0.282,0.072l-0.282,0.071l-0.282,0.069l-0.281,0.066l-0.281,0.065l-0.282,0.063l-0.282,0.062l-0.282,0.06l-0.282,0.057l-0.281,0.056l-0.282,0.054l-0.284,0.052l-0.281,0.051l-0.282,0.048l-0.282,0.046l-0.282,0.045l-0.283,0.042l-0.282,0.041l-0.282,0.038l-0.281,0.037l-0.284,0.034l-0.282,0.033l-0.283,0.03l-0.283,0.029l-0.282,0.026l-0.282,0.024l-0.284,0.022l-0.282,0.02l-0.281,0.018l-0.285,0.015l-0.283,0.014l-0.281,0.011l-0.284,0.008l-0.282,0.007l-0.282,0.004l-0.267,0.002l-0.264,0l-0.283,-0.001l-0.283,-0.004l-0.285,-0.007l-0.284,-0.009l-0.282,-0.011l-0.284,-0.013l-0.284,-0.016l-0.283,-0.018l-0.283,-0.02l-0.284,-0.022l-0.283,-0.025l-0.282,-0.026l-0.284,-0.029l-0.282,-0.031l-0.284,-0.033l-0.284,-0.035l-0.282,-0.037l-0.283,-0.039l-0.282,-0.041l-0.284,-0.043l-0.282,-0.045l-0.283,-0.047l-0.282,-0.049l-0.282,-0.051l-0.284,-0.053l-0.282,-0.055l-0.281,-0.056l-0.283,-0.059l-0.283,-0.061l-0.282,-0.062l-0.281,-0.064l-0.282,-0.066l-0.283,-0.068l-0.282,-0.069l-0.281,-0.071l-0.282,-0.074l-0.282,-0.074l-0.281,-0.077l-0.282,-0.078l-0.281,-0.081l-0.282,-0.082l-0.281,-0.083l-0.282,-0.086l-0.28,-0.086l-0.281,-0.089l-0.281,-0.091l-0.281,-0.092l-0.281,-0.094l-0.28,-0.095l-0.28,-0.097l-0.282,-0.099l-0.281,-0.1l-0.279,-0.102l-0.281,-0.104l-0.28,-0.105l-0.279,-0.106l-0.281,-0.109l-0.279,-0.11l-0.279,-0.112l-0.28,-0.113l-0.279,-0.115l-0.28,-0.116l-0.279,-0.118l-0.279,-0.119l-0.278,-0.121l-0.279,-0.123l-0.279,-0.124l-0.277,-0.126l-0.279,-0.127l-0.278,-0.129l-0.277,-0.13l-0.277,-0.132l-0.278,-0.133l-0.278,-0.135l-0.277,-0.136l-0.276,-0.138l-0.277,-0.139l-0.275,-0.141l-0.276,-0.142l-0.277,-0.144l-0.275,-0.145l-0.276,-0.147l-0.275,-0.148l-0.274,-0.149l-0.275,-0.151l-0.275,-0.153l-0.273,-0.154l-0.274,-0.155l-0.274,-0.157l-0.273,-0.158l-0.273,-0.16l-0.272,-0.161l-0.273,-0.162l-0.272,-0.165l-0.271,-0.165l-0.272,-0.166l-0.27,-0.169l-0.271,-0.169l-0.271,-0.172l-0.269,-0.171l-0.269,-0.174l-0.27,-0.176l-0.269,-0.176l-0.269,-0.178l-0.267,-0.179l-0.267,-0.181l-0.268,-0.182l-0.266,-0.183l-0.266,-0.185l-0.266,-0.186l-0.266,-0.188l-0.265,-0.189l-0.264,-0.19l-0.264,-0.192l-0.264,-0.193l-0.263,-0.194l-0.262,-0.195l-0.262,-0.197l-0.262,-0.199l-0.261,-0.2l-0.26,-0.2l-0.26,-0.203l-0.259,-0.203l-0.259,-0.205l-0.258,-0.207l-0.257,-0.207l-0.258,-0.209l-0.256,-0.21l-0.256,-0.211l-0.256,-0.213l-0.254,-0.215l-0.254,-0.215l-0.253,-0.216l-0.253,-0.219l-0.252,-0.219l-0.251,-0.22l-0.251,-0.222l-0.25,-0.223l-0.249,-0.225l-0.249,-0.226l-0.248,-0.226l-0.247,-0.229l-0.246,-0.229l-0.246,-0.231l-0.245,-0.232l-0.244,-0.233l-0.244,-0.235l-0.242,-0.236l-0.242,-0.237l-0.241,-0.238l-0.241,-0.24l-0.239,-0.241l-0.238,-0.242l-0.238,-0.243l-0.237,-0.245l-0.236,-0.245l-0.235,-0.248l-0.235,-0.248l-0.233,-0.25l-0.232,-0.25l-0.232,-0.252l-0.231,-0.254l-0.229,-0.254l-0.229,-0.256l-0.228,-0.257l-0.227,-0.258l-0.226,-0.26l-0.224,-0.26l-0.224,-0.262l-0.223,-0.263l-0.222,-0.264l-0.221,-0.266l-0.22,-0.266l-0.218,-0.268l-0.218,-0.269l-0.217,-0.27l-0.215,-0.272l-0.214,-0.272l-0.213,-0.274l-0.213,-0.275l-0.211,-0.276l-0.21,-0.278l-0.209,-0.279l-0.207,-0.279l-0.206,-0.281l-0.206,-0.283l-0.203,-0.282l-0.203,-0.285l-0.202,-0.286l-0.2,-0.287l-0.199,-0.287l-0.198,-0.29l-0.196,-0.29l-0.195,-0.292l-0.194,-0.292l-0.193,-0.294l-0.191,-0.295l-0.19,-0.296l-0.189,-0.297l-0.187,-0.299l-0.186,-0.3l-0.184,-0.3l-0.183,-0.302l-0.181,-0.303l-0.023,0.038l-0.184,0.303l-0.186,0.301l-0.187,0.301l-0.188,0.299l-0.19,0.298l-0.192,0.298l-0.192,0.295l-0.194,0.295l-0.195,0.293l-0.197,0.293l-0.198,0.291l-0.198,0.289l-0.201,0.289l-0.202,0.287l-0.203,0.287l-0.204,0.285l-0.205,0.284l-0.207,0.282l-0.208,0.282l-0.209,0.281l-0.21,0.279l-0.211,0.277l-0.213,0.277l-0.214,0.276l-0.215,0.274l-0.215,0.273l-0.217,0.272l-0.218,0.271l-0.22,0.269l-0.22,0.268l-0.221,0.267l-0.222,0.266l-0.224,0.265l-0.224,0.263l-0.226,0.262l-0.226,0.261l-0.228,0.26l-0.228,0.258l-0.229,0.257l-0.231,0.257l-0.23,0.254l-0.232,0.253l-0.234,0.253l-0.233,0.251l-0.235,0.249l-0.236,0.25l-0.237,0.246l-0.237,0.246l-0.238,0.245l-0.239,0.244l-0.24,0.242l-0.241,0.241l-0.242,0.24l-0.243,0.239l-0.242,0.237l-0.244,0.235l-0.245,0.235l-0.245,0.234l-0.247,0.232l-0.246,0.231l-0.248,0.23l-0.248,0.228l-0.249,0.227l-0.25,0.226l-0.25,0.224l-0.251,0.224l-0.252,0.222l-0.252,0.22l-0.253,0.22l-0.254,0.218l-0.254,0.217l-0.255,0.215l-0.255,0.215l-0.256,0.213l-0.257,0.212l-0.257,0.21l-0.258,0.209l-0.258,0.208l-0.259,0.206l-0.259,0.205l-0.26,0.204l-0.26,0.202l-0.261,0.202l-0.262,0.2l-0.262,0.198l-0.262,0.197l-0.263,0.196l-0.263,0.195l-0.264,0.193l-0.264,0.192l-0.265,0.19l-0.264,0.189l-0.266,0.188l-0.266,0.187l-0.266,0.185l-0.266,0.183l-0.267,0.183l-0.268,0.181l-0.268,0.18l-0.267,0.178l-0.269,0.177l-0.269,0.176l-0.269,0.174l-0.269,0.173l-0.27,0.171l-0.27,0.17l-0.27,0.169l-0.27,0.167l-0.272,0.167l-0.271,0.164l-0.27,0.163l-0.273,0.162l-0.272,0.16l-0.271,0.158l-0.273,0.158l-0.273,0.156l-0.272,0.155l-0.273,0.153l-0.274,0.152l-0.273,0.15l-0.273,0.149l-0.274,0.148l-0.274,0.146l-0.274,0.144l-0.275,0.144l-0.274,0.141l-0.275,0.141l-0.274,0.138l-0.275,0.138l-0.276,0.136l-0.274,0.133l-0.275,0.133l-0.277,0.132l-0.274,0.13l-0.276,0.128l-0.276,0.127l-0.276,0.126l-0.276,0.124l-0.276,0.122l-0.276,0.121l-0.275,0.119l-0.277,0.118l-0.277,0.116l-0.276,0.115l-0.276,0.113l-0.276,0.112l-0.277,0.11l-0.276,0.108l-0.277,0.107l-0.277,0.106l-0.276,0.104l-0.277,0.102l-0.277,0.101l-0.276,0.098l-0.277,0.098l-0.277,0.096l-0.277,0.094l-0.277,0.093l-0.276,0.09l-0.277,0.09l-0.277,0.087l-0.276,0.086l-0.278,0.085l-0.277,0.082l-0.277,0.081l-0.275,0.079l-0.278,0.078l-0.277,0.076l-0.278,0.074l-0.277,0.072l-0.276,0.071l-0.276,0.068l-0.278,0.068l-0.276,0.065l-0.277,0.063l-0.277,0.062l-0.277,0.06l-0.277,0.058l-0.277,0.056l-0.278,0.055l-0.276,0.052l-0.277,0.051l-0.277,0.048l-0.276,0.047l-0.277,0.045l-0.277,0.043l-0.278,0.041l-0.277,0.039l-0.276,0.037l-0.278,0.035l-0.276,0.032l-0.279,0.031l-0.277,0.029l-0.276,0.026l-0.277,0.025l-0.278,0.022l-0.278,0.021l-0.276,0.018l-0.278,0.015l-0.278,0.014l-0.277,0.011l-0.279,0.009l-0.277,0.007l-0.277,0.004l-0.269,0.002l-0.095,0l-0.22,-0.003l-0.281,-0.011l-0.277,-0.017l-0.27,-0.024l-0.28,-0.032l-0.274,-0.038l-0.275,-0.046l-0.275,-0.053l-0.263,-0.057l-0.263,-0.064l-0.27,-0.073l-0.262,-0.078l-0.256,-0.083l-0.257,-0.091l-0.248,-0.094l-0.249,-0.102l-0.254,-0.111l-0.239,-0.112l-0.241,-0.119l-0.238,-0.126l-0.229,-0.128l-0.23,-0.136l-0.223,-0.139l-0.22,-0.145l-0.217,-0.15l-0.217,-0.158l-0.21,-0.161l-0.201,-0.163l-0.2,-0.169l-0.202,-0.179l-0.189,-0.176l-0.185,-0.181l-0.185,-0.189l-0.18,-0.193l-0.175,-0.198l-0.169,-0.2l-0.164,-0.204l-0.162,-0.21l-0.155,-0.212l-0.149,-0.216l-0.146,-0.222l-0.14,-0.224l-0.136,-0.23l-0.13,-0.232l-0.124,-0.235l-0.119,-0.241l-0.113,-0.242l-0.109,-0.248l-0.102,-0.25l-0.096,-0.251l-0.09,-0.258l-0.083,-0.255l-0.078,-0.262l-0.073,-0.268l-0.064,-0.264l-0.059,-0.269l-0.051,-0.27l-0.045,-0.27l-0.039,-0.277l-0.032,-0.277l-0.024,-0.278l-0.018,-0.276l-0.01,-0.278l-0.003,-0.22l0,-251.07l0.001,-0.536l0.002,-0.544l0.005,-0.543l0.006,-0.543l0.008,-0.543l0.009,-0.542l0.011,-0.542l0.013,-0.541l0.015,-0.541l0.016,-0.541l0.018,-0.54l0.02,-0.539l0.021,-0.54l0.023,-0.539l0.025,-0.539l0.026,-0.537l0.028,-0.538l0.03,-0.538l0.032,-0.536l0.033,-0.537l0.035,-0.536l0.036,-0.535l0.039,-0.535l0.039,-0.535l0.042,-0.534l0.043,-0.534l0.045,-0.533l0.047,-0.533l0.048,-0.532l0.05,-0.532l0.051,-0.531l0.053,-0.531l0.055,-0.531l0.057,-0.53l0.058,-0.529l0.059,-0.529l0.062,-0.529l0.063,-0.528l0.064,-0.527l0.066,-0.527l0.068,-0.527l0.07,-0.526l0.071,-0.526l0.073,-0.525l0.074,-0.525l0.076,-0.524l0.078,-0.523l0.079,-0.523l0.081,-0.523l0.082,-0.522l0.084,-0.521l0.085,-0.521l0.088,-0.521l0.088,-0.52l0.091,-0.519l0.092,-0.519l0.093,-0.518l0.095,-0.518l0.097,-0.517l0.098,-0.517l0.1,-0.516l0.102,-0.515l0.103,-0.515l0.104,-0.515l0.106,-0.513l0.108,-0.514l0.109,-0.513l0.111,-0.512l0.112,-0.511l0.114,-0.511l0.116,-0.511l0.117,-0.51l0.118,-0.509l0.12,-0.509l0.122,-0.508l0.123,-0.507l0.124,-0.507l0.127,-0.507l0.127,-0.505l0.13,-0.505l0.13,-0.505l0.133,-0.504l0.133,-0.503l0.136,-0.503l0.137,-0.502l0.138,-0.501l0.14,-0.501l0.141,-0.5l0.143,-0.5l0.144,-0.498l0.146,-0.499l0.148,-0.498l0.148,-0.497l0.151,-0.496l0.152,-0.496l0.153,-0.495l0.155,-0.494l0.156,-0.494l0.158,-0.493l0.159,-0.493l0.16,-0.491l0.163,-0.492l0.163,-0.49l0.165,-0.49l0.167,-0.489l0.168,-0.488l0.169,-0.488l0.171,-0.487l0.172,-0.487l0.174,-0.485l0.175,-0.485l0.177,-0.485l0.178,-0.484l0.179,-0.482l0.181,-0.483l0.183,-0.481l0.184,-0.481l0.185,-0.48l0.186,-0.48l0.189,-0.478l0.189,-0.478l0.191,-0.478l0.192,-0.476l0.194,-0.476l0.195,-0.475l0.197,-0.475l0.197,-0.473l0.2,-0.473l0.201,-0.473l0.202,-0.471l0.203,-0.47l0.205,-0.471l0.206,-0.469l0.208,-0.468l0.209,-0.468l0.21,-0.467l0.212,-0.466l0.213,-0.466l0.215,-0.465l0.216,-0.463l0.217,-0.463l0.219,-0.463l0.22,-0.462l0.221,-0.46l0.223,-0.46l0.224,-0.46l0.225,-0.458l0.227,-0.458l0.228,-0.457l0.229,-0.456l0.231,-0.456l0.232,-0.454l0.234,-0.454l0.234,-0.453l0.236,-0.452l0.238,-0.451l0.239,-0.451l0.24,-0.45l0.241,-0.449l0.243,-0.447l0.244,-0.448l0.245,-0.446l0.246,-0.446l0.248,-0.445l0.25,-0.444l0.25,-0.443l0.252,-0.442l0.253,-0.442l0.254,-0.44l0.256,-0.44l0.257,-0.439l0.258,-0.438l0.26,-0.437l0.261,-0.437l0.262,-0.435l0.263,-0.435l0.265,-0.434l0.265,-0.433l0.268,-0.432l0.268,-0.431l0.27,-0.43l0.271,-0.43l0.272,-0.429l0.273,-0.427l0.275,-0.427l0.276,-0.426l0.277,-0.425l0.278,-0.424l0.28,-0.424l0.281,-0.422l0.282,-0.422l0.283,-0.42l0.285,-0.42l0.286,-0.419l0.287,-0.418l0.288,-0.417l0.289,-0.416l0.291,-0.415l0.292,-0.414l0.293,-0.413l0.294,-0.413l0.296,-0.411l0.297,-0.411l0.298,-0.41l0.299,-0.408l0.3,-0.408l0.301,-0.407l0.303,-0.406l0.304,-0.405l0.305,-0.403l0.306,-0.404l0.307,-0.402l0.309,-0.401l0.31,-0.4l0.311,-0.399l0.312,-0.399l0.313,-0.397l0.315,-0.396l0.315,-0.396l0.317,-0.394l0.318,-0.394l0.319,-0.392l0.32,-0.391l0.321,-0.391l0.323,-0.389l0.324,-0.389l0.324,-0.388l0.326,-0.386l0.327,-0.386l0.329,-0.384l0.329,-0.384l0.33,-0.382l0.332,-0.382l0.333,-0.381l0.333,-0.379l0.335,-0.379l0.336,-0.377l0.338,-0.377l0.338,-0.375l0.339,-0.375l0.341,-0.373l0.341,-0.373l0.343,-0.371l0.344,-0.37l0.345,-0.37l0.346,-0.368l0.347,-0.367l0.348,-0.367l0.349,-0.365l0.35,-0.364l0.352,-0.363l0.352,-0.362l0.354,-0.361l0.354,-0.36l0.356,-0.359l0.357,-0.357l0.357,-0.357l0.359,-0.356l0.36,-0.355l0.361,-0.353l0.362,-0.352l0.363,-0.352l0.365,-0.35l0.365,-0.349l0.366,-0.349l0.367,-0.347l0.369,-0.346l0.369,-0.345l0.37,-0.343l0.372,-0.343l0.372,-0.342l0.374,-0.34l0.374,-0.339l0.375,-0.339l0.377,-0.337l0.378,-0.336l0.378,-0.335l0.38,-0.334l0.38,-0.332l0.382,-0.332l0.382,-0.33l0.384,-0.33l0.384,-0.328l0.386,-0.327l0.387,-0.326l0.387,-0.325l0.389,-0.323l0.389,-0.323l0.391,-0.321l0.391,-0.32l0.393,-0.319l0.393,-0.318l0.395,-0.317l0.395,-0.316l0.396,-0.314l0.398,-0.313l0.398,-0.312l0.399,-0.311l0.4,-0.31l0.402,-0.309l0.402,-0.307l0.403,-0.306l0.404,-0.305l0.405,-0.304l0.406,-0.303l0.406,-0.301l0.408,-0.301l0.409,-0.299l0.41,-0.298l0.41,-0.296l0.411,-0.296l0.413,-0.294l0.413,-0.293l0.415,-0.292l0.415,-0.291l0.416,-0.289l0.417,-0.289l0.418,-0.287l0.418,-0.285l0.42,-0.285l0.421,-0.283l0.421,-0.282l0.423,-0.281l0.423,-0.28l0.424,-0.278l0.425,-0.277l0.426,-0.276l0.427,-0.275l0.428,-0.273l0.428,-0.273l0.43,-0.271l0.43,-0.269l0.431,-0.269l0.433,-0.267l0.432,-0.266l0.434,-0.264l0.435,-0.264l0.436,-0.262l0.436,-0.26l0.437,-0.26l0.438,-0.258l0.439,-0.257l0.44,-0.256l0.441,-0.254l0.441,-0.253l0.442,-0.252l0.444,-0.251l0.443,-0.249l0.445,-0.248l0.446,-0.246l0.446,-0.246l0.448,-0.244l0.448,-0.242l0.449,-0.242l0.45,-0.24l0.45,-0.238l0.451,-0.238l0.452,-0.236l0.453,-0.235l0.454,-0.233l0.455,-0.232l0.455,-0.231l0.456,-0.229l0.457,-0.228l0.458,-0.227l0.458,-0.225l0.46,-0.225l0.46,-0.222l0.461,-0.221l0.461,-0.22l0.463,-0.219l0.463,-0.217l0.464,-0.216l0.464,-0.215l0.466,-0.213l0.466,-0.212l0.467,-0.21l0.468,-0.209l0.468,-0.208l0.469,-0.206l0.471,-0.205l0.47,-0.204l0.472,-0.202l0.472,-0.2l0.473,-0.2l0.473,-0.198l0.475,-0.196l0.475,-0.195l0.476,-0.194l0.476,-0.192l0.478,-0.191l0.478,-0.19l0.479,-0.188l0.479,-0.186l0.48,-0.186l0.481,-0.183l0.482,-0.183l0.482,-0.181l0.483,-0.179l0.483,-0.178l0.485,-0.177l0.485,-0.175l0.486,-0.174l0.486,-0.172l0.487,-0.171l0.488,-0.17l0.488,-0.168l0.489,-0.166l0.49,-0.165l0.491,-0.164l0.491,-0.162l0.492,-0.16l0.492,-0.16l0.493,-0.157l0.494,-0.157l0.495,-0.154l0.495,-0.154l0.495,-0.151l0.496,-0.151l0.498,-0.149l0.497,-0.147l0.499,-0.146l0.498,-0.144l0.5,-0.143l0.5,-0.141l0.501,-0.14l0.501,-0.138l0.502,-0.137l0.503,-0.136l0.503,-0.133l0.504,-0.133l0.505,-0.13l0.505,-0.13l0.506,-0.127l0.506,-0.127l0.507,-0.124l0.507,-0.123l0.508,-0.122l0.509,-0.12l0.509,-0.119l0.51,-0.117l0.511,-0.115l0.511,-0.114l0.511,-0.112l0.512,-0.111l0.513,-0.109l0.514,-0.108l0.513,-0.106l0.515,-0.105l0.515,-0.103l0.515,-0.101l0.516,-0.1l0.517,-0.098l0.517,-0.097l0.518,-0.095l0.518,-0.093l0.519,-0.092l0.52,-0.091l0.519,-0.088l0.521,-0.088l0.521,-0.085l0.521,-0.084l0.522,-0.083l0.523,-0.08l0.523,-0.079l0.523,-0.078l0.525,-0.076l0.524,-0.074l0.525,-0.073l0.526,-0.071l0.526,-0.07l0.527,-0.068l0.527,-0.066l0.527,-0.064l0.528,-0.063l0.529,-0.062l0.529,-0.059l0.529,-0.059l0.53,-0.056l0.531,-0.055l0.531,-0.053l0.531,-0.051l0.532,-0.05l0.532,-0.048l0.533,-0.047l0.533,-0.045l0.534,-0.043l0.534,-0.042l0.535,-0.039l0.535,-0.039l0.536,-0.036l0.535,-0.035l0.537,-0.033l0.537,-0.032l0.537,-0.03l0.537,-0.028l0.539,-0.026l0.538,-0.025l0.539,-0.023l0.539,-0.021l0.54,-0.02l0.54,-0.018l0.541,-0.016l0.541,-0.015l0.541,-0.013l0.542,-0.011l0.542,-0.009l0.543,-0.008l0.543,-0.006l0.543,-0.005l0.544,-0.002l0.544,-0.001l0.544,0.001Zm-1.058,9.5l-0.514,0.002l-0.513,0.004l-0.513,0.006l-0.512,0.007l-0.512,0.009l-0.512,0.011l-0.511,0.012l-0.511,0.014l-0.511,0.015l-0.51,0.017l-0.509,0.019l-0.51,0.02l-0.508,0.022l-0.509,0.023l-0.508,0.025l-0.508,0.027l-0.507,0.028l-0.507,0.03l-0.506,0.031l-0.506,0.033l-0.505,0.034l-0.505,0.036l-0.505,0.038l-0.504,0.039l-0.504,0.041l-0.503,0.042l-0.503,0.044l-0.503,0.046l-0.502,0.047l-0.501,0.048l-0.501,0.051l-0.501,0.051l-0.5,0.054l-0.5,0.054l-0.499,0.057l-0.499,0.058l-0.498,0.059l-0.498,0.061l-0.497,0.062l-0.497,0.064l-0.496,0.066l-0.496,0.067l-0.496,0.069l-0.495,0.07l-0.494,0.072l-0.494,0.073l-0.494,0.074l-0.492,0.077l-0.493,0.077l-0.492,0.08l-0.491,0.08l-0.491,0.083l-0.491,0.083l-0.49,0.086l-0.489,0.086l-0.489,0.089l-0.489,0.089l-0.488,0.091l-0.487,0.093l-0.487,0.094l-0.486,0.096l-0.486,0.097l-0.485,0.099l-0.485,0.1l-0.484,0.101l-0.484,0.103l-0.483,0.105l-0.482,0.106l-0.482,0.107l-0.482,0.109l-0.481,0.11l-0.48,0.112l-0.48,0.114l-0.479,0.114l-0.479,0.116l-0.478,0.118l-0.477,0.119l-0.477,0.12l-0.477,0.122l-0.476,0.124l-0.475,0.124l-0.475,0.127l-0.474,0.127l-0.473,0.129l-0.473,0.131l-0.473,0.132l-0.471,0.133l-0.471,0.135l-0.471,0.136l-0.47,0.137l-0.469,0.139l-0.469,0.141l-0.468,0.142l-0.468,0.143l-0.467,0.144l-0.466,0.146l-0.466,0.148l-0.465,0.148l-0.464,0.151l-0.464,0.151l-0.464,0.153l-0.462,0.154l-0.462,0.156l-0.461,0.157l-0.461,0.158l-0.46,0.16l-0.46,0.161l-0.458,0.163l-0.459,0.164l-0.457,0.165l-0.457,0.167l-0.456,0.168l-0.456,0.169l-0.454,0.171l-0.455,0.172l-0.453,0.173l-0.453,0.175l-0.452,0.176l-0.452,0.177l-0.451,0.179l-0.45,0.18l-0.45,0.181l-0.448,0.183l-0.449,0.184l-0.447,0.186l-0.447,0.186l-0.446,0.188l-0.445,0.19l-0.445,0.19l-0.444,0.192l-0.444,0.193l-0.442,0.195l-0.442,0.196l-0.441,0.197l-0.441,0.199l-0.44,0.199l-0.439,0.202l-0.438,0.202l-0.438,0.204l-0.437,0.205l-0.436,0.206l-0.436,0.207l-0.434,0.209l-0.434,0.21l-0.434,0.212l-0.432,0.212l-0.432,0.214l-0.431,0.215l-0.431,0.217l-0.429,0.217l-0.429,0.219l-0.428,0.221l-0.427,0.221l-0.427,0.223l-0.426,0.224l-0.425,0.225l-0.424,0.227l-0.424,0.227l-0.423,0.229l-0.422,0.23l-0.421,0.232l-0.42,0.233l-0.42,0.233l-0.419,0.236l-0.418,0.236l-0.418,0.238l-0.416,0.238l-0.416,0.24l-0.415,0.242l-0.414,0.242l-0.413,0.244l-0.413,0.245l-0.412,0.246l-0.411,0.247l-0.41,0.249l-0.409,0.249l-0.409,0.251l-0.408,0.252l-0.407,0.254l-0.406,0.254l-0.405,0.256l-0.405,0.257l-0.403,0.258l-0.403,0.259l-0.402,0.26l-0.401,0.262l-0.401,0.262l-0.399,0.264l-0.399,0.265l-0.397,0.267l-0.397,0.267l-0.397,0.269l-0.395,0.269l-0.394,0.271l-0.394,0.272l-0.392,0.274l-0.392,0.274l-0.391,0.275l-0.39,0.277l-0.39,0.278l-0.388,0.279l-0.387,0.28l-0.387,0.281l-0.386,0.282l-0.385,0.284l-0.384,0.284l-0.383,0.286l-0.382,0.287l-0.381,0.288l-0.381,0.289l-0.379,0.29l-0.379,0.291l-0.378,0.292l-0.377,0.294l-0.376,0.295l-0.375,0.295l-0.374,0.297l-0.373,0.298l-0.372,0.299l-0.372,0.3l-0.37,0.301l-0.37,0.302l-0.368,0.304l-0.368,0.304l-0.367,0.306l-0.365,0.306l-0.365,0.308l-0.364,0.309l-0.363,0.309l-0.362,0.311l-0.362,0.312l-0.36,0.313l-0.359,0.314l-0.358,0.315l-0.358,0.317l-0.356,0.317l-0.356,0.318l-0.354,0.319l-0.354,0.321l-0.352,0.321l-0.352,0.323l-0.35,0.323l-0.35,0.325l-0.349,0.325l-0.347,0.327l-0.347,0.327l-0.346,0.329l-0.344,0.33l-0.344,0.33l-0.343,0.332l-0.342,0.333l-0.34,0.334l-0.34,0.334l-0.339,0.336l-0.338,0.337l-0.337,0.338l-0.335,0.339l-0.335,0.339l-0.334,0.341l-0.333,0.342l-0.331,0.343l-0.331,0.343l-0.33,0.345l-0.328,0.346l-0.328,0.347l-0.326,0.347l-0.326,0.349l-0.325,0.349l-0.323,0.351l-0.323,0.352l-0.321,0.352l-0.32,0.354l-0.32,0.354l-0.318,0.356l-0.317,0.356l-0.316,0.357l-0.315,0.359l-0.314,0.359l-0.313,0.36l-0.312,0.361l-0.311,0.362l-0.31,0.363l-0.309,0.364l-0.307,0.365l-0.307,0.366l-0.306,0.367l-0.304,0.368l-0.303,0.368l-0.303,0.37l-0.301,0.37l-0.3,0.372l-0.299,0.372l-0.298,0.373l-0.297,0.374l-0.295,0.375l-0.295,0.376l-0.293,0.377l-0.293,0.378l-0.291,0.378l-0.29,0.38l-0.289,0.38l-0.288,0.382l-0.287,0.382l-0.286,0.383l-0.284,0.384l-0.284,0.385l-0.282,0.386l-0.281,0.386l-0.28,0.388l-0.279,0.388l-0.278,0.389l-0.276,0.39l-0.276,0.391l-0.274,0.392l-0.273,0.393l-0.272,0.394l-0.271,0.394l-0.27,0.395l-0.269,0.396l-0.267,0.397l-0.266,0.398l-0.265,0.399l-0.264,0.399l-0.263,0.401l-0.262,0.401l-0.26,0.402l-0.259,0.403l-0.258,0.403l-0.257,0.405l-0.256,0.405l-0.254,0.406l-0.254,0.407l-0.252,0.408l-0.251,0.408l-0.249,0.41l-0.249,0.41l-0.247,0.411l-0.246,0.412l-0.245,0.412l-0.244,0.414l-0.242,0.414l-0.241,0.415l-0.24,0.416l-0.239,0.416l-0.238,0.418l-0.236,0.418l-0.235,0.419l-0.234,0.419l-0.233,0.421l-0.231,0.421l-0.231,0.422l-0.229,0.423l-0.227,0.423l-0.227,0.425l-0.225,0.425l-0.224,0.426l-0.223,0.426l-0.221,0.428l-0.22,0.428l-0.219,0.429l-0.218,0.429l-0.217,0.431l-0.215,0.431l-0.214,0.432l-0.212,0.432l-0.212,0.433l-0.21,0.434l-0.209,0.435l-0.207,0.436l-0.206,0.436l-0.205,0.437l-0.204,0.438l-0.202,0.438l-0.201,0.439l-0.2,0.44l-0.199,0.44l-0.197,0.442l-0.196,0.442l-0.194,0.442l-0.194,0.444l-0.192,0.444l-0.19,0.444l-0.19,0.446l-0.188,0.446l-0.186,0.447l-0.186,0.447l-0.184,0.448l-0.182,0.449l-0.182,0.45l-0.18,0.45l-0.179,0.451l-0.177,0.451l-0.176,0.453l-0.175,0.453l-0.173,0.453l-0.172,0.454l-0.171,0.455l-0.169,0.456l-0.168,0.456l-0.167,0.457l-0.165,0.457l-0.164,0.458l-0.162,0.459l-0.162,0.46l-0.159,0.46l-0.159,0.46l-0.157,0.462l-0.156,0.462l-0.154,0.462l-0.153,0.464l-0.151,0.463l-0.15,0.465l-0.149,0.465l-0.148,0.466l-0.146,0.466l-0.144,0.467l-0.143,0.467l-0.142,0.469l-0.14,0.468l-0.139,0.47l-0.138,0.47l-0.136,0.47l-0.135,0.471l-0.133,0.472l-0.132,0.473l-0.131,0.473l-0.129,0.473l-0.127,0.474l-0.126,0.475l-0.125,0.475l-0.124,0.476l-0.121,0.476l-0.121,0.477l-0.119,0.478l-0.118,0.478l-0.116,0.479l-0.114,0.479l-0.114,0.48l-0.111,0.48l-0.111,0.481l-0.109,0.482l-0.107,0.482l-0.106,0.482l-0.105,0.483l-0.103,0.484l-0.101,0.484l-0.1,0.485l-0.099,0.485l-0.097,0.486l-0.096,0.486l-0.094,0.487l-0.092,0.487l-0.092,0.488l-0.089,0.489l-0.089,0.489l-0.086,0.489l-0.086,0.49l-0.083,0.49l-0.083,0.491l-0.08,0.492l-0.08,0.492l-0.077,0.492l-0.076,0.493l-0.075,0.494l-0.073,0.494l-0.072,0.494l-0.07,0.495l-0.069,0.496l-0.067,0.496l-0.065,0.496l-0.064,0.497l-0.063,0.497l-0.061,0.498l-0.059,0.498l-0.058,0.499l-0.057,0.499l-0.054,0.5l-0.054,0.5l-0.051,0.501l-0.051,0.501l-0.048,0.501l-0.047,0.502l-0.046,0.503l-0.044,0.503l-0.042,0.503l-0.041,0.504l-0.039,0.504l-0.038,0.505l-0.036,0.505l-0.034,0.505l-0.033,0.506l-0.031,0.506l-0.03,0.507l-0.028,0.507l-0.027,0.508l-0.025,0.508l-0.023,0.509l-0.022,0.508l-0.02,0.51l-0.019,0.509l-0.017,0.51l-0.015,0.511l-0.014,0.511l-0.012,0.511l-0.011,0.512l-0.009,0.512l-0.007,0.512l-0.006,0.513l-0.004,0.513l-0.002,0.514l-0.001,0.514l0,251.002l0,0.039l0.002,0.038l0.002,0.038l0.004,0.038l0.004,0.038l0.005,0.037l0.006,0.037l0.007,0.037l0.008,0.036l0.009,0.036l0.01,0.036l0.01,0.035l0.012,0.035l0.012,0.035l0.013,0.034l0.014,0.034l0.014,0.033l0.016,0.033l0.016,0.033l0.017,0.032l0.017,0.032l0.019,0.031l0.019,0.03l0.02,0.031l0.02,0.029l0.022,0.029l0.021,0.029l0.023,0.028l0.023,0.027l0.024,0.027l0.025,0.027l0.025,0.025l0.025,0.025l0.027,0.025l0.027,0.024l0.027,0.023l0.028,0.022l0.029,0.022l0.029,0.022l0.029,0.02l0.031,0.02l0.03,0.019l0.031,0.019l0.032,0.017l0.032,0.017l0.033,0.016l0.032,0.016l0.034,0.014l0.034,0.014l0.034,0.013l0.035,0.012l0.034,0.012l0.036,0.01l0.036,0.01l0.036,0.009l0.036,0.008l0.037,0.007l0.037,0.006l0.037,0.005l0.038,0.004l0.038,0.004l0.038,0.002l0.038,0.002l0.041,0l0.196,-0.001l0.196,-0.003l0.198,-0.005l0.199,-0.007l0.199,-0.008l0.2,-0.009l0.202,-0.012l0.202,-0.013l0.203,-0.015l0.204,-0.016l0.205,-0.018l0.206,-0.02l0.206,-0.022l0.208,-0.023l0.208,-0.024l0.209,-0.027l0.209,-0.028l0.211,-0.029l0.211,-0.031l0.212,-0.033l0.213,-0.035l0.214,-0.036l0.214,-0.037l0.215,-0.04l0.216,-0.041l0.216,-0.042l0.218,-0.044l0.217,-0.046l0.219,-0.047l0.219,-0.049l0.22,-0.05l0.22,-0.052l0.221,-0.054l0.222,-0.055l0.222,-0.056l0.223,-0.059l0.223,-0.059l0.224,-0.062l0.224,-0.063l0.225,-0.064l0.226,-0.066l0.226,-0.067l0.226,-0.069l0.227,-0.071l0.228,-0.072l0.228,-0.073l0.228,-0.075l0.229,-0.077l0.229,-0.078l0.23,-0.079l0.23,-0.081l0.231,-0.083l0.23,-0.084l0.232,-0.085l0.231,-0.087l0.232,-0.089l0.233,-0.089l0.232,-0.092l0.233,-0.092l0.234,-0.095l0.233,-0.095l0.234,-0.098l0.234,-0.098l0.235,-0.1l0.235,-0.102l0.234,-0.102l0.236,-0.105l0.235,-0.105l0.236,-0.108l0.235,-0.108l0.236,-0.11l0.237,-0.111l0.236,-0.113l0.236,-0.114l0.237,-0.116l0.237,-0.117l0.237,-0.118l0.237,-0.12l0.237,-0.121l0.237,-0.122l0.237,-0.124l0.237,-0.125l0.238,-0.127l0.237,-0.128l0.237,-0.129l0.238,-0.13l0.237,-0.132l0.238,-0.134l0.237,-0.134l0.237,-0.136l0.238,-0.137l0.237,-0.139l0.237,-0.14l0.237,-0.141l0.237,-0.142l0.237,-0.144l0.237,-0.145l0.237,-0.147l0.236,-0.147l0.237,-0.149l0.236,-0.15l0.236,-0.152l0.236,-0.153l0.236,-0.154l0.235,-0.155l0.236,-0.157l0.235,-0.158l0.235,-0.159l0.235,-0.16l0.234,-0.162l0.234,-0.162l0.234,-0.164l0.233,-0.166l0.234,-0.166l0.233,-0.168l0.232,-0.169l0.233,-0.17l0.232,-0.172l0.231,-0.172l0.231,-0.174l0.231,-0.175l0.231,-0.176l0.23,-0.178l0.229,-0.178l0.23,-0.18l0.228,-0.181l0.229,-0.182l0.228,-0.183l0.227,-0.185l0.227,-0.186l0.226,-0.186l0.226,-0.188l0.226,-0.189l0.225,-0.191l0.224,-0.191l0.224,-0.192l0.223,-0.194l0.223,-0.195l0.222,-0.196l0.221,-0.197l0.221,-0.198l0.221,-0.199l0.219,-0.2l0.219,-0.202l0.219,-0.202l0.217,-0.204l0.217,-0.205l0.217,-0.206l0.215,-0.206l0.215,-0.208l0.214,-0.209l0.214,-0.211l0.213,-0.211l0.212,-0.212l0.211,-0.213l0.21,-0.215l0.21,-0.215l0.209,-0.217l0.208,-0.217l0.207,-0.219l0.207,-0.219l0.205,-0.221l0.205,-0.221l0.204,-0.223l0.203,-0.224l0.202,-0.224l0.201,-0.226l0.2,-0.227l0.2,-0.227l0.198,-0.229l0.198,-0.23l0.196,-0.23l0.196,-0.232l0.194,-0.233l0.194,-0.233l0.193,-0.235l0.191,-0.235l0.191,-0.237l0.189,-0.237l0.189,-0.238l0.187,-0.24l0.186,-0.24l0.186,-0.241l0.184,-0.242l0.183,-0.244l0.182,-0.244l0.181,-0.245l0.179,-0.245l0.179,-0.247l0.177,-0.248l0.177,-0.248l0.175,-0.25l0.174,-0.25l0.172,-0.252l0.172,-0.252l0.17,-0.253l0.169,-0.254l0.167,-0.255l0.167,-0.255l0.165,-0.257l0.164,-0.257l0.163,-0.259l0.161,-0.259l0.16,-0.26l0.159,-0.261l0.157,-0.261l0.156,-0.263l0.154,-0.263l0.154,-0.265l0.152,-0.265l0.15,-0.266l0.149,-0.266l0.148,-0.268l0.146,-0.268l0.145,-0.269l0.143,-0.27l0.142,-0.271l0.14,-0.271l0.139,-0.273l0.137,-0.273l0.136,-0.274l0.135,-0.274l0.132,-0.276l0.132,-0.276l0.129,-0.277l0.128,-0.278l0.127,-0.278l0.125,-0.279l0.123,-0.28l0.122,-0.281l0.12,-0.281l0.119,-0.283l0.117,-0.283l0.115,-0.283l0.114,-0.285l0.111,-0.285l0.111,-0.286l0.108,-0.286l0.107,-0.287l0.105,-0.288l0.103,-0.289l0.102,-0.289l0.1,-0.29l0.098,-0.291l0.096,-0.291l0.094,-0.293l0.093,-0.292l0.091,-0.294l0.089,-0.294l0.087,-0.295l0.085,-0.295l0.084,-0.296l0.081,-0.297l0.08,-0.297l0.078,-0.298l0.076,-0.299l0.013,-0.021l0.038,-0.061l0.062,-0.095l0.082,-0.122l0.049,-0.07l0.053,-0.076l0.057,-0.079l0.061,-0.082l0.066,-0.086l0.069,-0.088l0.072,-0.089l0.075,-0.09l0.078,-0.089l0.081,-0.089l0.083,-0.088l0.042,-0.043l0.043,-0.043l0.043,-0.041l0.044,-0.041l0.044,-0.041l0.044,-0.039l0.045,-0.038l0.045,-0.037l0.045,-0.035l0.046,-0.035l0.046,-0.033l0.046,-0.031l0.046,-0.03l0.046,-0.028l0.047,-0.027l0.046,-0.025l0.047,-0.022l0.046,-0.021l0.047,-0.019l0.046,-0.016l0.047,-0.014l0.046,-0.012l0.046,-0.009l0.046,-0.007l0.045,-0.004l0.046,-0.001l0.053,0.001l0.053,0.004l0.053,0.007l0.053,0.009l0.052,0.012l0.052,0.014l0.051,0.016l0.051,0.019l0.051,0.021l0.05,0.022l0.05,0.025l0.05,0.027l0.049,0.028l0.049,0.03l0.048,0.031l0.047,0.033l0.047,0.035l0.047,0.035l0.046,0.037l0.045,0.038l0.045,0.039l0.044,0.041l0.043,0.041l0.043,0.041l0.042,0.043l0.041,0.043l0.041,0.044l0.04,0.044l0.039,0.044l0.039,0.045l0.074,0.089l0.071,0.09l0.068,0.089l0.063,0.088l0.061,0.086l0.056,0.082l0.052,0.079l0.048,0.076l0.043,0.07l0.039,0.064l0.034,0.058l0.054,0.095l0.033,0.061l0.011,0.021l0.076,0.299l0.078,0.298l0.079,0.297l0.082,0.297l0.083,0.296l0.085,0.296l0.087,0.295l0.088,0.294l0.091,0.293l0.092,0.293l0.094,0.292l0.096,0.292l0.097,0.291l0.099,0.29l0.101,0.289l0.102,0.289l0.105,0.288l0.106,0.288l0.107,0.287l0.109,0.286l0.111,0.285l0.113,0.285l0.114,0.284l0.116,0.283l0.117,0.282l0.119,0.282l0.12,0.281l0.122,0.281l0.124,0.279l0.125,0.279l0.127,0.278l0.128,0.277l0.13,0.277l0.131,0.276l0.133,0.275l0.135,0.274l0.135,0.274l0.138,0.272l0.138,0.272l0.14,0.271l0.142,0.271l0.143,0.269l0.144,0.269l0.146,0.268l0.147,0.267l0.149,0.267l0.15,0.265l0.151,0.265l0.153,0.264l0.154,0.263l0.155,0.262l0.157,0.261l0.158,0.261l0.159,0.259l0.161,0.259l0.162,0.258l0.163,0.257l0.164,0.257l0.166,0.255l0.166,0.254l0.168,0.254l0.17,0.253l0.17,0.252l0.172,0.251l0.172,0.25l0.174,0.249l0.176,0.248l0.176,0.247l0.177,0.247l0.179,0.245l0.179,0.245l0.181,0.244l0.182,0.242l0.183,0.242l0.184,0.241l0.185,0.24l0.186,0.239l0.187,0.238l0.189,0.237l0.189,0.236l0.19,0.235l0.191,0.235l0.192,0.233l0.194,0.232l0.194,0.231l0.195,0.23l0.196,0.23l0.197,0.228l0.198,0.227l0.199,0.227l0.199,0.225l0.201,0.224l0.201,0.223l0.203,0.222l0.203,0.222l0.204,0.22l0.205,0.219l0.206,0.218l0.206,0.217l0.208,0.216l0.208,0.215l0.209,0.214l0.209,0.213l0.211,0.211l0.211,0.211l0.212,0.21l0.213,0.208l0.213,0.208l0.214,0.206l0.215,0.205l0.216,0.205l0.216,0.203l0.217,0.202l0.217,0.201l0.219,0.199l0.218,0.199l0.22,0.197l0.22,0.197l0.22,0.195l0.222,0.194l0.222,0.193l0.222,0.192l0.223,0.191l0.223,0.189l0.224,0.189l0.225,0.187l0.225,0.186l0.226,0.185l0.226,0.184l0.227,0.182l0.227,0.182l0.227,0.18l0.228,0.179l0.229,0.178l0.228,0.176l0.23,0.176l0.229,0.174l0.231,0.173l0.23,0.172l0.231,0.17l0.231,0.17l0.232,0.168l0.232,0.167l0.232,0.165l0.233,0.165l0.233,0.163l0.233,0.162l0.233,0.16l0.234,0.16l0.234,0.158l0.235,0.157l0.234,0.155l0.235,0.154l0.235,0.153l0.236,0.152l0.235,0.151l0.236,0.149l0.236,0.148l0.236,0.146l0.236,0.145l0.237,0.144l0.236,0.143l0.237,0.141l0.237,0.14l0.237,0.139l0.237,0.137l0.237,0.136l0.237,0.135l0.237,0.133l0.238,0.132l0.237,0.13l0.237,0.13l0.238,0.127l0.237,0.127l0.238,0.125l0.237,0.124l0.238,0.122l0.237,0.121l0.238,0.12l0.237,0.118l0.237,0.117l0.238,0.115l0.237,0.114l0.237,0.112l0.237,0.112l0.237,0.109l0.236,0.109l0.237,0.106l0.237,0.106l0.236,0.104l0.236,0.102l0.236,0.102l0.236,0.099l0.236,0.098l0.235,0.097l0.235,0.095l0.235,0.094l0.235,0.093l0.234,0.09l0.235,0.09l0.234,0.088l0.233,0.086l0.234,0.085l0.233,0.084l0.232,0.081l0.233,0.081l0.232,0.079l0.232,0.077l0.231,0.076l0.231,0.074l0.231,0.073l0.23,0.071l0.23,0.07l0.23,0.068l0.229,0.067l0.228,0.065l0.229,0.064l0.227,0.062l0.228,0.06l0.227,0.059l0.226,0.057l0.226,0.056l0.225,0.054l0.225,0.053l0.224,0.051l0.224,0.049l0.223,0.048l0.223,0.046l0.222,0.045l0.222,0.043l0.221,0.041l0.22,0.04l0.22,0.038l0.219,0.036l0.218,0.035l0.218,0.033l0.217,0.032l0.217,0.03l0.216,0.028l0.215,0.027l0.214,0.025l0.214,0.023l0.213,0.022l0.213,0.019l0.211,0.019l0.211,0.016l0.21,0.015l0.209,0.013l0.209,0.012l0.208,0.01l0.207,0.008l0.206,0.006l0.205,0.005l0.205,0.003l0.203,0.001l0.203,0l0.204,-0.001l0.205,-0.003l0.206,-0.005l0.207,-0.007l0.207,-0.008l0.208,-0.01l0.209,-0.011l0.21,-0.013l0.21,-0.015l0.212,-0.016l0.212,-0.019l0.212,-0.019l0.214,-0.022l0.214,-0.023l0.215,-0.025l0.215,-0.026l0.217,-0.028l0.216,-0.03l0.218,-0.031l0.218,-0.033l0.219,-0.034l0.219,-0.036l0.22,-0.038l0.221,-0.039l0.221,-0.041l0.222,-0.043l0.222,-0.044l0.223,-0.045l0.224,-0.048l0.224,-0.048l0.224,-0.051l0.225,-0.052l0.226,-0.053l0.226,-0.055l0.227,-0.057l0.227,-0.058l0.227,-0.06l0.228,-0.061l0.229,-0.063l0.228,-0.065l0.23,-0.065l0.229,-0.068l0.23,-0.069l0.231,-0.07l0.231,-0.072l0.231,-0.074l0.232,-0.075l0.231,-0.076l0.233,-0.078l0.232,-0.08l0.233,-0.081l0.233,-0.082l0.234,-0.084l0.234,-0.086l0.234,-0.087l0.234,-0.088l0.235,-0.09l0.235,-0.091l0.235,-0.093l0.235,-0.094l0.235,-0.096l0.236,-0.097l0.236,-0.099l0.236,-0.1l0.236,-0.101l0.237,-0.103l0.236,-0.104l0.237,-0.106l0.237,-0.107l0.237,-0.109l0.237,-0.11l0.237,-0.111l0.237,-0.113l0.238,-0.114l0.237,-0.116l0.237,-0.117l0.238,-0.118l0.237,-0.12l0.238,-0.121l0.237,-0.122l0.238,-0.124l0.237,-0.125l0.238,-0.127l0.237,-0.127l0.238,-0.13l0.237,-0.13l0.238,-0.132l0.237,-0.133l0.237,-0.135l0.237,-0.136l0.237,-0.137l0.237,-0.139l0.237,-0.139l0.236,-0.142l0.237,-0.142l0.236,-0.144l0.236,-0.145l0.236,-0.146l0.236,-0.148l0.236,-0.149l0.235,-0.15l0.235,-0.152l0.235,-0.152l0.235,-0.155l0.234,-0.155l0.234,-0.156l0.234,-0.158l0.234,-0.159l0.233,-0.161l0.233,-0.161l0.233,-0.163l0.232,-0.164l0.232,-0.166l0.232,-0.166l0.232,-0.168l0.23,-0.169l0.231,-0.17l0.23,-0.171l0.23,-0.173l0.23,-0.174l0.229,-0.175l0.228,-0.176l0.228,-0.177l0.228,-0.179l0.227,-0.18l0.227,-0.181l0.226,-0.182l0.226,-0.183l0.225,-0.185l0.225,-0.185l0.224,-0.187l0.224,-0.188l0.223,-0.189l0.223,-0.19l0.222,-0.192l0.221,-0.192l0.221,-0.194l0.22,-0.194l0.22,-0.196l0.219,-0.197l0.218,-0.198l0.218,-0.2l0.217,-0.2l0.217,-0.201l0.216,-0.203l0.215,-0.204l0.214,-0.204l0.214,-0.206l0.213,-0.207l0.212,-0.208l0.212,-0.209l0.21,-0.21l0.21,-0.211l0.21,-0.213l0.208,-0.213l0.208,-0.214l0.207,-0.216l0.206,-0.216l0.205,-0.218l0.205,-0.218l0.203,-0.22l0.203,-0.22l0.202,-0.222l0.201,-0.222l0.2,-0.224l0.199,-0.225l0.199,-0.225l0.197,-0.227l0.197,-0.228l0.195,-0.228l0.195,-0.23l0.194,-0.231l0.192,-0.231l0.192,-0.233l0.191,-0.233l0.19,-0.235l0.189,-0.236l0.187,-0.236l0.187,-0.237l0.186,-0.239l0.184,-0.239l0.184,-0.24l0.182,-0.242l0.182,-0.242l0.18,-0.243l0.179,-0.244l0.178,-0.245l0.177,-0.246l0.176,-0.246l0.175,-0.248l0.173,-0.249l0.173,-0.249l0.171,-0.251l0.17,-0.251l0.169,-0.252l0.167,-0.253l0.167,-0.254l0.165,-0.255l0.164,-0.256l0.163,-0.256l0.161,-0.258l0.16,-0.258l0.159,-0.259l0.158,-0.26l0.156,-0.261l0.155,-0.262l0.153,-0.262l0.153,-0.264l0.151,-0.264l0.149,-0.265l0.148,-0.266l0.147,-0.266l0.146,-0.268l0.144,-0.268l0.143,-0.269l0.141,-0.27l0.14,-0.271l0.138,-0.271l0.137,-0.273l0.135,-0.273l0.134,-0.274l0.133,-0.274l0.131,-0.276l0.129,-0.276l0.128,-0.277l0.127,-0.278l0.125,-0.278l0.123,-0.279l0.122,-0.28l0.12,-0.281l0.119,-0.282l0.117,-0.282l0.116,-0.283l0.114,-0.283l0.112,-0.285l0.111,-0.285l0.109,-0.286l0.107,-0.286l0.106,-0.287l0.104,-0.288l0.102,-0.289l0.101,-0.289l0.099,-0.29l0.097,-0.291l0.096,-0.291l0.093,-0.293l0.093,-0.292l0.09,-0.294l0.088,-0.294l0.087,-0.295l0.085,-0.295l0.083,-0.296l0.082,-0.297l0.079,-0.297l0.078,-0.298l0.076,-0.299l0.057,-0.082l0.066,-0.095l0.09,-0.123l0.052,-0.07l0.057,-0.075l0.062,-0.079l0.065,-0.083l0.069,-0.085l0.073,-0.088l0.075,-0.089l0.079,-0.09l0.08,-0.09l0.083,-0.089l0.085,-0.088l0.087,-0.085l0.043,-0.042l0.044,-0.041l0.044,-0.04l0.045,-0.039l0.044,-0.039l0.045,-0.037l0.044,-0.035l0.045,-0.035l0.045,-0.033l0.044,-0.031l0.045,-0.03l0.044,-0.028l0.044,-0.027l0.044,-0.025l0.044,-0.022l0.043,-0.021l0.044,-0.019l0.042,-0.016l0.043,-0.014l0.042,-0.012l0.041,-0.009l0.041,-0.007l0.04,-0.004l0.04,-0.002l0.053,0.002l0.053,0.004l0.053,0.007l0.053,0.009l0.052,0.012l0.052,0.014l0.051,0.016l0.051,0.019l0.051,0.021l0.051,0.022l0.049,0.025l0.05,0.027l0.049,0.028l0.049,0.03l0.048,0.031l0.047,0.033l0.047,0.035l0.047,0.035l0.046,0.037l0.045,0.039l0.045,0.039l0.044,0.04l0.043,0.041l0.043,0.042l0.042,0.042l0.041,0.043l0.041,0.044l0.04,0.044l0.039,0.044l0.038,0.045l0.075,0.09l0.07,0.09l0.068,0.089l0.064,0.088l0.06,0.085l0.056,0.083l0.052,0.079l0.048,0.075l0.043,0.07l0.039,0.065l0.034,0.058l0.054,0.095l0.033,0.061l0.011,0.021l0.076,0.299l0.078,0.298l0.079,0.297l0.081,0.297l0.083,0.296l0.084,0.296l0.086,0.295l0.088,0.294l0.09,0.294l0.091,0.293l0.093,0.292l0.094,0.292l0.096,0.291l0.098,0.29l0.099,0.29l0.101,0.289l0.103,0.288l0.104,0.288l0.106,0.287l0.107,0.286l0.109,0.286l0.11,0.285l0.112,0.284l0.114,0.283l0.115,0.283l0.116,0.282l0.118,0.282l0.12,0.28l0.121,0.28l0.122,0.279l0.124,0.279l0.126,0.277l0.127,0.277l0.128,0.276l0.13,0.276l0.131,0.274l0.133,0.274l0.134,0.273l0.135,0.273l0.137,0.271l0.138,0.271l0.139,0.27l0.141,0.269l0.143,0.268l0.143,0.268l0.145,0.267l0.146,0.266l0.148,0.265l0.149,0.264l0.15,0.264l0.151,0.262l0.153,0.262l0.154,0.261l0.155,0.26l0.156,0.26l0.158,0.258l0.159,0.258l0.16,0.256l0.161,0.256l0.163,0.255l0.163,0.254l0.165,0.254l0.166,0.252l0.168,0.251l0.168,0.251l0.169,0.25l0.171,0.248l0.172,0.248l0.173,0.247l0.174,0.246l0.175,0.245l0.176,0.245l0.177,0.243l0.179,0.242l0.179,0.242l0.18,0.24l0.182,0.24l0.182,0.238l0.184,0.238l0.184,0.237l0.186,0.235l0.186,0.235l0.188,0.234l0.188,0.232l0.19,0.232l0.19,0.231l0.191,0.23l0.193,0.229l0.193,0.228l0.194,0.226l0.195,0.226l0.196,0.225l0.197,0.224l0.197,0.222l0.199,0.222l0.199,0.221l0.201,0.22l0.201,0.218l0.202,0.218l0.202,0.216l0.204,0.216l0.204,0.214l0.205,0.213l0.206,0.213l0.207,0.211l0.208,0.21l0.208,0.209l0.209,0.208l0.21,0.207l0.21,0.206l0.211,0.205l0.212,0.203l0.213,0.203l0.213,0.201l0.214,0.2l0.215,0.199l0.215,0.198l0.216,0.197l0.217,0.196l0.217,0.195l0.218,0.193l0.219,0.192l0.219,0.191l0.22,0.19l0.22,0.189l0.221,0.188l0.221,0.186l0.222,0.186l0.223,0.184l0.223,0.183l0.224,0.182l0.224,0.18l0.225,0.18l0.225,0.178l0.226,0.177l0.226,0.176l0.227,0.174l0.227,0.173l0.227,0.173l0.228,0.17l0.229,0.17l0.229,0.168l0.229,0.168l0.23,0.166l0.23,0.164l0.231,0.164l0.231,0.162l0.231,0.161l0.232,0.159l0.232,0.159l0.232,0.157l0.233,0.156l0.233,0.154l0.233,0.153l0.234,0.152l0.234,0.151l0.234,0.149l0.235,0.148l0.235,0.147l0.235,0.145l0.235,0.144l0.236,0.143l0.236,0.141l0.236,0.14l0.236,0.139l0.236,0.137l0.237,0.136l0.237,0.135l0.237,0.133l0.237,0.132l0.238,0.131l0.237,0.129l0.238,0.128l0.238,0.126l0.237,0.125l0.239,0.124l0.238,0.122l0.238,0.121l0.238,0.12l0.239,0.118l0.238,0.116l0.239,0.116l0.238,0.113l0.239,0.113l0.238,0.111l0.239,0.109l0.239,0.108l0.238,0.107l0.239,0.105l0.239,0.104l0.238,0.102l0.239,0.101l0.239,0.099l0.238,0.098l0.238,0.096l0.239,0.095l0.238,0.094l0.238,0.092l0.238,0.09l0.238,0.089l0.238,0.088l0.238,0.086l0.237,0.084l0.238,0.083l0.237,0.081l0.237,0.08l0.237,0.079l0.237,0.076l0.236,0.076l0.237,0.073l0.236,0.073l0.236,0.07l0.235,0.069l0.236,0.068l0.235,0.066l0.235,0.064l0.235,0.063l0.234,0.061l0.234,0.06l0.234,0.058l0.233,0.056l0.234,0.055l0.232,0.053l0.233,0.052l0.232,0.05l0.232,0.049l0.231,0.046l0.231,0.046l0.231,0.043l0.23,0.042l0.23,0.04l0.23,0.039l0.229,0.037l0.228,0.036l0.229,0.033l0.227,0.032l0.228,0.031l0.226,0.028l0.227,0.027l0.226,0.026l0.225,0.024l0.225,0.022l0.224,0.02l0.224,0.018l0.223,0.017l0.223,0.016l0.222,0.013l0.222,0.012l0.221,0.01l0.221,0.008l0.22,0.007l0.219,0.005l0.219,0.003l0.218,0.001l0.217,0l0.217,-0.002l0.194,0l0.195,-0.002l0.196,-0.003l0.197,-0.005l0.198,-0.007l0.198,-0.009l0.2,-0.01l0.201,-0.012l0.201,-0.014l0.203,-0.015l0.203,-0.017l0.204,-0.019l0.205,-0.02l0.206,-0.022l0.207,-0.024l0.208,-0.025l0.208,-0.027l0.209,-0.028l0.211,-0.031l0.21,-0.032l0.212,-0.033l0.212,-0.035l0.214,-0.037l0.213,-0.038l0.215,-0.04l0.215,-0.042l0.216,-0.043l0.217,-0.045l0.217,-0.047l0.219,-0.048l0.218,-0.049l0.22,-0.052l0.22,-0.052l0.22,-0.055l0.222,-0.056l0.221,-0.057l0.223,-0.059l0.223,-0.061l0.224,-0.062l0.224,-0.064l0.224,-0.065l0.226,-0.067l0.226,-0.068l0.226,-0.07l0.227,-0.072l0.227,-0.073l0.228,-0.074l0.228,-0.076l0.228,-0.078l0.23,-0.079l0.229,-0.081l0.23,-0.082l0.23,-0.083l0.231,-0.085l0.231,-0.087l0.232,-0.088l0.232,-0.089l0.232,-0.091l0.233,-0.093l0.232,-0.094l0.234,-0.095l0.233,-0.097l0.234,-0.098l0.234,-0.1l0.234,-0.101l0.235,-0.103l0.235,-0.104l0.235,-0.105l0.235,-0.107l0.236,-0.109l0.236,-0.11l0.236,-0.111l0.236,-0.112l0.236,-0.114l0.237,-0.116l0.236,-0.117l0.237,-0.118l0.237,-0.119l0.237,-0.121l0.237,-0.123l0.237,-0.123l0.237,-0.126l0.237,-0.126l0.238,-0.128l0.237,-0.129l0.238,-0.131l0.237,-0.132l0.237,-0.133l0.238,-0.135l0.237,-0.135l0.238,-0.138l0.237,-0.138l0.237,-0.14l0.238,-0.142l0.237,-0.142l0.237,-0.144l0.237,-0.145l0.237,-0.147l0.236,-0.147l0.237,-0.15l0.236,-0.15l0.237,-0.152l0.236,-0.153l0.236,-0.154l0.236,-0.155l0.235,-0.157l0.236,-0.158l0.235,-0.159l0.235,-0.161l0.235,-0.162l0.234,-0.163l0.234,-0.164l0.234,-0.166l0.234,-0.166l0.233,-0.168l0.233,-0.17l0.233,-0.17l0.232,-0.172l0.232,-0.173l0.231,-0.174l0.232,-0.175l0.231,-0.177l0.23,-0.177l0.23,-0.179l0.23,-0.18l0.229,-0.182l0.229,-0.182l0.228,-0.184l0.228,-0.184l0.227,-0.186l0.227,-0.188l0.227,-0.188l0.225,-0.189l0.226,-0.191l0.225,-0.192l0.224,-0.192l0.224,-0.194l0.223,-0.196l0.223,-0.196l0.222,-0.197l0.221,-0.199l0.221,-0.199l0.22,-0.201l0.219,-0.202l0.219,-0.203l0.219,-0.204l0.217,-0.205l0.217,-0.206l0.216,-0.208l0.216,-0.208l0.215,-0.21l0.214,-0.21l0.213,-0.212l0.212,-0.212l0.212,-0.214l0.211,-0.215l0.211,-0.216l0.209,-0.217l0.209,-0.218l0.207,-0.219l0.207,-0.22l0.207,-0.221l0.205,-0.222l0.204,-0.223l0.204,-0.224l0.203,-0.225l0.201,-0.226l0.201,-0.227l0.2,-0.228l0.199,-0.229l0.198,-0.23l0.197,-0.232l0.197,-0.232l0.195,-0.233l0.194,-0.234l0.193,-0.235l0.192,-0.236l0.191,-0.237l0.191,-0.237l0.189,-0.239l0.188,-0.24l0.187,-0.241l0.185,-0.241l0.185,-0.243l0.184,-0.244l0.182,-0.244l0.182,-0.245l0.18,-0.247l0.179,-0.247l0.178,-0.248l0.177,-0.249l0.175,-0.25l0.175,-0.251l0.173,-0.251l0.172,-0.253l0.171,-0.254l0.169,-0.254l0.169,-0.255l0.166,-0.256l0.166,-0.257l0.165,-0.258l0.163,-0.259l0.162,-0.259l0.16,-0.261l0.159,-0.261l0.158,-0.262l0.156,-0.263l0.156,-0.264l0.153,-0.264l0.153,-0.266l0.15,-0.266l0.15,-0.267l0.148,-0.268l0.147,-0.268l0.145,-0.27l0.144,-0.27l0.142,-0.271l0.141,-0.272l0.139,-0.273l0.138,-0.273l0.136,-0.274l0.135,-0.275l0.133,-0.276l0.131,-0.276l0.131,-0.277l0.128,-0.278l0.127,-0.279l0.125,-0.28l0.124,-0.28l0.122,-0.281l0.12,-0.282l0.119,-0.282l0.117,-0.283l0.116,-0.284l0.114,-0.285l0.112,-0.285l0.11,-0.286l0.109,-0.287l0.107,-0.287l0.105,-0.288l0.104,-0.289l0.101,-0.289l0.1,-0.291l0.099,-0.29l0.096,-0.292l0.095,-0.292l0.092,-0.293l0.091,-0.293l0.089,-0.295l0.088,-0.294l0.085,-0.296l0.084,-0.296l0.081,-0.297l0.08,-0.297l0.078,-0.298l0.076,-0.299l0.011,-0.021l0.033,-0.061l0.054,-0.095l0.034,-0.058l0.039,-0.065l0.043,-0.07l0.048,-0.075l0.052,-0.079l0.056,-0.083l0.06,-0.085l0.064,-0.088l0.068,-0.089l0.07,-0.09l0.075,-0.09l0.038,-0.045l0.039,-0.044l0.04,-0.044l0.041,-0.044l0.041,-0.043l0.042,-0.042l0.043,-0.042l0.043,-0.041l0.044,-0.04l0.045,-0.039l0.045,-0.039l0.046,-0.037l0.047,-0.035l0.047,-0.035l0.047,-0.033l0.048,-0.031l0.049,-0.03l0.049,-0.028l0.05,-0.027l0.049,-0.025l0.051,-0.022l0.051,-0.021l0.051,-0.019l0.051,-0.016l0.052,-0.014l0.052,-0.012l0.053,-0.009l0.053,-0.007l0.053,-0.004l0.053,-0.002l0.053,0.002l0.053,0.004l0.053,0.007l0.053,0.009l0.052,0.012l0.052,0.014l0.051,0.016l0.051,0.019l0.051,0.021l0.051,0.022l0.049,0.025l0.05,0.027l0.049,0.028l0.049,0.03l0.048,0.031l0.047,0.033l0.047,0.035l0.047,0.035l0.046,0.037l0.045,0.039l0.045,0.039l0.044,0.04l0.043,0.041l0.043,0.042l0.042,0.042l0.041,0.043l0.041,0.044l0.04,0.044l0.039,0.044l0.038,0.045l0.075,0.09l0.07,0.09l0.068,0.089l0.064,0.088l0.06,0.085l0.056,0.083l0.052,0.079l0.048,0.075l0.043,0.07l0.039,0.065l0.034,0.058l0.054,0.095l0.033,0.061l0.011,0.021l0.076,0.299l0.078,0.298l0.079,0.297l0.081,0.297l0.083,0.296l0.085,0.296l0.086,0.295l0.089,0.294l0.09,0.293l0.091,0.293l0.094,0.292l0.095,0.292l0.096,0.291l0.099,0.29l0.1,0.289l0.102,0.289l0.103,0.288l0.105,0.288l0.107,0.287l0.108,0.286l0.11,0.285l0.111,0.285l0.113,0.284l0.115,0.283l0.116,0.282l0.118,0.282l0.119,0.281l0.121,0.281l0.122,0.279l0.124,0.279l0.125,0.278l0.127,0.277l0.128,0.277l0.13,0.276l0.131,0.275l0.133,0.274l0.134,0.274l0.135,0.272l0.137,0.272l0.139,0.271l0.14,0.271l0.141,0.269l0.142,0.269l0.144,0.268l0.146,0.267l0.146,0.266l0.148,0.266l0.15,0.265l0.151,0.264l0.152,0.263l0.153,0.262l0.154,0.261l0.156,0.261l0.157,0.259l0.159,0.259l0.16,0.258l0.16,0.257l0.163,0.256l0.163,0.256l0.165,0.254l0.165,0.254l0.167,0.253l0.169,0.252l0.169,0.25l0.17,0.251l0.172,0.249l0.173,0.248l0.174,0.247l0.175,0.247l0.176,0.245l0.177,0.245l0.179,0.244l0.179,0.242l0.181,0.242l0.181,0.241l0.183,0.24l0.184,0.239l0.185,0.238l0.185,0.237l0.187,0.236l0.188,0.235l0.189,0.234l0.189,0.234l0.191,0.232l0.192,0.231l0.193,0.23l0.193,0.23l0.195,0.228l0.195,0.227l0.197,0.226l0.197,0.226l0.198,0.224l0.199,0.223l0.2,0.222l0.201,0.221l0.202,0.221l0.202,0.219l0.203,0.218l0.205,0.217l0.205,0.216l0.205,0.215l0.207,0.214l0.207,0.212l0.208,0.212l0.209,0.211l0.21,0.209l0.21,0.209l0.212,0.207l0.212,0.207l0.212,0.205l0.213,0.204l0.214,0.203l0.215,0.202l0.215,0.201l0.216,0.2l0.217,0.199l0.217,0.197l0.218,0.197l0.219,0.195l0.219,0.194l0.22,0.193l0.22,0.192l0.221,0.191l0.222,0.189l0.222,0.188l0.223,0.188l0.223,0.186l0.224,0.185l0.224,0.183l0.225,0.183l0.225,0.181l0.226,0.181l0.226,0.179l0.227,0.177l0.227,0.177l0.228,0.175l0.228,0.175l0.229,0.173l0.229,0.171l0.229,0.171l0.23,0.169l0.23,0.168l0.231,0.167l0.231,0.166l0.231,0.164l0.232,0.163l0.232,0.162l0.232,0.161l0.233,0.159l0.233,0.158l0.234,0.157l0.233,0.156l0.234,0.154l0.234,0.153l0.235,0.152l0.235,0.15l0.235,0.149l0.235,0.148l0.235,0.147l0.236,0.145l0.236,0.144l0.236,0.142l0.236,0.142l0.237,0.14l0.236,0.138l0.237,0.138l0.237,0.136l0.237,0.134l0.237,0.133l0.237,0.132l0.238,0.131l0.237,0.129l0.238,0.128l0.237,0.126l0.238,0.126l0.238,0.123l0.238,0.123l0.238,0.121l0.237,0.119l0.238,0.118l0.238,0.117l0.238,0.115l0.238,0.114l0.238,0.113l0.238,0.111l0.238,0.11l0.237,0.108l0.238,0.107l0.238,0.105l0.237,0.104l0.238,0.103l0.237,0.101l0.237,0.1l0.237,0.098l0.237,0.097l0.237,0.095l0.237,0.094l0.236,0.092l0.237,0.091l0.236,0.09l0.236,0.087l0.235,0.087l0.236,0.085l0.235,0.083l0.235,0.082l0.235,0.081l0.235,0.078l0.234,0.078l0.234,0.076l0.234,0.074l0.234,0.073l0.233,0.071l0.233,0.07l0.232,0.068l0.232,0.067l0.232,0.065l0.232,0.063l0.231,0.062l0.231,0.061l0.23,0.059l0.23,0.057l0.23,0.056l0.229,0.054l0.229,0.053l0.228,0.051l0.228,0.049l0.228,0.048l0.227,0.046l0.226,0.044l0.226,0.043l0.226,0.042l0.225,0.039l0.224,0.039l0.224,0.036l0.224,0.035l0.223,0.033l0.222,0.032l0.222,0.03l0.221,0.028l0.221,0.026l0.22,0.025l0.22,0.024l0.219,0.021l0.218,0.02l0.217,0.019l0.217,0.016l0.217,0.015l0.216,0.013l0.215,0.012l0.214,0.01l0.214,0.008l0.212,0.006l0.213,0.005l0.211,0.003l0.211,0.001l0.21,0l0.002,0.001l0.037,-0.001l0.037,-0.001l0.037,-0.003l0.037,-0.003l0.037,-0.004l0.036,-0.005l0.037,-0.006l0.036,-0.007l0.036,-0.007l0.035,-0.009l0.036,-0.009l0.035,-0.01l0.035,-0.011l0.034,-0.012l0.035,-0.013l0.033,-0.014l0.034,-0.014l0.033,-0.015l0.033,-0.016l0.033,-0.017l0.032,-0.018l0.031,-0.018l0.032,-0.019l0.03,-0.02l0.031,-0.021l0.029,-0.022l0.03,-0.022l0.029,-0.023l0.028,-0.024l0.028,-0.024l0.027,-0.025l0.026,-0.026l0.026,-0.027l0.026,-0.027l0.024,-0.028l0.024,-0.028l0.023,-0.029l0.022,-0.03l0.022,-0.029l0.021,-0.031l0.019,-0.03l0.02,-0.032l0.018,-0.031l0.018,-0.032l0.017,-0.033l0.016,-0.033l0.015,-0.033l0.014,-0.034l0.014,-0.034l0.012,-0.034l0.012,-0.034l0.011,-0.035l0.011,-0.035l0.009,-0.036l0.008,-0.035l0.008,-0.036l0.007,-0.036l0.006,-0.037l0.005,-0.036l0.004,-0.037l0.003,-0.037l0.002,-0.037l0.002,-0.037l0,-0.037l0,-7.806l0.931,0.12l-0.931,-0.246l0,-243.07l-0.001,-0.514l-0.002,-0.514l-0.004,-0.513l-0.006,-0.513l-0.007,-0.512l-0.009,-0.512l-0.011,-0.512l-0.012,-0.511l-0.014,-0.511l-0.015,-0.511l-0.017,-0.51l-0.019,-0.509l-0.02,-0.51l-0.022,-0.508l-0.023,-0.509l-0.025,-0.508l-0.027,-0.508l-0.028,-0.507l-0.03,-0.507l-0.031,-0.506l-0.033,-0.506l-0.034,-0.505l-0.036,-0.505l-0.038,-0.505l-0.039,-0.504l-0.041,-0.504l-0.042,-0.503l-0.044,-0.503l-0.046,-0.503l-0.047,-0.502l-0.048,-0.501l-0.051,-0.501l-0.051,-0.501l-0.054,-0.5l-0.054,-0.5l-0.057,-0.499l-0.058,-0.499l-0.059,-0.498l-0.061,-0.498l-0.062,-0.497l-0.064,-0.497l-0.066,-0.496l-0.067,-0.496l-0.069,-0.496l-0.07,-0.495l-0.072,-0.494l-0.073,-0.494l-0.074,-0.494l-0.077,-0.493l-0.077,-0.492l-0.08,-0.492l-0.08,-0.491l-0.083,-0.491l-0.083,-0.491l-0.086,-0.49l-0.086,-0.489l-0.089,-0.489l-0.089,-0.489l-0.091,-0.488l-0.093,-0.487l-0.094,-0.487l-0.096,-0.486l-0.097,-0.486l-0.099,-0.485l-0.1,-0.485l-0.101,-0.484l-0.103,-0.484l-0.105,-0.483l-0.106,-0.482l-0.107,-0.482l-0.109,-0.482l-0.111,-0.481l-0.111,-0.48l-0.114,-0.48l-0.114,-0.479l-0.116,-0.479l-0.118,-0.478l-0.119,-0.478l-0.12,-0.477l-0.122,-0.476l-0.124,-0.476l-0.124,-0.475l-0.127,-0.475l-0.127,-0.474l-0.129,-0.473l-0.131,-0.473l-0.132,-0.473l-0.133,-0.471l-0.135,-0.472l-0.136,-0.47l-0.138,-0.47l-0.138,-0.469l-0.141,-0.469l-0.142,-0.468l-0.143,-0.468l-0.144,-0.467l-0.146,-0.466l-0.148,-0.466l-0.148,-0.465l-0.151,-0.465l-0.151,-0.463l-0.153,-0.464l-0.154,-0.462l-0.156,-0.462l-0.157,-0.462l-0.158,-0.46l-0.16,-0.46l-0.161,-0.46l-0.163,-0.459l-0.164,-0.458l-0.165,-0.457l-0.167,-0.457l-0.168,-0.456l-0.169,-0.456l-0.171,-0.455l-0.172,-0.454l-0.173,-0.453l-0.175,-0.453l-0.176,-0.453l-0.177,-0.451l-0.179,-0.451l-0.18,-0.45l-0.181,-0.45l-0.183,-0.449l-0.184,-0.448l-0.186,-0.447l-0.186,-0.447l-0.188,-0.446l-0.19,-0.446l-0.19,-0.444l-0.192,-0.444l-0.194,-0.444l-0.194,-0.442l-0.196,-0.442l-0.197,-0.442l-0.199,-0.44l-0.199,-0.44l-0.202,-0.439l-0.202,-0.438l-0.204,-0.438l-0.205,-0.437l-0.206,-0.436l-0.207,-0.436l-0.209,-0.434l-0.21,-0.434l-0.212,-0.434l-0.212,-0.432l-0.214,-0.432l-0.215,-0.431l-0.217,-0.431l-0.217,-0.429l-0.219,-0.429l-0.221,-0.428l-0.221,-0.428l-0.223,-0.426l-0.224,-0.426l-0.225,-0.425l-0.227,-0.424l-0.227,-0.424l-0.229,-0.423l-0.23,-0.422l-0.232,-0.421l-0.233,-0.421l-0.234,-0.419l-0.235,-0.419l-0.236,-0.418l-0.238,-0.418l-0.238,-0.416l-0.24,-0.416l-0.242,-0.415l-0.242,-0.414l-0.244,-0.414l-0.245,-0.412l-0.246,-0.412l-0.247,-0.411l-0.249,-0.41l-0.249,-0.41l-0.251,-0.408l-0.252,-0.408l-0.254,-0.407l-0.254,-0.406l-0.256,-0.405l-0.257,-0.405l-0.258,-0.403l-0.259,-0.403l-0.26,-0.402l-0.262,-0.401l-0.263,-0.401l-0.263,-0.399l-0.266,-0.399l-0.266,-0.398l-0.267,-0.397l-0.269,-0.396l-0.269,-0.395l-0.271,-0.394l-0.272,-0.394l-0.274,-0.393l-0.274,-0.391l-0.275,-0.391l-0.277,-0.391l-0.278,-0.389l-0.279,-0.388l-0.28,-0.388l-0.281,-0.386l-0.282,-0.386l-0.284,-0.385l-0.284,-0.384l-0.286,-0.383l-0.287,-0.382l-0.288,-0.382l-0.289,-0.38l-0.29,-0.379l-0.291,-0.379l-0.293,-0.378l-0.293,-0.377l-0.295,-0.376l-0.295,-0.375l-0.297,-0.374l-0.298,-0.373l-0.299,-0.372l-0.3,-0.372l-0.301,-0.37l-0.303,-0.37l-0.303,-0.368l-0.304,-0.368l-0.306,-0.367l-0.306,-0.366l-0.308,-0.365l-0.309,-0.364l-0.31,-0.363l-0.31,-0.362l-0.312,-0.361l-0.313,-0.36l-0.314,-0.359l-0.316,-0.359l-0.316,-0.357l-0.317,-0.356l-0.318,-0.356l-0.32,-0.354l-0.32,-0.354l-0.321,-0.352l-0.323,-0.352l-0.323,-0.35l-0.325,-0.35l-0.325,-0.349l-0.327,-0.347l-0.328,-0.347l-0.328,-0.346l-0.33,-0.345l-0.331,-0.343l-0.331,-0.343l-0.333,-0.342l-0.334,-0.341l-0.335,-0.339l-0.335,-0.339l-0.337,-0.338l-0.338,-0.337l-0.339,-0.335l-0.339,-0.335l-0.341,-0.334l-0.342,-0.333l-0.343,-0.331l-0.343,-0.331l-0.345,-0.33l-0.346,-0.328l-0.347,-0.328l-0.347,-0.327l-0.349,-0.325l-0.35,-0.325l-0.35,-0.323l-0.352,-0.323l-0.352,-0.321l-0.354,-0.32l-0.354,-0.32l-0.356,-0.318l-0.356,-0.317l-0.357,-0.316l-0.359,-0.316l-0.359,-0.314l-0.36,-0.313l-0.361,-0.312l-0.362,-0.31l-0.363,-0.31l-0.364,-0.309l-0.365,-0.308l-0.366,-0.306l-0.367,-0.306l-0.368,-0.304l-0.368,-0.303l-0.37,-0.303l-0.37,-0.301l-0.372,-0.3l-0.372,-0.299l-0.373,-0.298l-0.374,-0.297l-0.375,-0.295l-0.376,-0.295l-0.377,-0.293l-0.378,-0.293l-0.379,-0.291l-0.379,-0.29l-0.38,-0.289l-0.382,-0.288l-0.382,-0.287l-0.383,-0.286l-0.384,-0.284l-0.385,-0.284l-0.386,-0.282l-0.386,-0.281l-0.388,-0.28l-0.388,-0.279l-0.389,-0.278l-0.391,-0.277l-0.391,-0.275l-0.391,-0.274l-0.393,-0.274l-0.394,-0.272l-0.394,-0.271l-0.395,-0.269l-0.396,-0.269l-0.397,-0.267l-0.398,-0.266l-0.399,-0.266l-0.399,-0.263l-0.401,-0.263l-0.401,-0.262l-0.402,-0.26l-0.403,-0.259l-0.403,-0.258l-0.405,-0.257l-0.405,-0.256l-0.406,-0.254l-0.407,-0.254l-0.408,-0.252l-0.408,-0.251l-0.41,-0.249l-0.41,-0.249l-0.411,-0.247l-0.412,-0.246l-0.412,-0.245l-0.414,-0.244l-0.414,-0.242l-0.415,-0.242l-0.416,-0.24l-0.416,-0.238l-0.418,-0.238l-0.418,-0.236l-0.419,-0.235l-0.419,-0.234l-0.421,-0.233l-0.421,-0.232l-0.422,-0.23l-0.423,-0.229l-0.424,-0.227l-0.424,-0.227l-0.425,-0.225l-0.426,-0.224l-0.426,-0.223l-0.428,-0.221l-0.428,-0.221l-0.429,-0.219l-0.429,-0.217l-0.431,-0.217l-0.431,-0.215l-0.432,-0.214l-0.432,-0.212l-0.434,-0.212l-0.434,-0.21l-0.434,-0.209l-0.436,-0.207l-0.436,-0.206l-0.437,-0.205l-0.438,-0.204l-0.438,-0.202l-0.439,-0.202l-0.44,-0.199l-0.44,-0.199l-0.442,-0.197l-0.442,-0.196l-0.442,-0.194l-0.444,-0.194l-0.444,-0.192l-0.444,-0.19l-0.446,-0.19l-0.446,-0.188l-0.447,-0.186l-0.447,-0.186l-0.448,-0.184l-0.449,-0.183l-0.45,-0.181l-0.45,-0.18l-0.451,-0.179l-0.451,-0.177l-0.453,-0.176l-0.453,-0.175l-0.453,-0.173l-0.454,-0.172l-0.455,-0.171l-0.456,-0.169l-0.456,-0.168l-0.457,-0.167l-0.457,-0.165l-0.458,-0.164l-0.459,-0.163l-0.46,-0.161l-0.46,-0.16l-0.46,-0.158l-0.462,-0.157l-0.462,-0.156l-0.462,-0.154l-0.464,-0.153l-0.463,-0.151l-0.465,-0.151l-0.465,-0.148l-0.466,-0.148l-0.466,-0.146l-0.467,-0.144l-0.468,-0.143l-0.468,-0.142l-0.469,-0.141l-0.469,-0.138l-0.47,-0.138l-0.47,-0.136l-0.472,-0.135l-0.471,-0.133l-0.473,-0.132l-0.473,-0.131l-0.473,-0.129l-0.474,-0.127l-0.475,-0.127l-0.475,-0.124l-0.476,-0.124l-0.476,-0.122l-0.477,-0.12l-0.478,-0.119l-0.478,-0.118l-0.479,-0.116l-0.479,-0.114l-0.48,-0.114l-0.48,-0.111l-0.481,-0.111l-0.482,-0.109l-0.482,-0.107l-0.482,-0.106l-0.483,-0.105l-0.484,-0.103l-0.484,-0.101l-0.485,-0.1l-0.485,-0.099l-0.486,-0.097l-0.486,-0.096l-0.487,-0.094l-0.487,-0.093l-0.488,-0.091l-0.489,-0.089l-0.489,-0.089l-0.489,-0.086l-0.49,-0.086l-0.491,-0.083l-0.491,-0.083l-0.491,-0.08l-0.492,-0.08l-0.492,-0.077l-0.493,-0.077l-0.494,-0.074l-0.494,-0.073l-0.494,-0.072l-0.495,-0.07l-0.496,-0.069l-0.496,-0.067l-0.496,-0.066l-0.497,-0.064l-0.497,-0.062l-0.498,-0.061l-0.498,-0.059l-0.499,-0.058l-0.499,-0.057l-0.5,-0.054l-0.5,-0.054l-0.501,-0.051l-0.501,-0.051l-0.501,-0.048l-0.502,-0.047l-0.503,-0.046l-0.503,-0.044l-0.503,-0.042l-0.504,-0.041l-0.504,-0.039l-0.505,-0.038l-0.505,-0.036l-0.505,-0.034l-0.506,-0.033l-0.506,-0.031l-0.507,-0.03l-0.507,-0.028l-0.508,-0.027l-0.508,-0.025l-0.509,-0.023l-0.508,-0.022l-0.51,-0.02l-0.509,-0.019l-0.51,-0.017l-0.511,-0.015l-0.511,-0.014l-0.511,-0.012l-0.512,-0.011l-0.512,-0.009l-0.512,-0.007l-0.513,-0.006l-0.513,-0.004l-0.514,-0.002l-0.514,-0.001l-0.514,0.001Z" style="fill:#8c8c8c;"/></g><circle cx="109.426" cy="137.125" r="8.808" style="fill:#fff;fill-opacity:0.431373;"/><path d="M109.661,118.819c10.346,0.196 19.377,10.28 17.896,20.856c-1.209,8.629 -9.36,15.759 -18.131,15.759c-12.086,0 -22.241,-14.335 -16.496,-26.251c2.935,-6.089 9.404,-10.234 16.261,-10.364c0.236,-0.002 0.235,-0.002 0.47,0Zm-0.349,9.499c-5.794,0.111 -10.553,6.966 -7.825,12.625c3.129,6.49 15.455,6.028 16.661,-2.586c0.7,-4.996 -3.418,-10.073 -8.836,-10.039Z" style="fill:#8c8c8c;fill-rule:nonzero;"/><circle cx="229.426" cy="137.125" r="8.808" style="fill:#fff;fill-opacity:0.431373;"/><path d="M229.661,118.819c10.418,0.197 19.495,10.404 17.863,21.083c-1.305,8.533 -9.392,15.532 -18.098,15.532c-10.517,0 -19.851,-10.526 -18.061,-21.313c1.387,-8.359 9.121,-15.137 17.826,-15.302c0.235,-0.002 0.235,-0.002 0.47,0Zm-0.349,9.499c-5.794,0.111 -10.553,6.966 -7.825,12.625c3.129,6.49 15.455,6.028 16.661,-2.586c0.7,-4.996 -3.418,-10.073 -8.836,-10.039Z" style="fill:#8c8c8c;fill-rule:nonzero;"/><path d="M257.46,211.059c4.622,1.006 4.776,6.936 -0.942,12.357c-10.988,10.417 -27.779,12.42 -42.944,13.838c-31.667,2.96 -64.04,-0.635 -94.488,7.084c-1.417,0.359 -2.825,0.753 -4.22,1.19c-1.038,0.326 -2.069,0.675 -3.09,1.053c-1.56,0.578 -3.095,1.223 -4.587,1.953c-4.726,2.312 -9.129,5.574 -11.74,10.36c0,0 -3.023,3.521 -6.199,2.02c-2.584,-1.221 -3.276,-4.646 -1.697,-7.361c6.971,-11.988 21.888,-17.162 35.228,-19.769c32.293,-6.31 65.641,-2.199 99.253,-7.085c11.696,-1.7 24.785,-4.167 30.671,-13.485c0,0 1.441,-1.799 3.105,-2.125c1.024,-0.2 1.303,-0.064 1.65,-0.03Z" style="fill:#8c8c8c;fill-rule:nonzero;"/></g></svg>